<svg width="343.000000" height="284.925903" viewBox="0 0 343 284.926" fill="none" xmlns="http://www.w3.org/2000/svg" xmlns:xlink="http://www.w3.org/1999/xlink">
	<desc>
			Created with Pixso.
	</desc>
	<defs>
		<filter id="filter_17_5973_dd" x="47.123047" y="35.791260" width="247.678711" height="247.411621" filterUnits="userSpaceOnUse" color-interpolation-filters="sRGB">
			<feFlood flood-opacity="0" result="BackgroundImageFix"/>
			<feColorMatrix in="SourceAlpha" type="matrix" values="0 0 0 0 0 0 0 0 0 0 0 0 0 0 0 0 0 0 127 0" result="hardAlpha"/>
			<feMorphology radius="-10.3024" in="" result="BackgroundImageFix"/>
			<feOffset dx="0" dy="17.1706"/>
			<feGaussianBlur stdDeviation="19.1739"/>
			<feComposite in2="hardAlpha" operator="out" k2="-1" k3="1"/>
			<feColorMatrix type="matrix" values="0 0 0 0 0 0 0 0 0 0 0 0 0 0 0 0 0 0 0.3 0"/>
			<feBlend mode="normal" in2="BackgroundImageFix" result="effect_dropShadow_1"/>
			<feBlend mode="normal" in="SourceGraphic" in2="effect_dropShadow_1" result="shape"/>
		</filter>
		<clipPath id="clip17_5918">
			<rect id="Обложка карточки" rx="29.713888" width="342.427765" height="284.353699" transform="translate(0.286112 0.286112)" fill="white" fill-opacity="0"/>
		</clipPath>
	</defs>
	<rect id="Обложка карточки" rx="29.713888" width="342.427765" height="284.353699" transform="translate(0.286112 0.286112)" fill="#AD61FF" fill-opacity="1.000000"/>
	<g clip-path="url(#clip17_5918)">
		<rect id="Frame 2043683072" rx="19.750000" width="91.571602" height="91.571609" transform="translate(-26.901367 -140.385864) rotate(10.000000)" fill="#D9B6FF" fill-opacity="1.000000"/>
		<path id="44" d="M4.84 -80.57L8.62 -79.91L9.63 -85.6L5.85 -86.26L6.62 -90.58L-0.17 -91.77L-0.93 -87.46L-6.08 -88.37L6.88 -101.38L-0.55 -102.69L-14.75 -88.85L-15.57 -84.17L-2.16 -81.81L-3.02 -76.95L3.98 -75.71L4.84 -80.57ZM30.23 -76.09L34.01 -75.43L35.01 -81.12L31.24 -81.79L32.01 -86.1L25.22 -87.3L24.46 -82.98L19.31 -83.89L32.27 -96.9L24.84 -98.21L10.64 -84.37L9.81 -79.7L23.23 -77.33L22.37 -72.47L29.37 -71.23L30.23 -76.09Z" fill="#FFFFFF" fill-opacity="1.000000" fill-rule="evenodd"/>
		<path id="44" d="M8.62 -79.91L4.84 -80.57L3.98 -75.71L-3.02 -76.95L-2.16 -81.81L-15.57 -84.17L-14.75 -88.85L-0.55 -102.69L6.88 -101.38L-6.08 -88.37L-0.93 -87.46L-0.17 -91.77L6.62 -90.58L5.85 -86.26L9.63 -85.6L8.62 -79.91ZM34.01 -75.43L30.23 -76.09L29.37 -71.23L22.37 -72.47L23.23 -77.33L9.81 -79.7L10.64 -84.37L24.84 -98.21L32.27 -96.9L19.31 -83.89L24.46 -82.98L25.22 -87.3L32.01 -86.1L31.24 -81.79L35.01 -81.12L34.01 -75.43Z" stroke="#202027" stroke-opacity="1.000000" stroke-width="0.575447"/>
		<rect id="Frame 2043683072" rx="19.750000" width="91.571602" height="91.571609" transform="translate(-26.901367 -140.385864) rotate(10.000000)" stroke="#202027" stroke-opacity="1.000000" stroke-width="0.500000"/>
		<rect id="Frame 2043683060" rx="19.750000" width="91.571602" height="91.571609" transform="translate(70.641602 -123.186279) rotate(10.000000)" fill="#D9B6FF" fill-opacity="1.000000"/>
		<path id="6" d="M114.37 -72.23Q112.79 -73.21 110.83 -73.55Q107.63 -74.12 105.27 -72.96Q105.01 -72.83 104.76 -72.68Q105.44 -75.19 107.08 -76.43Q107.28 -76.58 107.49 -76.72Q107.8 -76.91 108.13 -77.06Q109.9 -77.86 112.22 -77.45Q115.06 -76.95 116.68 -75.32L120.2 -80.02Q118.98 -81.16 117.11 -81.98Q115.24 -82.8 113.06 -83.18Q109.03 -83.89 105.69 -82.79Q104.35 -82.35 103.19 -81.63Q101.45 -80.56 100.11 -78.86Q97.87 -76.02 97.1 -71.67Q96.08 -65.89 98.38 -62.18Q98.49 -62 98.61 -61.83Q99.14 -61.05 99.79 -60.4Q102.32 -57.85 106.64 -57.09Q109.44 -56.6 111.89 -57.26Q113.58 -57.72 114.9 -58.69Q115.5 -59.13 116.02 -59.67Q116.48 -60.16 116.85 -60.71Q117.82 -62.14 118.15 -64Q118.46 -65.74 118.07 -67.32Q117.94 -67.87 117.72 -68.39Q117.36 -69.24 116.85 -69.96Q116.11 -70.99 115.04 -71.78Q114.71 -72.02 114.37 -72.23ZM109.29 -62.47Q108.33 -62.06 107.11 -62.28Q105.67 -62.53 104.87 -63.38Q104.76 -63.49 104.67 -63.62Q104.37 -64.02 104.22 -64.47Q103.97 -65.21 104.12 -66.1Q104.29 -67.02 104.81 -67.64Q105.1 -68 105.51 -68.25Q105.75 -68.4 106 -68.51Q106.97 -68.92 108.21 -68.7Q109.52 -68.47 110.3 -67.7Q110.44 -67.55 110.57 -67.39Q110.84 -67.04 110.99 -66.65Q111.3 -65.87 111.12 -64.9Q110.94 -63.86 110.34 -63.21Q110.08 -62.92 109.74 -62.71Q109.52 -62.57 109.29 -62.47Z" fill="#FFFFFF" fill-opacity="1.000000" fill-rule="evenodd"/>
		<path id="6" d="M110.83 -73.55Q113.22 -73.13 115.04 -71.78Q116.86 -70.43 117.72 -68.39Q118.57 -66.35 118.15 -64Q117.7 -61.42 116.02 -59.67Q114.35 -57.93 111.89 -57.26Q109.44 -56.6 106.64 -57.09Q101.2 -58.05 98.61 -61.83Q96.03 -65.62 97.1 -71.67Q97.87 -76.02 100.11 -78.86Q102.36 -81.7 105.69 -82.79Q109.03 -83.89 113.06 -83.18Q115.24 -82.8 117.11 -81.98Q118.98 -81.16 120.2 -80.02L116.68 -75.32Q115.06 -76.95 112.22 -77.45Q109.47 -77.94 107.49 -76.72Q105.52 -75.49 104.76 -72.68Q107.27 -74.18 110.83 -73.55ZM107.11 -62.28Q108.63 -62.01 109.74 -62.71Q110.86 -63.41 111.12 -64.9Q111.38 -66.35 110.57 -67.39Q109.77 -68.43 108.21 -68.7Q106.65 -68.98 105.51 -68.25Q104.38 -67.54 104.12 -66.1Q103.87 -64.68 104.67 -63.62Q105.48 -62.56 107.11 -62.28Z" stroke="#202027" stroke-opacity="1.000000" stroke-width="0.575447"/>
		<rect id="Frame 2043683060" rx="19.750000" width="91.571602" height="91.571609" transform="translate(70.641602 -123.186279) rotate(10.000000)" stroke="#202027" stroke-opacity="1.000000" stroke-width="0.500000"/>
		<rect id="Frame 2043683061" rx="19.750000" width="91.571602" height="91.571609" transform="translate(168.185547 -105.986816) rotate(10.000000)" fill="#D9B6FF" fill-opacity="1.000000"/>
		<path id="11" d="M200.48 -41.06L204.98 -66.45L193.09 -68.54L192.1 -63L196.82 -62.17L193.3 -42.33L200.48 -41.06ZM215.17 -38.47L219.67 -63.86L207.78 -65.95L206.79 -60.41L211.5 -59.58L207.99 -39.74L215.17 -38.47Z" fill="#FFFFFF" fill-opacity="1.000000" fill-rule="evenodd"/>
		<path id="11" d="M204.98 -66.45L200.48 -41.06L193.3 -42.33L196.82 -62.17L192.1 -63L193.09 -68.54L204.98 -66.45ZM219.67 -63.86L215.17 -38.47L207.99 -39.74L211.5 -59.58L206.79 -60.41L207.78 -65.95L219.67 -63.86Z" stroke="#202027" stroke-opacity="1.000000" stroke-width="0.575447"/>
		<rect id="Frame 2043683061" rx="19.750000" width="91.571602" height="91.571609" transform="translate(168.185547 -105.986816) rotate(10.000000)" stroke="#202027" stroke-opacity="1.000000" stroke-width="0.500000"/>
		<rect id="Frame 2043683123" rx="19.750000" width="91.571602" height="91.571609" transform="translate(265.728516 -88.787231) rotate(10.000000)" fill="#D9B6FF" fill-opacity="1.000000"/>
		<path id="48" d="M325.46 -30.25Q324.79 -31.9 323.23 -33.21Q324.44 -33.78 325.29 -34.68Q325.47 -34.87 325.63 -35.07Q325.84 -35.34 326.02 -35.63Q326.64 -36.62 326.85 -37.85Q327.1 -39.22 326.82 -40.47Q326.65 -41.24 326.27 -41.97Q326.26 -42 326.25 -42.02Q325.28 -43.9 323.16 -45.2Q321.02 -46.51 318.04 -47.04Q315.07 -47.56 312.61 -47.06Q310.18 -46.57 308.61 -45.13Q308.59 -45.11 308.57 -45.09Q307.98 -44.55 307.56 -43.89Q306.86 -42.8 306.61 -41.42Q306.39 -40.19 306.63 -39.04Q306.7 -38.71 306.81 -38.39Q306.89 -38.15 306.99 -37.91Q307.48 -36.77 308.43 -35.83Q306.51 -35.12 305.3 -33.8Q305.04 -33.51 304.81 -33.19Q304.02 -32.06 303.76 -30.56Q303.49 -29.05 303.81 -27.67Q304 -26.86 304.38 -26.1Q305.45 -24.05 307.77 -22.63Q310.1 -21.21 313.37 -20.64Q316.64 -20.06 319.31 -20.6Q321.99 -21.14 323.68 -22.7Q324.32 -23.29 324.78 -24Q325.54 -25.18 325.81 -26.67Q326.07 -28.15 325.72 -29.46Q325.62 -29.86 325.46 -30.25ZM297.86 -28.91L301.63 -28.24L302.64 -33.93L298.87 -34.6L299.63 -38.91L292.85 -40.11L292.08 -35.79L286.93 -36.7L299.89 -49.71L292.46 -51.02L278.26 -37.18L277.44 -32.51L290.85 -30.14L289.99 -25.28L297 -24.05L297.86 -28.91ZM315.07 -41.79Q315.97 -42.2 317.15 -41.99Q318.46 -41.76 319.16 -40.99Q319.2 -40.94 319.24 -40.89Q319.45 -40.64 319.58 -40.35Q319.88 -39.66 319.72 -38.77Q319.58 -37.95 319.1 -37.43Q318.87 -37.17 318.55 -36.98Q318.49 -36.95 318.44 -36.92Q317.51 -36.43 316.21 -36.66Q314.89 -36.89 314.21 -37.68Q314.17 -37.72 314.14 -37.76Q313.92 -38.03 313.79 -38.33Q313.52 -39 313.67 -39.84Q313.82 -40.73 314.34 -41.27Q314.56 -41.5 314.85 -41.67Q314.96 -41.73 315.07 -41.79ZM317.18 -26.04Q316.01 -25.37 314.26 -25.68Q312.52 -25.98 311.63 -27.02Q311.28 -27.43 311.12 -27.9Q310.86 -28.63 311.01 -29.5Q311.17 -30.39 311.68 -30.99Q312 -31.36 312.45 -31.62Q312.45 -31.62 312.45 -31.62Q313.64 -32.29 315.38 -31.99Q317.12 -31.68 318 -30.64L318 -30.64Q318.35 -30.24 318.52 -29.77Q318.78 -29.04 318.63 -28.16Q318.47 -27.3 317.99 -26.71Q317.66 -26.31 317.18 -26.04Z" fill="#FFFFFF" fill-opacity="1.000000" fill-rule="evenodd"/>
		<path id="48" d="M301.63 -28.24L297.86 -28.91L297 -24.05L289.99 -25.28L290.85 -30.14L277.44 -32.51L278.26 -37.18L292.46 -51.02L299.89 -49.71L286.93 -36.7L292.08 -35.79L292.85 -40.11L299.63 -38.91L298.87 -34.6L302.64 -33.93L301.63 -28.24ZM323.23 -33.21Q324.79 -31.9 325.46 -30.25Q326.15 -28.59 325.81 -26.67Q325.38 -24.27 323.68 -22.7Q321.99 -21.14 319.31 -20.6Q316.64 -20.06 313.37 -20.64Q310.1 -21.21 307.77 -22.63Q305.45 -24.05 304.38 -26.1Q303.33 -28.16 303.76 -30.56Q304.1 -32.48 305.3 -33.8Q306.51 -35.12 308.43 -35.83Q307.29 -36.97 306.81 -38.39Q306.33 -39.83 306.61 -41.42Q307.01 -43.64 308.57 -45.09Q310.14 -46.56 312.61 -47.06Q315.07 -47.56 318.04 -47.04Q321.02 -46.51 323.16 -45.2Q325.3 -43.89 326.27 -41.97Q327.25 -40.07 326.85 -37.85Q326.57 -36.26 325.63 -35.07Q324.69 -33.9 323.23 -33.21ZM317.15 -41.99Q315.81 -42.23 314.85 -41.67Q313.89 -41.11 313.67 -39.84Q313.45 -38.61 314.14 -37.76Q314.83 -36.91 316.21 -36.66Q317.59 -36.42 318.55 -36.98Q319.5 -37.54 319.72 -38.77Q319.95 -40.04 319.24 -40.89Q318.53 -41.75 317.15 -41.99ZM314.26 -25.68Q316.01 -25.37 317.18 -26.04Q318.37 -26.71 318.63 -28.16Q318.88 -29.61 318 -30.64Q317.12 -31.68 315.38 -31.99Q313.64 -32.3 312.45 -31.62Q311.27 -30.95 311.01 -29.5Q310.76 -28.06 311.63 -27.02Q312.52 -25.98 314.26 -25.68Z" stroke="#202027" stroke-opacity="1.000000" stroke-width="0.575447"/>
		<rect id="Frame 2043683123" rx="19.750000" width="91.571602" height="91.571609" transform="translate(265.728516 -88.787231) rotate(10.000000)" stroke="#202027" stroke-opacity="1.000000" stroke-width="0.500000"/>
		<rect id="Frame 2043683063" rx="19.750000" width="91.571602" height="91.571609" transform="translate(363.272461 -71.587646) rotate(10.000000)" fill="#D9B6FF" fill-opacity="1.000000"/>
		<path id="48" d="M423.01 -13.05Q422.33 -14.7 420.77 -16.02Q421.98 -16.58 422.84 -17.48Q423.01 -17.67 423.18 -17.87Q423.39 -18.14 423.56 -18.43Q424.18 -19.42 424.4 -20.65Q424.64 -22.02 424.36 -23.27Q424.19 -24.04 423.81 -24.77Q423.8 -24.8 423.79 -24.82Q422.82 -26.7 420.7 -28Q418.56 -29.32 415.59 -29.84Q412.61 -30.36 410.15 -29.86Q407.72 -29.37 406.16 -27.94Q406.13 -27.92 406.11 -27.9Q405.52 -27.35 405.1 -26.69Q404.4 -25.6 404.16 -24.22Q403.94 -22.99 404.17 -21.85Q404.24 -21.52 404.35 -21.19Q404.43 -20.95 404.53 -20.71Q405.02 -19.57 405.97 -18.63Q404.05 -17.92 402.84 -16.6Q402.58 -16.31 402.36 -15.99Q401.57 -14.86 401.3 -13.36Q401.03 -11.85 401.35 -10.47Q401.54 -9.66 401.93 -8.9Q402.99 -6.85 405.31 -5.43Q407.64 -4.01 410.91 -3.44Q414.18 -2.86 416.85 -3.4Q419.53 -3.94 421.22 -5.5Q421.86 -6.09 422.32 -6.8Q423.08 -7.98 423.35 -9.47Q423.61 -10.95 423.27 -12.26Q423.16 -12.66 423.01 -13.05ZM395.4 -11.71L399.17 -11.04L400.18 -16.73L396.41 -17.4L397.17 -21.71L390.39 -22.91L389.63 -18.6L384.47 -19.5L397.43 -32.51L390 -33.82L375.81 -19.98L374.98 -15.31L388.4 -12.94L387.53 -8.08L394.54 -6.85L395.4 -11.71ZM412.61 -24.59Q413.51 -25 414.69 -24.79Q416 -24.56 416.7 -23.79Q416.74 -23.74 416.78 -23.69Q416.99 -23.44 417.12 -23.15Q417.42 -22.46 417.27 -21.57Q417.12 -20.75 416.65 -20.23Q416.41 -19.97 416.09 -19.78Q416.04 -19.75 415.98 -19.72Q415.05 -19.23 413.75 -19.46Q412.44 -19.69 411.75 -20.48Q411.71 -20.52 411.68 -20.56Q411.46 -20.83 411.34 -21.13Q411.06 -21.8 411.21 -22.64Q411.37 -23.53 411.89 -24.07Q412.11 -24.3 412.39 -24.47Q412.5 -24.53 412.61 -24.59ZM414.73 -8.84Q413.55 -8.17 411.8 -8.48Q410.06 -8.78 409.17 -9.82Q408.83 -10.23 408.66 -10.7Q408.4 -11.43 408.56 -12.3Q408.71 -13.19 409.22 -13.79Q409.54 -14.16 409.99 -14.42Q409.99 -14.42 410 -14.42Q411.18 -15.1 412.92 -14.79Q414.67 -14.48 415.54 -13.44L415.54 -13.44Q415.89 -13.04 416.06 -12.57Q416.33 -11.84 416.17 -10.96Q416.02 -10.1 415.53 -9.51Q415.21 -9.11 414.73 -8.84Z" fill="#FFFFFF" fill-opacity="1.000000" fill-rule="evenodd"/>
		<path id="48" d="M399.17 -11.04L395.4 -11.71L394.54 -6.85L387.53 -8.08L388.4 -12.94L374.98 -15.31L375.81 -19.98L390 -33.82L397.43 -32.51L384.47 -19.5L389.63 -18.6L390.39 -22.91L397.17 -21.71L396.41 -17.4L400.18 -16.73L399.17 -11.04ZM420.77 -16.02Q422.33 -14.7 423.01 -13.05Q423.69 -11.39 423.35 -9.47Q422.92 -7.07 421.22 -5.5Q419.53 -3.94 416.85 -3.4Q414.18 -2.86 410.91 -3.44Q407.64 -4.01 405.31 -5.43Q402.99 -6.85 401.93 -8.9Q400.88 -10.96 401.3 -13.36Q401.64 -15.28 402.84 -16.6Q404.05 -17.92 405.97 -18.63Q404.83 -19.77 404.35 -21.19Q403.87 -22.63 404.16 -24.22Q404.55 -26.44 406.11 -27.9Q407.69 -29.36 410.15 -29.86Q412.61 -30.36 415.59 -29.84Q418.56 -29.32 420.7 -28Q422.85 -26.69 423.81 -24.77Q424.79 -22.87 424.4 -20.65Q424.12 -19.06 423.18 -17.87Q422.24 -16.7 420.77 -16.02ZM414.69 -24.79Q413.36 -25.03 412.39 -24.47Q411.43 -23.91 411.21 -22.64Q410.99 -21.41 411.68 -20.56Q412.37 -19.71 413.75 -19.46Q415.13 -19.22 416.09 -19.78Q417.05 -20.34 417.27 -21.57Q417.49 -22.84 416.78 -23.69Q416.08 -24.55 414.69 -24.79ZM411.8 -8.48Q413.55 -8.17 414.73 -8.84Q415.91 -9.51 416.17 -10.96Q416.43 -12.41 415.54 -13.44Q414.67 -14.48 412.92 -14.79Q411.18 -15.1 409.99 -14.42Q408.81 -13.75 408.56 -12.3Q408.3 -10.86 409.17 -9.82Q410.06 -8.78 411.8 -8.48Z" stroke="#202027" stroke-opacity="1.000000" stroke-width="0.575447"/>
		<rect id="Frame 2043683063" rx="19.750000" width="91.571602" height="91.571609" transform="translate(363.272461 -71.587646) rotate(10.000000)" stroke="#202027" stroke-opacity="1.000000" stroke-width="0.500000"/>
		<rect id="Frame 2043683124" rx="19.750000" width="91.571602" height="91.571609" transform="translate(-44.088867 -42.912720) rotate(10.000000)" fill="#D9B6FF" fill-opacity="1.000000"/>
		<path id="44" d="M-12.34 16.9L-8.57 17.57L-7.56 11.87L-11.33 11.21L-10.57 6.9L-17.35 5.7L-18.12 10.01L-23.27 9.1L-10.31 -3.9L-17.74 -5.21L-31.93 8.63L-32.76 13.3L-19.35 15.67L-20.21 20.53L-13.2 21.76L-12.34 16.9ZM13.05 21.38L16.82 22.04L17.83 16.35L14.05 15.69L14.82 11.37L8.04 10.18L7.27 14.49L2.12 13.58L15.08 0.57L7.65 -0.74L-6.55 13.1L-7.37 17.78L6.04 20.14L5.18 25L12.18 26.24L13.05 21.38Z" fill="#FFFFFF" fill-opacity="1.000000" fill-rule="evenodd"/>
		<path id="44" d="M-8.57 17.57L-12.34 16.9L-13.2 21.76L-20.21 20.53L-19.35 15.67L-32.76 13.3L-31.93 8.63L-17.74 -5.21L-10.31 -3.9L-23.27 9.1L-18.12 10.01L-17.35 5.7L-10.57 6.9L-11.33 11.21L-7.56 11.87L-8.57 17.57ZM16.82 22.04L13.05 21.38L12.18 26.24L5.18 25L6.04 20.14L-7.37 17.78L-6.55 13.1L7.65 -0.74L15.08 0.57L2.12 13.58L7.27 14.49L8.04 10.18L14.82 11.37L14.05 15.69L17.83 16.35L16.82 22.04Z" stroke="#202027" stroke-opacity="1.000000" stroke-width="0.575447"/>
		<rect id="Frame 2043683124" rx="19.750000" width="91.571602" height="91.571609" transform="translate(-44.088867 -42.912720) rotate(10.000000)" stroke="#202027" stroke-opacity="1.000000" stroke-width="0.500000"/>
		<rect id="Frame 2043683125" rx="19.750000" width="91.571602" height="91.571609" transform="translate(53.454102 -25.713013) rotate(10.000000)" fill="#D9B6FF" fill-opacity="1.000000"/>
		<path id="6" d="M97.18 25.24Q95.61 24.27 93.64 23.92Q90.44 23.36 88.09 24.52Q87.82 24.64 87.57 24.8Q88.25 22.28 89.89 21.04Q90.09 20.89 90.3 20.76Q90.61 20.57 90.94 20.42Q92.71 19.61 95.04 20.02Q97.87 20.52 99.49 22.15L103.02 17.46Q101.79 16.31 99.92 15.5Q98.05 14.67 95.87 14.29Q91.84 13.58 88.5 14.68Q87.16 15.12 86 15.84Q84.27 16.92 82.92 18.62Q80.68 21.45 79.91 25.8Q78.89 31.58 81.2 35.3Q81.31 35.47 81.42 35.64Q81.95 36.42 82.61 37.08Q85.13 39.62 89.45 40.38Q92.25 40.88 94.7 40.21Q96.39 39.75 97.71 38.78Q98.31 38.34 98.83 37.8Q99.29 37.31 99.67 36.77Q100.63 35.34 100.96 33.47Q101.27 31.73 100.88 30.16Q100.75 29.61 100.53 29.08Q100.18 28.24 99.66 27.51Q98.92 26.48 97.85 25.69Q97.52 25.45 97.18 25.24ZM92.1 35Q91.14 35.41 89.92 35.2Q88.48 34.94 87.68 34.09Q87.58 33.98 87.48 33.86Q87.18 33.45 87.03 33Q86.78 32.26 86.94 31.38Q87.1 30.45 87.62 29.83Q87.91 29.48 88.32 29.22Q88.56 29.07 88.81 28.96Q89.79 28.55 91.02 28.77Q92.33 29 93.11 29.77Q93.26 29.92 93.38 30.08Q93.65 30.43 93.8 30.82Q94.11 31.61 93.94 32.57Q93.75 33.61 93.15 34.27Q92.89 34.55 92.55 34.77Q92.33 34.9 92.1 35Z" fill="#FFFFFF" fill-opacity="1.000000" fill-rule="evenodd"/>
		<path id="6" d="M93.64 23.92Q96.03 24.34 97.85 25.69Q99.67 27.04 100.53 29.08Q101.38 31.12 100.96 33.47Q100.51 36.05 98.83 37.8Q97.16 39.54 94.7 40.21Q92.25 40.88 89.45 40.38Q84.01 39.42 81.42 35.64Q78.84 31.86 79.91 25.8Q80.68 21.45 82.92 18.62Q85.17 15.77 88.5 14.68Q91.84 13.58 95.87 14.29Q98.05 14.67 99.92 15.5Q101.79 16.31 103.02 17.46L99.49 22.15Q97.87 20.52 95.04 20.02Q92.28 19.54 90.3 20.76Q88.33 21.98 87.57 24.8Q90.08 23.29 93.64 23.92ZM89.92 35.2Q91.44 35.47 92.55 34.77Q93.67 34.06 93.94 32.57Q94.19 31.12 93.38 30.08Q92.58 29.05 91.02 28.77Q89.46 28.5 88.32 29.22Q87.19 29.93 86.94 31.38Q86.68 32.79 87.48 33.86Q88.29 34.91 89.92 35.2Z" stroke="#202027" stroke-opacity="1.000000" stroke-width="0.575447"/>
		<rect id="Frame 2043683125" rx="19.750000" width="91.571602" height="91.571609" transform="translate(53.454102 -25.713013) rotate(10.000000)" stroke="#202027" stroke-opacity="1.000000" stroke-width="0.500000"/>
		<rect id="Frame 2043683126" rx="19.750000" width="91.571602" height="91.571609" transform="translate(150.998047 -8.513428) rotate(10.000000)" fill="#D9B6FF" fill-opacity="1.000000"/>
		<path id="11" d="M183.29 56.41L187.79 31.03L175.9 28.93L174.92 34.47L179.63 35.3L176.11 55.14L183.29 56.41ZM197.98 59L202.48 33.62L190.59 31.52L189.61 37.06L194.32 37.89L190.8 57.73L197.98 59Z" fill="#FFFFFF" fill-opacity="1.000000" fill-rule="evenodd"/>
		<path id="11" d="M187.79 31.03L183.29 56.41L176.11 55.14L179.63 35.3L174.92 34.47L175.9 28.93L187.79 31.03ZM202.48 33.62L197.98 59L190.8 57.73L194.32 37.89L189.61 37.06L190.59 31.52L202.48 33.62Z" stroke="#202027" stroke-opacity="1.000000" stroke-width="0.575447"/>
		<rect id="Frame 2043683126" rx="19.750000" width="91.571602" height="91.571609" transform="translate(150.998047 -8.513428) rotate(10.000000)" stroke="#202027" stroke-opacity="1.000000" stroke-width="0.500000"/>
		<rect id="Frame 2043683127" rx="19.750000" width="91.571602" height="91.571609" transform="translate(248.541992 8.686035) rotate(10.000000)" fill="#D9B6FF" fill-opacity="1.000000"/>
		<path id="48" d="M308.27 67.23Q307.6 65.57 306.04 64.26Q307.25 63.69 308.1 62.79Q308.28 62.6 308.45 62.4Q308.66 62.13 308.83 61.85Q309.45 60.86 309.67 59.62Q309.91 58.26 309.63 57.01Q309.46 56.23 309.08 55.5Q309.07 55.48 309.06 55.45Q308.09 53.57 305.97 52.28Q303.83 50.96 300.86 50.43Q297.88 49.91 295.42 50.42Q292.99 50.91 291.43 52.34Q291.4 52.36 291.38 52.38Q290.79 52.93 290.37 53.58Q289.67 54.67 289.43 56.05Q289.21 57.29 289.44 58.43Q289.51 58.76 289.62 59.08Q289.7 59.33 289.8 59.56Q290.29 60.7 291.24 61.65Q289.32 62.35 288.11 63.67Q287.85 63.96 287.62 64.28Q286.84 65.42 286.57 66.91Q286.3 68.43 286.62 69.8Q286.81 70.61 287.2 71.37Q288.26 73.42 290.58 74.84Q292.91 76.26 296.18 76.84Q299.45 77.41 302.12 76.88Q304.8 76.34 306.49 74.77Q307.13 74.18 307.59 73.47Q308.35 72.3 308.62 70.8Q308.88 69.33 308.54 68.01Q308.43 67.61 308.27 67.23ZM280.67 68.57L284.44 69.23L285.45 63.54L281.68 62.87L282.44 58.56L275.66 57.37L274.9 61.68L269.74 60.77L282.7 47.76L275.27 46.45L261.08 60.29L260.25 64.97L273.67 67.33L272.8 72.19L279.81 73.43L280.67 68.57ZM297.88 55.69Q298.78 55.27 299.96 55.48Q301.27 55.71 301.97 56.49Q302.01 56.53 302.05 56.58Q302.26 56.83 302.39 57.12Q302.69 57.81 302.53 58.7Q302.39 59.52 301.92 60.04Q301.68 60.3 301.36 60.49Q301.31 60.52 301.25 60.55Q300.32 61.04 299.02 60.81Q297.71 60.58 297.02 59.8Q296.98 59.76 296.95 59.71Q296.73 59.45 296.61 59.14Q296.33 58.48 296.48 57.63Q296.64 56.74 297.16 56.2Q297.38 55.97 297.66 55.8Q297.77 55.74 297.88 55.69ZM300 71.44Q298.82 72.11 297.07 71.8Q295.33 71.49 294.44 70.46Q294.1 70.05 293.93 69.57Q293.67 68.85 293.82 67.97Q293.98 67.08 294.49 66.48Q294.81 66.11 295.26 65.85Q295.26 65.85 295.27 65.85Q296.45 65.18 298.19 65.49Q299.93 65.79 300.81 66.83L300.81 66.83Q301.16 67.24 301.33 67.7Q301.6 68.43 301.44 69.32Q301.29 70.18 300.8 70.77Q300.48 71.16 300 71.44Z" fill="#FFFFFF" fill-opacity="1.000000" fill-rule="evenodd"/>
		<path id="48" d="M284.44 69.23L280.67 68.57L279.81 73.43L272.8 72.19L273.67 67.33L260.25 64.97L261.08 60.29L275.27 46.45L282.7 47.76L269.74 60.77L274.9 61.68L275.66 57.37L282.44 58.56L281.68 62.87L285.45 63.54L284.44 69.23ZM306.04 64.26Q307.6 65.57 308.27 67.23Q308.96 68.88 308.62 70.8Q308.19 73.2 306.49 74.77Q304.8 76.34 302.12 76.88Q299.45 77.41 296.18 76.84Q292.91 76.26 290.58 74.84Q288.26 73.42 287.2 71.37Q286.15 69.31 286.57 66.91Q286.91 64.99 288.11 63.67Q289.32 62.35 291.24 61.65Q290.1 60.51 289.62 59.08Q289.14 57.64 289.43 56.05Q289.82 53.84 291.38 52.38Q292.96 50.91 295.42 50.42Q297.88 49.91 300.86 50.43Q303.83 50.96 305.97 52.28Q308.12 53.59 309.08 55.5Q310.06 57.41 309.67 59.62Q309.39 61.21 308.45 62.4Q307.51 63.58 306.04 64.26ZM299.96 55.48Q298.63 55.24 297.66 55.8Q296.7 56.37 296.48 57.63Q296.26 58.86 296.95 59.71Q297.64 60.57 299.02 60.81Q300.4 61.05 301.36 60.49Q302.32 59.93 302.53 58.7Q302.76 57.43 302.05 56.58Q301.35 55.72 299.96 55.48ZM297.07 71.8Q298.82 72.11 300 71.44Q301.18 70.76 301.44 69.32Q301.7 67.87 300.81 66.83Q299.94 65.79 298.19 65.49Q296.45 65.18 295.26 65.85Q294.08 66.52 293.82 67.97Q293.57 69.42 294.44 70.46Q295.33 71.49 297.07 71.8Z" stroke="#202027" stroke-opacity="1.000000" stroke-width="0.575447"/>
		<rect id="Frame 2043683127" rx="19.750000" width="91.571602" height="91.571609" transform="translate(248.541992 8.686035) rotate(10.000000)" stroke="#202027" stroke-opacity="1.000000" stroke-width="0.500000"/>
		<rect id="Frame 2043683128" rx="19.750000" width="91.571602" height="91.571609" transform="translate(346.084961 25.885620) rotate(10.000000)" fill="#D9B6FF" fill-opacity="1.000000"/>
		<path id="48" d="M405.82 84.43Q405.14 82.77 403.59 81.46Q404.8 80.89 405.65 79.99Q405.83 79.8 405.99 79.6Q406.2 79.33 406.38 79.05Q406.99 78.06 407.21 76.82Q407.45 75.46 407.17 74.21Q407 73.43 406.63 72.7Q406.61 72.68 406.6 72.65Q405.63 70.77 403.52 69.48Q401.38 68.16 398.4 67.63Q395.43 67.11 392.96 67.62Q390.53 68.11 388.97 69.54Q388.95 69.56 388.93 69.58Q388.34 70.13 387.91 70.78Q387.21 71.87 386.97 73.25Q386.75 74.49 386.99 75.63Q387.06 75.96 387.16 76.28Q387.25 76.53 387.35 76.76Q387.84 77.9 388.78 78.85Q386.87 79.55 385.66 80.87Q385.39 81.16 385.17 81.48Q384.38 82.62 384.11 84.11Q383.85 85.63 384.16 87Q384.35 87.81 384.74 88.57Q385.8 90.62 388.12 92.04Q390.46 93.46 393.73 94.04Q396.99 94.61 399.66 94.08Q402.34 93.54 404.03 91.97Q404.68 91.38 405.14 90.67Q405.9 89.5 406.16 88Q406.42 86.53 406.08 85.21Q405.98 84.81 405.82 84.43ZM378.21 85.77L381.99 86.43L382.99 80.74L379.22 80.07L379.99 75.76L373.2 74.57L372.44 78.88L367.29 77.97L380.25 64.96L372.82 63.65L358.62 77.49L357.79 82.17L371.21 84.53L370.35 89.39L377.35 90.63L378.21 85.77ZM395.43 72.89Q396.32 72.47 397.51 72.68Q398.81 72.91 399.52 73.69Q399.56 73.73 399.6 73.78Q399.81 74.03 399.93 74.32Q400.24 75.01 400.08 75.9Q399.93 76.72 399.46 77.24Q399.22 77.5 398.9 77.69Q398.85 77.72 398.79 77.75Q397.87 78.24 396.56 78.01Q395.25 77.78 394.56 77Q394.53 76.96 394.49 76.91Q394.28 76.65 394.15 76.34Q393.87 75.68 394.02 74.83Q394.18 73.94 394.7 73.4Q394.92 73.17 395.2 73Q395.31 72.94 395.43 72.89ZM397.54 88.64Q396.36 89.3 394.62 89Q392.87 88.69 391.99 87.66Q391.64 87.25 391.47 86.77Q391.21 86.05 391.37 85.17Q391.53 84.28 392.04 83.68Q392.35 83.31 392.8 83.05Q392.81 83.05 392.81 83.05Q394 82.38 395.74 82.68Q397.48 82.99 398.35 84.03L398.36 84.03Q398.7 84.44 398.87 84.9Q399.14 85.63 398.98 86.52Q398.83 87.38 398.35 87.96Q398.02 88.36 397.54 88.64Z" fill="#FFFFFF" fill-opacity="1.000000" fill-rule="evenodd"/>
		<path id="48" d="M381.99 86.43L378.21 85.77L377.35 90.63L370.35 89.39L371.21 84.53L357.79 82.17L358.62 77.49L372.82 63.65L380.25 64.96L367.29 77.97L372.44 78.88L373.2 74.57L379.99 75.76L379.22 80.07L382.99 80.74L381.99 86.43ZM403.59 81.46Q405.14 82.77 405.82 84.43Q406.5 86.08 406.16 88Q405.74 90.4 404.03 91.97Q402.34 93.54 399.66 94.08Q396.99 94.61 393.73 94.04Q390.46 93.46 388.12 92.04Q385.8 90.62 384.74 88.57Q383.69 86.51 384.11 84.11Q384.45 82.19 385.66 80.87Q386.87 79.55 388.78 78.85Q387.64 77.71 387.16 76.28Q386.69 74.84 386.97 73.25Q387.36 71.04 388.93 69.58Q390.5 68.11 392.96 67.62Q395.43 67.11 398.4 67.63Q401.38 68.16 403.52 69.48Q405.66 70.79 406.63 72.7Q407.6 74.61 407.21 76.82Q406.93 78.41 405.99 79.6Q405.05 80.78 403.59 81.46ZM397.51 72.68Q396.17 72.44 395.2 73Q394.25 73.57 394.02 74.83Q393.8 76.06 394.49 76.91Q395.18 77.77 396.56 78.01Q397.95 78.25 398.9 77.69Q399.86 77.13 400.08 75.9Q400.3 74.63 399.6 73.78Q398.89 72.92 397.51 72.68ZM394.62 89Q396.36 89.3 397.54 88.64Q398.73 87.96 398.98 86.52Q399.24 85.06 398.36 84.03Q397.48 82.99 395.74 82.68Q393.99 82.38 392.8 83.05Q391.63 83.72 391.37 85.17Q391.11 86.62 391.99 87.66Q392.87 88.69 394.62 89Z" stroke="#202027" stroke-opacity="1.000000" stroke-width="0.575447"/>
		<rect id="Frame 2043683128" rx="19.750000" width="91.571602" height="91.571609" transform="translate(346.084961 25.885620) rotate(10.000000)" stroke="#202027" stroke-opacity="1.000000" stroke-width="0.500000"/>
		<rect id="Frame 2043683073" rx="19.750000" width="91.571602" height="91.571609" transform="translate(-61.276367 54.560669) rotate(10.000000)" fill="#D9B6FF" fill-opacity="1.000000"/>
		<path id="66" d="M-29.32 103.44Q-30.89 102.47 -32.86 102.12Q-36.06 101.56 -38.41 102.71Q-38.68 102.84 -38.93 102.99Q-38.25 100.48 -36.61 99.24Q-36.41 99.09 -36.2 98.96Q-35.89 98.77 -35.56 98.62Q-33.79 97.81 -31.46 98.22Q-28.63 98.72 -27.01 100.35L-23.48 95.66Q-24.71 94.51 -26.58 93.7Q-28.45 92.87 -30.63 92.49Q-34.66 91.78 -37.99 92.88Q-39.34 93.32 -40.5 94.04Q-42.23 95.11 -43.58 96.81Q-45.81 99.65 -46.58 104Q-47.61 109.78 -45.3 113.5Q-45.19 113.67 -45.08 113.84Q-44.55 114.62 -43.89 115.28Q-41.37 117.82 -37.05 118.58Q-34.25 119.08 -31.8 118.41Q-30.11 117.95 -28.79 116.98Q-28.19 116.54 -27.67 116Q-27.21 115.51 -26.83 114.96Q-25.87 113.54 -25.54 111.67Q-25.23 109.93 -25.62 108.36Q-25.75 107.81 -25.97 107.28Q-26.32 106.44 -26.84 105.71Q-27.58 104.68 -28.65 103.89Q-28.97 103.65 -29.32 103.44ZM-5.78 107.59Q-7.35 106.62 -9.32 106.27Q-12.52 105.71 -14.87 106.87Q-15.14 106.99 -15.39 107.15Q-14.71 104.63 -13.07 103.39Q-12.87 103.24 -12.66 103.11Q-12.35 102.92 -12.02 102.77Q-10.25 101.96 -7.92 102.37Q-5.09 102.87 -3.47 104.5L0.05 99.81Q-1.17 98.66 -3.04 97.85Q-4.91 97.02 -7.09 96.64Q-11.12 95.93 -14.46 97.03Q-15.8 97.47 -16.96 98.19Q-18.69 99.26 -20.04 100.97Q-22.28 103.8 -23.05 108.15Q-24.07 113.93 -21.76 117.65Q-21.66 117.82 -21.54 117.99Q-21.01 118.77 -20.36 119.43Q-17.83 121.97 -13.51 122.73Q-10.71 123.23 -8.26 122.56Q-6.57 122.1 -5.25 121.13Q-4.65 120.69 -4.13 120.15Q-3.67 119.66 -3.29 119.12Q-2.33 117.69 -2 115.82Q-1.69 114.08 -2.08 112.51Q-2.21 111.96 -2.43 111.43Q-2.79 110.59 -3.3 109.86Q-4.04 108.83 -5.11 108.04Q-5.44 107.8 -5.78 107.59ZM-34.4 113.2Q-35.36 113.61 -36.58 113.4Q-38.02 113.14 -38.82 112.29Q-38.92 112.18 -39.02 112.05Q-39.32 111.65 -39.47 111.2Q-39.72 110.46 -39.56 109.57Q-39.4 108.65 -38.88 108.03Q-38.59 107.68 -38.18 107.42Q-37.94 107.27 -37.69 107.16Q-36.71 106.75 -35.48 106.97Q-34.17 107.2 -33.39 107.97Q-33.24 108.12 -33.12 108.28Q-32.85 108.63 -32.69 109.02Q-32.39 109.8 -32.56 110.77Q-32.75 111.81 -33.35 112.47Q-33.61 112.75 -33.95 112.97Q-34.16 113.1 -34.4 113.2ZM-10.86 117.35Q-11.82 117.76 -13.04 117.55Q-14.48 117.29 -15.28 116.44Q-15.38 116.33 -15.48 116.2Q-15.78 115.8 -15.93 115.35Q-16.18 114.61 -16.03 113.73Q-15.86 112.8 -15.34 112.18Q-15.05 111.83 -14.64 111.57Q-14.4 111.42 -14.15 111.31Q-13.18 110.9 -11.94 111.12Q-10.63 111.35 -9.85 112.12Q-9.71 112.27 -9.58 112.43Q-9.31 112.78 -9.16 113.17Q-8.85 113.96 -9.02 114.92Q-9.21 115.96 -9.81 116.62Q-10.07 116.9 -10.41 117.12Q-10.63 117.25 -10.86 117.35Z" fill="#FFFFFF" fill-opacity="1.000000" fill-rule="evenodd"/>
		<path id="66" d="M-32.86 102.12Q-30.47 102.54 -28.65 103.89Q-26.82 105.24 -25.97 107.28Q-25.12 109.32 -25.54 111.67Q-25.99 114.25 -27.67 116Q-29.34 117.74 -31.8 118.41Q-34.25 119.08 -37.05 118.58Q-42.49 117.62 -45.08 113.84Q-47.66 110.06 -46.58 104Q-45.81 99.65 -43.58 96.81Q-41.33 93.97 -37.99 92.88Q-34.66 91.78 -30.63 92.49Q-28.45 92.87 -26.58 93.7Q-24.71 94.51 -23.48 95.66L-27.01 100.35Q-28.63 98.72 -31.46 98.22Q-34.22 97.74 -36.2 98.96Q-38.16 100.18 -38.93 102.99Q-36.42 101.49 -32.86 102.12ZM-36.58 113.4Q-35.06 113.67 -33.95 112.97Q-32.83 112.26 -32.56 110.77Q-32.31 109.32 -33.12 108.28Q-33.92 107.25 -35.48 106.97Q-37.04 106.7 -38.18 107.42Q-39.31 108.13 -39.56 109.57Q-39.82 110.99 -39.02 112.05Q-38.21 113.11 -36.58 113.4ZM-9.32 106.27Q-6.93 106.69 -5.11 108.04Q-3.29 109.39 -2.43 111.43Q-1.58 113.47 -2 115.82Q-2.45 118.4 -4.13 120.15Q-5.8 121.89 -8.26 122.56Q-10.71 123.23 -13.51 122.73Q-18.95 121.77 -21.54 117.99Q-24.12 114.21 -23.05 108.15Q-22.28 103.8 -20.04 100.97Q-17.79 98.12 -14.46 97.03Q-11.12 95.93 -7.09 96.64Q-4.91 97.02 -3.04 97.85Q-1.17 98.66 0.05 99.81L-3.47 104.5Q-5.09 102.87 -7.92 102.37Q-10.68 101.89 -12.66 103.11Q-14.63 104.33 -15.39 107.15Q-12.88 105.64 -9.32 106.27ZM-13.04 117.55Q-11.52 117.82 -10.41 117.12Q-9.29 116.41 -9.02 114.92Q-8.77 113.47 -9.58 112.43Q-10.38 111.4 -11.94 111.12Q-13.5 110.85 -14.64 111.57Q-15.77 112.28 -16.03 113.73Q-16.28 115.14 -15.48 116.2Q-14.67 117.26 -13.04 117.55Z" stroke="#202027" stroke-opacity="1.000000" stroke-width="0.575447"/>
		<rect id="Frame 2043683073" rx="19.750000" width="91.571602" height="91.571609" transform="translate(-61.276367 54.560669) rotate(10.000000)" stroke="#202027" stroke-opacity="1.000000" stroke-width="0.500000"/>
		<rect id="Frame 2043683064" rx="19.750000" width="91.571602" height="91.571609" transform="translate(36.267578 71.760254) rotate(10.000000)" fill="#D9B6FF" fill-opacity="1.000000"/>
		<path id="2" d="M81.13 138.9L82.14 133.21L72.35 131.48L77.92 127.9Q80.87 126.03 82.08 124.35Q82.61 123.62 82.97 122.83Q83.45 121.78 83.66 120.61Q83.94 119.01 83.58 117.56Q83.42 116.92 83.13 116.31Q83 116.04 82.86 115.78Q81.91 114.15 80.13 113Q78.07 111.65 75.16 111.14Q71.51 110.5 68.56 111.44Q66.55 112.09 65.02 113.32Q64.31 113.89 63.71 114.58L68.52 118.5Q69.23 117.72 70.11 117.29Q70.43 117.13 70.78 117.02Q71.13 116.9 71.48 116.83Q72.45 116.65 73.49 116.84Q75.08 117.12 75.79 117.95Q76.01 118.21 76.14 118.51Q76.43 119.17 76.28 120.02Q76.28 120.06 76.27 120.09Q76.09 120.99 75.48 121.81Q74.85 122.65 73.24 123.71L62.16 130.92L61.37 135.42L81.13 138.9Z" fill="#FFFFFF" fill-opacity="1.000000" fill-rule="evenodd"/>
		<path id="2" d="M82.14 133.21L81.13 138.9L61.37 135.42L62.16 130.92L73.24 123.71Q74.85 122.65 75.48 121.81Q76.12 120.96 76.28 120.02Q76.5 118.78 75.79 117.95Q75.08 117.12 73.49 116.84Q72.07 116.59 70.78 117.02Q69.49 117.44 68.52 118.5L63.71 114.58Q65.63 112.38 68.56 111.44Q71.51 110.5 75.16 111.14Q78.07 111.65 80.13 113Q82.2 114.33 83.13 116.31Q84.07 118.29 83.66 120.61Q83.29 122.67 82.08 124.35Q80.87 126.03 77.92 127.9L72.35 131.48L82.14 133.21Z" stroke="#202027" stroke-opacity="1.000000" stroke-width="0.575447"/>
		<rect id="Frame 2043683064" rx="19.750000" width="91.571602" height="91.571609" transform="translate(36.267578 71.760254) rotate(10.000000)" stroke="#202027" stroke-opacity="1.000000" stroke-width="0.500000"/>
		<rect id="Frame 2043683075" rx="19.750000" width="91.571602" height="91.571609" transform="translate(133.810547 88.959717) rotate(10.000000)" fill="#D9B6FF" fill-opacity="1.000000"/>
		<path id="11" d="M166.11 153.88L170.6 128.5L158.71 126.4L157.73 131.95L162.44 132.78L158.93 152.62L166.11 153.88ZM180.8 156.47L185.29 131.09L173.4 128.99L172.42 134.54L177.13 135.37L173.62 155.21L180.8 156.47Z" fill="#FFFFFF" fill-opacity="1.000000" fill-rule="evenodd"/>
		<path id="11" d="M170.6 128.5L166.11 153.88L158.93 152.62L162.44 132.78L157.73 131.95L158.71 126.4L170.6 128.5ZM185.29 131.09L180.8 156.47L173.62 155.21L177.13 135.37L172.42 134.54L173.4 128.99L185.29 131.09Z" stroke="#202027" stroke-opacity="1.000000" stroke-width="0.575447"/>
		<rect id="Frame 2043683075" rx="19.750000" width="91.571602" height="91.571609" transform="translate(133.810547 88.959717) rotate(10.000000)" stroke="#202027" stroke-opacity="1.000000" stroke-width="0.500000"/>
		<rect id="Frame 2043683066" rx="19.750000" width="91.571602" height="91.571609" transform="translate(231.354492 106.159302) rotate(10.000000)" fill="#D9B6FF" fill-opacity="1.000000"/>
		<path id="8" d="M278.21 162.43Q277.54 160.78 275.98 159.46Q277.19 158.9 278.04 157.99Q278.22 157.81 278.38 157.6Q278.59 157.34 278.77 157.05Q279.39 156.06 279.6 154.82Q279.85 153.46 279.57 152.21Q279.39 151.43 279.02 150.7Q279.01 150.68 279 150.66Q278.03 148.77 275.91 147.48Q273.77 146.16 270.79 145.64Q267.82 145.11 265.36 145.62Q262.93 146.11 261.36 147.54Q261.34 147.56 261.32 147.58Q260.73 148.13 260.31 148.79Q259.61 149.87 259.36 151.25Q259.14 152.49 259.38 153.63Q259.45 153.96 259.56 154.28Q259.64 154.53 259.74 154.77Q260.23 155.91 261.18 156.85Q259.26 157.55 258.05 158.87Q257.79 159.17 257.56 159.49Q256.77 160.62 256.51 162.12Q256.24 163.63 256.56 165.01Q256.74 165.81 257.13 166.57Q258.19 168.62 260.52 170.05Q262.85 171.46 266.12 172.04Q269.39 172.62 272.06 172.08Q274.74 171.54 276.43 169.98Q277.07 169.38 277.53 168.68Q278.29 167.5 278.56 166.01Q278.82 164.53 278.47 163.21Q278.37 162.81 278.21 162.43ZM267.82 150.89Q268.72 150.48 269.9 150.68Q271.21 150.91 271.91 151.69Q271.95 151.73 271.99 151.78Q272.2 152.04 272.33 152.33Q272.63 153.01 272.47 153.9Q272.33 154.72 271.85 155.25Q271.62 155.51 271.3 155.7Q271.24 155.73 271.19 155.76Q270.26 156.24 268.96 156.01Q267.64 155.78 266.96 155Q266.92 154.96 266.89 154.92Q266.67 154.65 266.54 154.35Q266.26 153.68 266.42 152.84Q266.57 151.95 267.09 151.4Q267.31 151.17 267.6 151.01Q267.71 150.94 267.82 150.89ZM269.93 166.64Q268.76 167.31 267.01 167Q265.27 166.69 264.38 165.66Q264.03 165.25 263.87 164.77Q263.61 164.05 263.76 163.18Q263.92 162.28 264.43 161.68Q264.75 161.31 265.2 161.06Q265.2 161.06 265.2 161.05Q266.39 160.38 268.13 160.69Q269.87 161 270.75 162.03L270.75 162.04Q271.09 162.44 271.27 162.91Q271.53 163.64 271.38 164.52Q271.22 165.38 270.74 165.97Q270.41 166.37 269.93 166.64Z" fill="#FFFFFF" fill-opacity="1.000000" fill-rule="evenodd"/>
		<path id="8" d="M275.98 159.46Q277.54 160.78 278.21 162.43Q278.9 164.08 278.56 166.01Q278.13 168.4 276.43 169.98Q274.74 171.54 272.06 172.08Q269.39 172.62 266.12 172.04Q262.85 171.46 260.52 170.05Q258.19 168.62 257.13 166.57Q256.08 164.52 256.51 162.12Q256.85 160.2 258.05 158.87Q259.26 157.55 261.18 156.85Q260.03 155.71 259.56 154.28Q259.08 152.85 259.36 151.25Q259.76 149.04 261.32 147.58Q262.89 146.12 265.36 145.62Q267.82 145.11 270.79 145.64Q273.77 146.16 275.91 147.48Q278.05 148.79 279.02 150.7Q280 152.61 279.6 154.82Q279.32 156.42 278.38 157.6Q277.44 158.78 275.98 159.46ZM269.9 150.68Q268.56 150.45 267.6 151.01Q266.64 151.57 266.42 152.84Q266.2 154.07 266.89 154.92Q267.57 155.77 268.96 156.01Q270.34 156.26 271.3 155.7Q272.25 155.13 272.47 153.9Q272.7 152.64 271.99 151.78Q271.28 150.93 269.9 150.68ZM267.01 167Q268.76 167.31 269.93 166.64Q271.12 165.96 271.38 164.52Q271.63 163.07 270.75 162.04Q269.87 161 268.13 160.69Q266.38 160.38 265.2 161.06Q264.02 161.73 263.76 163.18Q263.51 164.62 264.38 165.66Q265.27 166.69 267.01 167Z" stroke="#202027" stroke-opacity="1.000000" stroke-width="0.575447"/>
		<rect id="Frame 2043683066" rx="19.750000" width="91.571602" height="91.571609" transform="translate(231.354492 106.159302) rotate(10.000000)" stroke="#202027" stroke-opacity="1.000000" stroke-width="0.500000"/>
		<rect id="Frame 2043683067" rx="19.750000" width="91.571602" height="91.571609" transform="translate(328.897461 123.358887) rotate(10.000000)" fill="#D9B6FF" fill-opacity="1.000000"/>
		<path id="36" d="M383.56 176.24Q381.99 175.27 380.02 174.92Q376.82 174.36 374.46 175.52Q374.2 175.65 373.95 175.8Q374.63 173.29 376.27 172.04Q376.47 171.89 376.68 171.76Q376.99 171.57 377.32 171.42Q379.09 170.61 381.42 171.02Q384.25 171.52 385.87 173.15L389.39 168.46Q388.17 167.31 386.3 166.5Q384.43 165.67 382.25 165.29Q378.22 164.58 374.88 165.68Q373.54 166.12 372.38 166.84Q370.65 167.92 369.3 169.62Q367.06 172.45 366.29 176.8Q365.27 182.58 367.58 186.3Q367.68 186.47 367.8 186.64Q368.33 187.42 368.98 188.08Q371.51 190.62 375.83 191.38Q378.63 191.88 381.08 191.21Q382.77 190.75 384.09 189.78Q384.69 189.34 385.21 188.8Q385.67 188.32 386.05 187.77Q387.01 186.34 387.34 184.48Q387.65 182.73 387.26 181.16Q387.13 180.61 386.91 180.08Q386.55 179.24 386.04 178.51Q385.3 177.48 384.23 176.7Q383.9 176.45 383.56 176.24ZM362.35 175.39Q361.01 173.2 358.02 172.02L364.28 167.29L365.08 162.79L346.72 159.56L345.74 165.1L355.76 166.86L350.35 170.96L349.55 175.49L352.56 176.02Q355.32 176.51 355.9 177.9Q356.13 178.46 356 179.18Q355.9 179.79 355.56 180.22Q355.2 180.68 354.57 180.94Q353.36 181.44 351.51 181.11Q349.69 180.79 347.92 179.92Q346.15 179.05 344.85 177.77L341.28 182.72Q342.99 184.25 345.5 185.37Q347.16 186.1 348.9 186.56Q349.79 186.79 350.7 186.95Q354.36 187.6 357.05 186.86Q359.75 186.12 361.3 184.41Q362.13 183.5 362.63 182.44Q363.07 181.51 363.25 180.46Q363.57 178.7 363.13 177.16Q362.88 176.28 362.39 175.47Q362.37 175.43 362.35 175.39ZM378.48 186.01Q377.52 186.41 376.3 186.2Q374.86 185.94 374.06 185.09Q373.96 184.98 373.86 184.86Q373.56 184.46 373.41 184Q373.16 183.26 373.31 182.38Q373.48 181.45 374 180.83Q374.29 180.48 374.7 180.22Q374.94 180.07 375.19 179.96Q376.16 179.56 377.4 179.77Q378.71 180 379.49 180.77Q379.63 180.92 379.76 181.08Q380.03 181.43 380.18 181.82Q380.49 182.61 380.32 183.57Q380.13 184.61 379.53 185.27Q379.27 185.55 378.93 185.77Q378.71 185.91 378.48 186.01Z" fill="#FFFFFF" fill-opacity="1.000000" fill-rule="evenodd"/>
		<path id="36" d="M358.02 172.02Q361.06 173.22 362.39 175.47Q363.74 177.7 363.25 180.46Q362.86 182.71 361.3 184.41Q359.75 186.12 357.05 186.86Q354.36 187.6 350.7 186.95Q348.02 186.48 345.5 185.37Q342.99 184.25 341.28 182.72L344.85 177.77Q346.15 179.05 347.92 179.92Q349.69 180.79 351.51 181.11Q353.36 181.44 354.57 180.94Q355.78 180.44 356 179.18Q356.44 176.71 352.56 176.02L349.55 175.49L350.35 170.96L355.76 166.86L345.74 165.1L346.72 159.56L365.08 162.79L364.28 167.29L358.02 172.02ZM380.02 174.92Q382.41 175.34 384.23 176.7Q386.05 178.04 386.91 180.08Q387.76 182.12 387.34 184.48Q386.89 187.05 385.21 188.8Q383.54 190.54 381.08 191.21Q378.63 191.88 375.83 191.38Q370.39 190.42 367.8 186.64Q365.22 182.86 366.29 176.8Q367.06 172.45 369.3 169.62Q371.55 166.77 374.88 165.68Q378.22 164.58 382.25 165.29Q384.43 165.67 386.3 166.5Q388.17 167.31 389.39 168.46L385.87 173.15Q384.25 171.52 381.42 171.02Q378.66 170.54 376.68 171.76Q374.71 172.98 373.95 175.8Q376.46 174.29 380.02 174.92ZM376.3 186.2Q377.82 186.47 378.93 185.77Q380.05 185.06 380.32 183.57Q380.57 182.12 379.76 181.08Q378.96 180.05 377.4 179.77Q375.84 179.5 374.7 180.22Q373.57 180.93 373.31 182.38Q373.06 183.79 373.86 184.86Q374.67 185.91 376.3 186.2Z" stroke="#202027" stroke-opacity="1.000000" stroke-width="0.575447"/>
		<rect id="Frame 2043683067" rx="19.750000" width="91.571602" height="91.571609" transform="translate(328.897461 123.358887) rotate(10.000000)" stroke="#202027" stroke-opacity="1.000000" stroke-width="0.500000"/>
		<rect id="Frame 2043683074" rx="19.750000" width="91.571602" height="91.571609" transform="translate(-78.462891 152.033936) rotate(10.000000)" fill="#D9B6FF" fill-opacity="1.000000"/>
		<path id="9" d="M-33.34 194.66Q-35.86 192.07 -40.25 191.3Q-42.92 190.82 -45.31 191.44Q-45.39 191.46 -45.46 191.48Q-47.11 191.93 -48.41 192.87Q-49.05 193.33 -49.6 193.9Q-50.05 194.38 -50.42 194.91Q-51.39 196.34 -51.72 198.21Q-52.04 199.99 -51.63 201.59Q-51.5 202.11 -51.29 202.62Q-50.94 203.44 -50.44 204.15Q-49.7 205.19 -48.62 206Q-48.33 206.22 -48.01 206.41Q-46.42 207.42 -44.41 207.77Q-41.24 208.33 -38.89 207.19Q-38.63 207.07 -38.38 206.93Q-39.11 209.49 -40.81 210.72Q-40.97 210.84 -41.14 210.94Q-41.45 211.13 -41.77 211.28Q-43.52 212.08 -45.81 211.67Q-48.64 211.17 -50.26 209.54L-53.78 214.23Q-52.56 215.35 -50.69 216.18Q-48.81 217.01 -46.67 217.39Q-42.65 218.1 -39.29 217.01Q-37.86 216.55 -36.64 215.76Q-34.99 214.71 -33.7 213.08Q-31.46 210.24 -30.69 205.89Q-29.66 200.13 -31.96 196.42Q-32.08 196.23 -32.2 196.05Q-32.71 195.3 -33.34 194.66ZM-39.55 202.72Q-40.53 203.14 -41.79 202.92Q-43.1 202.69 -43.88 201.93Q-44.03 201.78 -44.16 201.61Q-44.43 201.25 -44.58 200.86Q-44.88 200.07 -44.71 199.12Q-44.52 198.06 -43.91 197.4Q-43.66 197.14 -43.33 196.93Q-43.1 196.78 -42.84 196.68Q-41.89 196.28 -40.69 196.5Q-39.27 196.75 -38.48 197.59Q-38.36 197.71 -38.26 197.85Q-37.95 198.26 -37.79 198.72Q-37.55 199.45 -37.71 200.31Q-37.87 201.23 -38.39 201.86Q-38.69 202.22 -39.1 202.48Q-39.32 202.62 -39.55 202.72Z" fill="#FFFFFF" fill-opacity="1.000000" fill-rule="evenodd"/>
		<path id="9" d="M-40.25 191.3Q-34.78 192.26 -32.2 196.05Q-29.61 199.84 -30.69 205.89Q-31.46 210.24 -33.7 213.08Q-35.94 215.92 -39.29 217.01Q-42.65 218.1 -46.67 217.39Q-48.81 217.01 -50.69 216.18Q-52.56 215.35 -53.78 214.23L-50.26 209.54Q-48.64 211.17 -45.81 211.67Q-43.09 212.15 -41.14 210.94Q-39.18 209.73 -38.38 206.93Q-40.89 208.39 -44.41 207.77Q-46.81 207.35 -48.62 206Q-50.44 204.65 -51.29 202.62Q-52.14 200.57 -51.72 198.21Q-51.27 195.64 -49.6 193.9Q-47.92 192.15 -45.46 191.48Q-43.01 190.81 -40.25 191.3ZM-41.79 202.92Q-40.23 203.2 -39.1 202.48Q-37.96 201.76 -37.71 200.31Q-37.46 198.9 -38.26 197.85Q-39.06 196.78 -40.69 196.5Q-42.21 196.23 -43.33 196.93Q-44.44 197.63 -44.71 199.12Q-44.96 200.56 -44.16 201.61Q-43.35 202.65 -41.79 202.92Z" stroke="#202027" stroke-opacity="1.000000" stroke-width="0.575447"/>
		<rect id="Frame 2043683074" rx="19.750000" width="91.571602" height="91.571609" transform="translate(-78.462891 152.033936) rotate(10.000000)" stroke="#202027" stroke-opacity="1.000000" stroke-width="0.500000"/>
		<rect id="Frame 2043683068" rx="19.750000" width="91.571602" height="91.571609" transform="translate(19.080078 169.233398) rotate(10.000000)" fill="#D9B6FF" fill-opacity="1.000000"/>
		<path id="4" d="M63.52 231.29L67.29 231.95L68.3 226.26L64.53 225.59L65.29 221.28L58.51 220.09L57.75 224.4L52.59 223.49L65.55 210.48L58.12 209.17L43.93 223.01L43.1 227.69L56.52 230.05L55.66 234.91L62.66 236.15L63.52 231.29Z" fill="#FFFFFF" fill-opacity="1.000000" fill-rule="evenodd"/>
		<path id="4" d="M67.29 231.95L63.52 231.29L62.66 236.15L55.66 234.91L56.52 230.05L43.1 227.69L43.93 223.01L58.12 209.17L65.55 210.48L52.59 223.49L57.75 224.4L58.51 220.09L65.29 221.28L64.53 225.59L68.3 226.26L67.29 231.95Z" stroke="#202027" stroke-opacity="1.000000" stroke-width="0.575447"/>
		<rect id="Frame 2043683068" rx="19.750000" width="91.571602" height="91.571609" transform="translate(19.080078 169.233398) rotate(10.000000)" stroke="#202027" stroke-opacity="1.000000" stroke-width="0.500000"/>
		<rect id="Frame 2043683069" rx="19.750000" width="91.571602" height="91.571609" transform="translate(116.624023 186.432983) rotate(10.000000)" fill="#D9B6FF" fill-opacity="1.000000"/>
		<path id="92" d="M151.03 227.17Q148.5 224.58 144.12 223.8Q141.45 223.33 139.06 223.95Q138.98 223.97 138.91 223.99Q137.25 224.44 135.96 225.38Q135.32 225.84 134.77 226.41Q134.32 226.88 133.95 227.42Q132.98 228.85 132.64 230.72Q132.33 232.5 132.74 234.09Q132.87 234.62 133.08 235.12Q133.42 235.95 133.93 236.66Q134.67 237.7 135.75 238.51Q136.04 238.73 136.35 238.92Q137.95 239.93 139.96 240.28Q143.13 240.84 145.48 239.7Q145.74 239.58 145.99 239.44Q145.25 242 143.56 243.23Q143.4 243.35 143.23 243.45Q142.92 243.64 142.6 243.79Q140.85 244.58 138.56 244.18Q135.73 243.68 134.11 242.05L130.59 246.74Q131.81 247.86 133.68 248.69Q135.56 249.52 137.69 249.9Q141.72 250.61 145.08 249.52Q146.5 249.06 147.73 248.27Q149.38 247.22 150.67 245.59Q152.91 242.75 153.68 238.4Q154.7 232.64 152.41 228.93Q152.29 228.74 152.17 228.56Q151.66 227.81 151.03 227.17ZM173.11 255.62L174.12 249.93L164.33 248.2L169.9 244.62Q172.85 242.75 174.06 241.07Q174.59 240.35 174.95 239.55Q175.43 238.5 175.64 237.33Q175.92 235.73 175.56 234.28Q175.4 233.64 175.11 233.03Q174.98 232.76 174.84 232.5Q173.89 230.87 172.11 229.72Q170.05 228.38 167.14 227.86Q163.49 227.22 160.54 228.16Q158.53 228.81 157 230.04Q156.29 230.61 155.69 231.3L160.5 235.22Q161.21 234.45 162.09 234.01Q162.41 233.85 162.76 233.74Q163.11 233.62 163.46 233.56Q164.43 233.38 165.47 233.56Q167.06 233.84 167.77 234.68Q167.99 234.93 168.12 235.23Q168.41 235.89 168.26 236.74Q168.26 236.78 168.25 236.82Q168.07 237.72 167.46 238.53Q166.83 239.37 165.22 240.44L154.14 247.64L153.35 252.14L173.11 255.62ZM144.82 235.23Q143.84 235.65 142.58 235.43Q141.27 235.2 140.49 234.44Q140.34 234.29 140.21 234.12Q139.94 233.76 139.79 233.36Q139.49 232.58 139.66 231.63Q139.85 230.57 140.46 229.91Q140.71 229.64 141.03 229.44Q141.27 229.29 141.53 229.19Q142.48 228.79 143.68 229Q145.1 229.26 145.89 230.1Q146.01 230.22 146.11 230.35Q146.42 230.77 146.57 231.23Q146.82 231.96 146.66 232.82Q146.5 233.74 145.98 234.37Q145.68 234.73 145.27 234.99Q145.05 235.13 144.82 235.23Z" fill="#FFFFFF" fill-opacity="1.000000" fill-rule="evenodd"/>
		<path id="92" d="M144.12 223.8Q149.59 224.77 152.17 228.56Q154.76 232.35 153.68 238.4Q152.91 242.75 150.67 245.59Q148.43 248.43 145.08 249.52Q141.72 250.61 137.69 249.9Q135.56 249.52 133.68 248.69Q131.81 247.86 130.59 246.74L134.11 242.05Q135.73 243.68 138.56 244.18Q141.28 244.66 143.23 243.45Q145.19 242.24 145.99 239.44Q143.48 240.9 139.96 240.28Q137.56 239.86 135.75 238.51Q133.93 237.16 133.08 235.12Q132.23 233.08 132.64 230.72Q133.1 228.15 134.77 226.41Q136.45 224.66 138.91 223.99Q141.36 223.32 144.12 223.8ZM142.58 235.43Q144.14 235.7 145.27 234.99Q146.41 234.27 146.66 232.82Q146.91 231.41 146.11 230.35Q145.31 229.29 143.68 229Q142.16 228.74 141.03 229.44Q139.92 230.14 139.66 231.63Q139.41 233.07 140.21 234.12Q141.02 235.15 142.58 235.43ZM174.12 249.93L173.11 255.62L153.35 252.14L154.14 247.64L165.22 240.44Q166.83 239.37 167.46 238.53Q168.1 237.68 168.26 236.74Q168.48 235.51 167.77 234.68Q167.06 233.84 165.47 233.56Q164.05 233.31 162.76 233.74Q161.47 234.16 160.5 235.22L155.69 231.3Q157.61 229.11 160.54 228.16Q163.49 227.22 167.14 227.86Q170.05 228.38 172.11 229.72Q174.18 231.05 175.11 233.03Q176.05 235.01 175.64 237.33Q175.27 239.4 174.06 241.07Q172.85 242.75 169.9 244.62L164.33 248.2L174.12 249.93Z" stroke="#202027" stroke-opacity="1.000000" stroke-width="0.575447"/>
		<rect id="Frame 2043683069" rx="19.750000" width="91.571602" height="91.571609" transform="translate(116.624023 186.432983) rotate(10.000000)" stroke="#202027" stroke-opacity="1.000000" stroke-width="0.500000"/>
		<rect id="Frame 2043683070" rx="19.750000" width="91.571602" height="91.571609" transform="translate(214.166992 203.632568) rotate(10.000000)" fill="#D9B6FF" fill-opacity="1.000000"/>
		<path id="10" d="M251.71 268.97Q253.69 270.35 256.31 270.81Q258.76 271.25 260.98 270.71Q261.68 270.54 262.35 270.27Q262.87 270.07 263.35 269.81Q265.53 268.66 267.13 266.42Q269.09 263.68 269.82 259.58Q270.54 255.49 269.64 252.25Q268.9 249.59 267.25 247.77Q266.89 247.36 266.48 247Q265.92 246.5 265.3 246.09Q263.41 244.84 260.99 244.41Q258.39 243.95 256.08 244.57Q255.48 244.73 254.9 244.96Q254.43 245.14 253.99 245.37Q251.77 246.52 250.13 248.81Q248.17 251.55 247.44 255.64Q246.72 259.74 247.62 262.98Q248.37 265.68 250.06 267.53Q250.4 267.9 250.78 268.23Q251.23 268.63 251.71 268.97ZM241.39 267.66L245.88 242.28L233.99 240.18L233.01 245.72L237.72 246.55L234.21 266.4L241.39 267.66ZM258.64 264.92Q258.03 265.06 257.35 264.94Q256.63 264.82 256.08 264.45Q255.21 263.86 254.74 262.67Q253.98 260.72 254.66 256.91Q255.33 253.1 256.71 251.54Q257.56 250.58 258.58 250.32Q259.23 250.16 259.95 250.29Q260.62 250.41 261.15 250.76Q262.04 251.34 262.51 252.56Q263.28 254.5 262.6 258.31Q261.93 262.12 260.54 263.69Q259.68 264.68 258.64 264.92Z" fill="#FFFFFF" fill-opacity="1.000000" fill-rule="evenodd"/>
		<path id="10" d="M245.88 242.28L241.39 267.66L234.21 266.4L237.72 246.55L233.01 245.72L233.99 240.18L245.88 242.28ZM256.31 270.81Q253.05 270.24 250.78 268.23Q248.52 266.23 247.62 262.98Q246.72 259.74 247.44 255.64Q248.17 251.55 250.13 248.81Q252.1 246.07 254.9 244.96Q257.72 243.84 260.99 244.41Q264.21 244.98 266.48 247Q268.74 249 269.64 252.25Q270.54 255.49 269.82 259.58Q269.09 263.68 267.13 266.42Q265.17 269.16 262.35 270.27Q259.54 271.38 256.31 270.81ZM257.35 264.94Q259.17 265.26 260.54 263.69Q261.93 262.12 262.6 258.31Q263.28 254.5 262.51 252.56Q261.76 250.61 259.95 250.29Q258.1 249.96 256.71 251.54Q255.33 253.1 254.66 256.91Q253.98 260.72 254.74 262.67Q255.5 264.62 257.35 264.94Z" stroke="#202027" stroke-opacity="1.000000" stroke-width="0.575447"/>
		<rect id="Frame 2043683070" rx="19.750000" width="91.571602" height="91.571609" transform="translate(214.166992 203.632568) rotate(10.000000)" stroke="#202027" stroke-opacity="1.000000" stroke-width="0.500000"/>
		<rect id="Frame 2043683071" rx="19.750000" width="91.571602" height="91.571609" transform="translate(311.710938 220.832153) rotate(10.000000)" fill="#D9B6FF" fill-opacity="1.000000"/>
		<path id="7" d="M360.69 267.16L361.49 262.66L340.45 258.95L338.75 268.56L344.88 269.64L345.57 265.73L352.25 266.9L340.2 285.08L348.03 286.47L360.69 267.16Z" fill="#FFFFFF" fill-opacity="1.000000" fill-rule="evenodd"/>
		<path id="7" d="M361.49 262.66L360.69 267.16L348.03 286.47L340.2 285.08L352.25 266.9L345.57 265.73L344.88 269.64L338.75 268.56L340.45 258.95L361.49 262.66Z" stroke="#202027" stroke-opacity="1.000000" stroke-width="0.575447"/>
		<rect id="Frame 2043683071" rx="19.750000" width="91.571602" height="91.571609" transform="translate(311.710938 220.832153) rotate(10.000000)" stroke="#202027" stroke-opacity="1.000000" stroke-width="0.500000"/>
		<rect id="Frame 2043683129" rx="19.750000" width="91.571602" height="91.571609" transform="translate(-95.650391 249.507202) rotate(10.000000)" fill="#D9B6FF" fill-opacity="1.000000"/>
		<path id="9" d="M-50.52 292.13Q-53.05 289.54 -57.44 288.77Q-60.11 288.3 -62.5 288.91Q-62.57 288.93 -62.65 288.95Q-64.3 289.41 -65.6 290.34Q-66.24 290.8 -66.79 291.37Q-67.24 291.85 -67.61 292.38Q-68.58 293.82 -68.91 295.68Q-69.23 297.46 -68.82 299.06Q-68.69 299.58 -68.48 300.09Q-68.13 300.91 -67.63 301.62Q-66.89 302.67 -65.81 303.47Q-65.51 303.69 -65.2 303.89Q-63.6 304.89 -61.59 305.25Q-58.42 305.81 -56.07 304.67Q-55.82 304.54 -55.57 304.4Q-56.3 306.97 -58 308.2Q-58.16 308.31 -58.33 308.42Q-58.63 308.6 -58.96 308.75Q-60.7 309.55 -63 309.14Q-65.83 308.64 -67.45 307.02L-70.96 311.7Q-69.75 312.82 -67.88 313.65Q-66 314.49 -63.86 314.86Q-59.83 315.57 -56.48 314.48Q-55.05 314.02 -53.83 313.24Q-52.17 312.19 -50.89 310.56Q-48.64 307.71 -47.87 303.37Q-46.85 297.6 -49.15 293.89Q-49.27 293.7 -49.39 293.52Q-49.9 292.77 -50.52 292.13ZM-56.74 300.19Q-57.72 300.62 -58.98 300.39Q-60.28 300.16 -61.07 299.4Q-61.22 299.25 -61.35 299.08Q-61.62 298.73 -61.77 298.33Q-62.06 297.55 -61.9 296.59Q-61.71 295.54 -61.09 294.88Q-60.84 294.61 -60.52 294.41Q-60.28 294.26 -60.03 294.15Q-59.08 293.76 -57.88 293.97Q-56.45 294.22 -55.66 295.07Q-55.55 295.19 -55.45 295.32Q-55.14 295.73 -54.98 296.19Q-54.74 296.92 -54.89 297.78Q-55.06 298.7 -55.57 299.33Q-55.87 299.69 -56.29 299.95Q-56.51 300.09 -56.74 300.19Z" fill="#FFFFFF" fill-opacity="1.000000" fill-rule="evenodd"/>
		<path id="9" d="M-57.44 288.77Q-51.97 289.73 -49.39 293.52Q-46.8 297.31 -47.87 303.37Q-48.64 307.71 -50.89 310.56Q-53.13 313.39 -56.48 314.48Q-59.83 315.57 -63.86 314.86Q-66 314.49 -67.88 313.65Q-69.75 312.82 -70.96 311.7L-67.45 307.02Q-65.83 308.64 -63 309.14Q-60.28 309.62 -58.33 308.42Q-56.37 307.21 -55.57 304.4Q-58.08 305.87 -61.59 305.25Q-63.99 304.82 -65.81 303.47Q-67.62 302.12 -68.48 300.09Q-69.33 298.05 -68.91 295.68Q-68.46 293.12 -66.79 291.37Q-65.11 289.63 -62.65 288.95Q-60.2 288.28 -57.44 288.77ZM-58.98 300.39Q-57.42 300.67 -56.29 299.95Q-55.15 299.23 -54.89 297.78Q-54.64 296.37 -55.45 295.32Q-56.25 294.26 -57.88 293.97Q-59.4 293.7 -60.52 294.41Q-61.63 295.1 -61.9 296.59Q-62.15 298.04 -61.35 299.08Q-60.54 300.12 -58.98 300.39Z" stroke="#202027" stroke-opacity="1.000000" stroke-width="0.575447"/>
		<rect id="Frame 2043683129" rx="19.750000" width="91.571602" height="91.571609" transform="translate(-95.650391 249.507202) rotate(10.000000)" stroke="#202027" stroke-opacity="1.000000" stroke-width="0.500000"/>
		<rect id="Frame 2043683130" rx="19.750000" width="91.571602" height="91.571609" transform="translate(1.893555 266.706665) rotate(10.000000)" fill="#D9B6FF" fill-opacity="1.000000"/>
		<path id="4" d="M46.33 328.76L50.11 329.42L51.11 323.73L47.34 323.07L48.11 318.76L41.32 317.56L40.56 321.87L35.41 320.96L48.37 307.95L40.94 306.64L26.74 320.48L25.92 325.16L39.33 327.52L38.47 332.39L45.47 333.62L46.33 328.76Z" fill="#FFFFFF" fill-opacity="1.000000" fill-rule="evenodd"/>
		<path id="4" d="M50.11 329.42L46.33 328.76L45.47 333.62L38.47 332.39L39.33 327.52L25.92 325.16L26.74 320.48L40.94 306.64L48.37 307.95L35.41 320.96L40.56 321.87L41.32 317.56L48.11 318.76L47.34 323.07L51.11 323.73L50.11 329.42Z" stroke="#202027" stroke-opacity="1.000000" stroke-width="0.575447"/>
		<rect id="Frame 2043683130" rx="19.750000" width="91.571602" height="91.571609" transform="translate(1.893555 266.706665) rotate(10.000000)" stroke="#202027" stroke-opacity="1.000000" stroke-width="0.500000"/>
		<rect id="Frame 2043683131" rx="19.750000" width="91.571602" height="91.571609" transform="translate(99.436523 283.906250) rotate(10.000000)" fill="#D9B6FF" fill-opacity="1.000000"/>
		<path id="92" d="M133.85 324.64Q131.32 322.05 126.93 321.28Q124.26 320.81 121.87 321.42Q121.8 321.44 121.72 321.46Q120.07 321.91 118.77 322.85Q118.13 323.31 117.58 323.88Q117.13 324.36 116.76 324.89Q115.79 326.32 115.46 328.19Q115.14 329.97 115.55 331.57Q115.68 332.09 115.89 332.6Q116.24 333.42 116.74 334.13Q117.48 335.18 118.56 335.98Q118.86 336.2 119.17 336.4Q120.77 337.4 122.78 337.76Q125.95 338.31 128.3 337.18Q128.55 337.05 128.8 336.91Q128.07 339.48 126.37 340.7Q126.21 340.82 126.04 340.92Q125.74 341.11 125.41 341.26Q123.67 342.06 121.37 341.65Q118.54 341.15 116.92 339.53L113.41 344.21Q114.62 345.33 116.49 346.16Q118.37 347 120.51 347.37Q124.54 348.08 127.89 346.99Q129.32 346.53 130.55 345.75Q132.2 344.69 133.48 343.07Q135.73 340.22 136.5 335.87Q137.52 330.11 135.22 326.4Q135.11 326.21 134.98 326.03Q134.47 325.28 133.85 324.64ZM155.92 353.1L156.93 347.4L147.14 345.68L152.71 342.09Q155.67 340.22 156.88 338.55Q157.4 337.82 157.76 337.02Q158.24 335.98 158.45 334.81Q158.74 333.2 158.37 331.76Q158.21 331.12 157.92 330.5Q157.8 330.23 157.65 329.98Q156.71 328.34 154.92 327.19Q152.86 325.85 149.96 325.34Q146.3 324.69 143.36 325.63Q141.35 326.28 139.81 327.52Q139.1 328.08 138.5 328.78L143.31 332.69Q144.02 331.92 144.9 331.49Q145.22 331.33 145.57 331.21Q145.92 331.1 146.28 331.03Q147.25 330.85 148.28 331.03Q149.87 331.31 150.58 332.15Q150.81 332.41 150.94 332.71Q151.23 333.36 151.08 334.22Q151.07 334.25 151.06 334.29Q150.89 335.19 150.28 336Q149.64 336.84 148.03 337.91L136.96 345.11L136.16 349.61L155.92 353.1ZM127.63 332.7Q126.65 333.13 125.39 332.9Q124.09 332.67 123.31 331.91Q123.15 331.76 123.02 331.59Q122.75 331.24 122.6 330.84Q122.31 330.06 122.48 329.1Q122.66 328.05 123.28 327.39Q123.53 327.12 123.85 326.92Q124.09 326.76 124.34 326.66Q125.29 326.27 126.49 326.48Q127.92 326.73 128.71 327.57Q128.82 327.7 128.92 327.83Q129.23 328.24 129.39 328.7Q129.63 329.43 129.48 330.29Q129.32 331.21 128.8 331.84Q128.5 332.2 128.08 332.46Q127.86 332.6 127.63 332.7Z" fill="#FFFFFF" fill-opacity="1.000000" fill-rule="evenodd"/>
		<path id="92" d="M126.93 321.28Q132.4 322.24 134.98 326.03Q137.57 329.82 136.5 335.87Q135.73 340.22 133.48 343.07Q131.24 345.9 127.89 346.99Q124.54 348.08 120.51 347.37Q118.37 347 116.49 346.16Q114.62 345.33 113.41 344.21L116.92 339.53Q118.54 341.15 121.37 341.65Q124.09 342.13 126.04 340.92Q128 339.72 128.8 336.91Q126.29 338.38 122.78 337.76Q120.38 337.33 118.56 335.98Q116.75 334.63 115.89 332.6Q115.04 330.56 115.46 328.19Q115.91 325.63 117.58 323.88Q119.26 322.14 121.72 321.46Q124.18 320.79 126.93 321.28ZM125.39 332.9Q126.95 333.18 128.08 332.46Q129.22 331.74 129.48 330.29Q129.73 328.88 128.92 327.83Q128.12 326.76 126.49 326.48Q124.97 326.21 123.85 326.92Q122.74 327.61 122.48 329.1Q122.22 330.54 123.02 331.59Q123.83 332.63 125.39 332.9ZM156.93 347.4L155.92 353.1L136.16 349.61L136.96 345.11L148.03 337.91Q149.64 336.84 150.28 336Q150.91 335.16 151.08 334.22Q151.3 332.98 150.58 332.15Q149.87 331.31 148.28 331.03Q146.86 330.78 145.57 331.21Q144.28 331.63 143.31 332.69L138.5 328.78Q140.42 326.58 143.36 325.63Q146.3 324.69 149.96 325.34Q152.86 325.85 154.92 327.19Q156.99 328.52 157.92 330.5Q158.86 332.49 158.45 334.81Q158.09 336.87 156.88 338.55Q155.67 340.22 152.71 342.09L147.14 345.68L156.93 347.4Z" stroke="#202027" stroke-opacity="1.000000" stroke-width="0.575447"/>
		<rect id="Frame 2043683131" rx="19.750000" width="91.571602" height="91.571609" transform="translate(99.436523 283.906250) rotate(10.000000)" stroke="#202027" stroke-opacity="1.000000" stroke-width="0.500000"/>
		<rect id="Frame 2043683132" rx="19.750000" width="91.571602" height="91.571609" transform="translate(196.979492 301.105835) rotate(10.000000)" fill="#D9B6FF" fill-opacity="1.000000"/>
		<path id="10" d="M234.53 366.44Q236.5 367.82 239.13 368.29Q241.57 368.72 243.79 368.18Q244.49 368.01 245.17 367.75Q245.68 367.54 246.16 367.29Q248.34 366.14 249.94 363.89Q251.9 361.15 252.63 357.06Q253.35 352.96 252.45 349.72Q251.72 347.06 250.07 345.24Q249.7 344.83 249.29 344.47Q248.73 343.97 248.11 343.56Q246.23 342.31 243.8 341.89Q241.2 341.43 238.89 342.04Q238.29 342.2 237.72 342.43Q237.25 342.61 236.8 342.85Q234.58 344 232.94 346.28Q230.98 349.02 230.25 353.11Q229.53 357.21 230.43 360.45Q231.19 363.16 232.88 365Q233.22 365.37 233.59 365.7Q234.04 366.1 234.53 366.44ZM224.2 365.13L228.69 339.75L216.8 337.65L215.82 343.2L220.53 344.03L217.02 363.87L224.2 365.13ZM241.46 362.39Q240.84 362.54 240.17 362.42Q239.45 362.29 238.89 361.92Q238.02 361.33 237.56 360.14Q236.8 358.19 237.47 354.38Q238.15 350.58 239.53 349.01Q240.37 348.05 241.39 347.8Q242.04 347.64 242.76 347.76Q243.44 347.88 243.96 348.23Q244.86 348.81 245.33 350.03Q246.09 351.98 245.41 355.78Q244.74 359.59 243.36 361.16Q242.49 362.15 241.46 362.39Z" fill="#FFFFFF" fill-opacity="1.000000" fill-rule="evenodd"/>
		<path id="10" d="M228.69 339.75L224.2 365.13L217.02 363.87L220.53 344.03L215.82 343.2L216.8 337.65L228.69 339.75ZM239.13 368.29Q235.86 367.71 233.59 365.7Q231.34 363.7 230.43 360.45Q229.53 357.21 230.25 353.11Q230.98 349.02 232.94 346.28Q234.91 343.54 237.72 342.43Q240.54 341.31 243.8 341.89Q247.03 342.45 249.29 344.47Q251.55 346.48 252.45 349.72Q253.35 352.96 252.63 357.06Q251.9 361.15 249.94 363.89Q247.98 366.64 245.17 367.75Q242.35 368.86 239.13 368.29ZM240.17 362.42Q241.98 362.74 243.36 361.16Q244.74 359.59 245.41 355.78Q246.09 351.98 245.33 350.03Q244.58 348.08 242.76 347.76Q240.91 347.44 239.53 349.01Q238.15 350.58 237.47 354.38Q236.8 358.19 237.56 360.14Q238.32 362.09 240.17 362.42Z" stroke="#202027" stroke-opacity="1.000000" stroke-width="0.575447"/>
		<rect id="Frame 2043683132" rx="19.750000" width="91.571602" height="91.571609" transform="translate(196.979492 301.105835) rotate(10.000000)" stroke="#202027" stroke-opacity="1.000000" stroke-width="0.500000"/>
		<rect id="Frame 2043683133" rx="19.750000" width="91.571602" height="91.571609" transform="translate(294.523438 318.305420) rotate(10.000000)" fill="#D9B6FF" fill-opacity="1.000000"/>
		<path id="7" d="M343.51 364.63L344.3 360.14L323.26 356.43L321.56 366.03L327.69 367.11L328.38 363.2L335.06 364.38L323.01 382.56L330.85 383.94L343.51 364.63Z" fill="#FFFFFF" fill-opacity="1.000000" fill-rule="evenodd"/>
		<path id="7" d="M344.3 360.14L343.51 364.63L330.85 383.94L323.01 382.56L335.06 364.38L328.38 363.2L327.69 367.11L321.56 366.03L323.26 356.43L344.3 360.14Z" stroke="#202027" stroke-opacity="1.000000" stroke-width="0.575447"/>
		<rect id="Frame 2043683133" rx="19.750000" width="91.571602" height="91.571609" transform="translate(294.523438 318.305420) rotate(10.000000)" stroke="#202027" stroke-opacity="1.000000" stroke-width="0.500000"/>
		<g filter="url(#filter_17_5973_dd)">
			<rect id="Frame 2043683065" rx="19.750000" width="137.209549" height="136.999207" transform="translate(115.394531 62.924072) rotate(10.000001)" fill="#E9D4FF" fill-opacity="1.000000"/>
			<path id="?" d="M165.98 143.12Q163.97 145.19 163.33 148.82L176.24 151.1Q176.45 149.94 177.03 149.02Q177.43 148.38 178.02 147.85Q179.45 146.57 182.29 144.9Q184.88 143.35 186.56 142.03Q188.25 140.71 189.67 138.6Q191.1 136.5 191.62 133.54Q192.21 130.2 191.27 127.38Q190.38 124.74 188.14 122.56Q183.52 118.04 174.9 116.51Q167.21 115.16 161.25 117.03Q157.51 118.21 154.59 120.46Q152.87 121.78 151.44 123.46L161.23 131.16Q162.52 129.66 164.13 128.74Q164.89 128.3 165.72 127.99Q166.45 127.72 167.19 127.57Q169.13 127.17 171.23 127.54Q174.04 128.03 175.59 129.62Q176.45 130.49 176.72 131.52Q176.95 132.37 176.78 133.32Q176.71 133.69 176.58 134.05Q176.19 135.13 175.24 136Q174 137.15 171.56 138.75Q168.02 141.03 165.98 143.12ZM162.29 167.31Q163.96 168.67 166.4 169.1Q169.01 169.56 171.15 168.76Q171.98 168.45 172.75 167.94Q174.13 167.02 174.95 165.74Q175.75 164.51 176.02 162.95Q176.35 161.07 175.86 159.45Q175.49 158.24 174.65 157.17Q174.21 156.6 173.68 156.13Q171.88 154.51 169.08 154.02Q166.24 153.52 164 154.45Q163.37 154.71 162.79 155.08Q161.69 155.78 160.95 156.75Q159.89 158.12 159.55 160.04Q159.28 161.61 159.6 163.03Q159.93 164.52 160.92 165.85Q161.52 166.68 162.29 167.31Z" fill="#FFFFFF" fill-opacity="1.000000" fill-rule="evenodd"/>
			<path id="?" d="M163.33 148.82Q163.97 145.19 165.98 143.12Q168.02 141.03 171.56 138.75Q174 137.15 175.24 136Q176.51 134.84 176.78 133.32Q177.15 131.21 175.59 129.62Q174.04 128.03 171.23 127.54Q168.32 127.02 165.72 127.99Q163.12 128.96 161.23 131.16L151.44 123.46Q155.32 118.9 161.25 117.03Q167.21 115.16 174.9 116.51Q183.52 118.04 188.14 122.56Q192.77 127.08 191.62 133.54Q191.1 136.5 189.67 138.6Q188.25 140.71 186.56 142.03Q184.88 143.35 182.29 144.9Q179.45 146.57 178.02 147.85Q176.59 149.13 176.24 151.1L163.33 148.82ZM166.4 169.1Q162.84 168.48 160.92 165.85Q158.99 163.23 159.55 160.04Q160.13 156.77 162.79 155.08Q165.44 153.38 169.08 154.02Q172.71 154.66 174.65 157.17Q176.6 159.67 176.02 162.95Q175.46 166.13 172.75 167.94Q170.03 169.74 166.4 169.1Z" stroke="#202027" stroke-opacity="1.000000" stroke-width="0.575447"/>
			<rect id="Frame 2043683065" rx="19.750000" width="137.209549" height="136.999207" transform="translate(115.394531 62.924072) rotate(10.000001)" stroke="#202027" stroke-opacity="1.000000" stroke-width="0.500000"/>
		</g>
	</g>
</svg>
