<svg width="343.000000" height="284.925903" viewBox="0 0 343 284.926" fill="none" xmlns="http://www.w3.org/2000/svg" xmlns:xlink="http://www.w3.org/1999/xlink">
	<desc>
			Created with Pixso.
	</desc>
	<defs>
		<filter id="filter_17_6097_dd" x="59.333984" y="27.766724" width="223.416992" height="257.184814" filterUnits="userSpaceOnUse" color-interpolation-filters="sRGB">
			<feFlood flood-opacity="0" result="BackgroundImageFix"/>
			<feColorMatrix in="SourceAlpha" type="matrix" values="0 0 0 0 0 0 0 0 0 0 0 0 0 0 0 0 0 0 127 0" result="hardAlpha"/>
			<feMorphology radius="-8.31143" in="" result="BackgroundImageFix"/>
			<feOffset dx="0" dy="13.8524"/>
			<feGaussianBlur stdDeviation="15.4685"/>
			<feComposite in2="hardAlpha" operator="out" k2="-1" k3="1"/>
			<feColorMatrix type="matrix" values="0 0 0 0 0 0 0 0 0 0 0 0 0 0 0 0 0 0 0.3 0"/>
			<feBlend mode="normal" in2="BackgroundImageFix" result="effect_dropShadow_1"/>
			<feBlend mode="normal" in="SourceGraphic" in2="effect_dropShadow_1" result="shape"/>
		</filter>
		<clipPath id="clip17_6060">
			<rect id="Обложка карточки" rx="29.713888" width="342.427765" height="284.353699" transform="translate(0.286112 0.286112)" fill="white" fill-opacity="0"/>
		</clipPath>
	</defs>
	<rect id="Обложка карточки" rx="29.713888" width="342.427765" height="284.353699" transform="translate(0.286112 0.286112)" fill="#99D100" fill-opacity="1.000000"/>
	<g clip-path="url(#clip17_6060)">
		<rect id="Frame 2043683103" rx="19.750000" width="96.103348" height="128.304474" transform="translate(-43.207031 -96.825195) rotate(10.000001)" fill="#BCEC30" fill-opacity="1.000000"/>
		<path id="?" d="M-10.04 -25.32Q-11.26 -24.07 -11.65 -21.87L-3.84 -20.49Q-3.71 -21.19 -3.36 -21.75Q-3.12 -22.14 -2.76 -22.46Q-1.89 -23.23 -0.18 -24.25Q1.39 -25.18 2.4 -25.98Q3.43 -26.78 4.29 -28.05Q5.15 -29.33 5.47 -31.12Q5.83 -33.14 5.25 -34.84Q4.72 -36.44 3.36 -37.76Q0.57 -40.5 -4.65 -41.42Q-9.3 -42.24 -12.91 -41.11Q-15.17 -40.39 -16.94 -39.03Q-17.98 -38.23 -18.84 -37.21L-12.92 -32.56Q-12.14 -33.46 -11.16 -34.02Q-10.7 -34.29 -10.2 -34.48Q-9.76 -34.64 -9.31 -34.73Q-8.14 -34.97 -6.87 -34.75Q-5.17 -34.45 -4.23 -33.49Q-3.71 -32.96 -3.55 -32.34Q-3.41 -31.83 -3.51 -31.25Q-3.55 -31.02 -3.63 -30.81Q-3.87 -30.16 -4.44 -29.63Q-5.19 -28.93 -6.67 -27.96Q-8.81 -26.59 -10.04 -25.32ZM-12.28 -10.69Q-11.27 -9.86 -9.79 -9.6Q-8.21 -9.32 -6.92 -9.81Q-6.41 -10 -5.95 -10.3Q-5.12 -10.86 -4.62 -11.63Q-4.14 -12.38 -3.97 -13.32Q-3.77 -14.46 -4.07 -15.44Q-4.29 -16.17 -4.8 -16.82Q-5.07 -17.16 -5.39 -17.45Q-6.48 -18.43 -8.17 -18.73Q-9.89 -19.03 -11.25 -18.47Q-11.63 -18.31 -11.98 -18.08Q-12.64 -17.66 -13.09 -17.08Q-13.73 -16.24 -13.93 -15.08Q-14.1 -14.13 -13.91 -13.27Q-13.7 -12.37 -13.11 -11.57Q-12.74 -11.07 -12.28 -10.69Z" fill="#FFFFFF" fill-opacity="1.000000" fill-rule="evenodd"/>
		<path id="?" d="M-11.65 -21.87Q-11.26 -24.07 -10.04 -25.32Q-8.81 -26.59 -6.67 -27.96Q-5.19 -28.93 -4.44 -29.63Q-3.68 -30.33 -3.51 -31.25Q-3.29 -32.53 -4.23 -33.49Q-5.17 -34.45 -6.87 -34.75Q-8.63 -35.06 -10.2 -34.48Q-11.77 -33.89 -12.92 -32.56L-18.84 -37.21Q-16.5 -39.97 -12.91 -41.11Q-9.3 -42.24 -4.65 -41.42Q0.57 -40.5 3.36 -37.76Q6.16 -35.03 5.47 -31.12Q5.15 -29.33 4.29 -28.05Q3.43 -26.78 2.4 -25.98Q1.39 -25.18 -0.18 -24.25Q-1.89 -23.23 -2.76 -22.46Q-3.63 -21.68 -3.84 -20.49L-11.65 -21.87ZM-9.79 -9.6Q-11.94 -9.98 -13.11 -11.57Q-14.28 -13.15 -13.93 -15.08Q-13.58 -17.06 -11.98 -18.08Q-10.37 -19.11 -8.17 -18.73Q-5.98 -18.34 -4.8 -16.82Q-3.62 -15.31 -3.97 -13.32Q-4.31 -11.4 -5.95 -10.3Q-7.59 -9.21 -9.79 -9.6Z" stroke="#202027" stroke-opacity="1.000000" stroke-width="0.464242"/>
		<rect id="Frame 2043683103" rx="19.750000" width="96.103348" height="128.304474" transform="translate(-43.207031 -96.825195) rotate(10.000001)" stroke="#202027" stroke-opacity="1.000000" stroke-width="0.500000"/>
		<rect id="Frame 2043683100" rx="19.750000" width="96.103348" height="128.304474" transform="translate(57.513672 -79.065430) rotate(10.000001)" fill="#BCEC30" fill-opacity="1.000000"/>
		<path id="?" d="M90.68 -7.56Q89.46 -6.31 89.07 -4.11L96.88 -2.73Q97.01 -3.43 97.36 -3.99Q97.6 -4.38 97.96 -4.7Q98.83 -5.47 100.54 -6.49Q102.11 -7.42 103.13 -8.22Q104.15 -9.02 105.01 -10.29Q105.87 -11.57 106.19 -13.36Q106.55 -15.38 105.97 -17.08Q105.44 -18.68 104.09 -20Q101.29 -22.74 96.07 -23.66Q91.42 -24.48 87.82 -23.35Q85.55 -22.63 83.78 -21.27Q82.74 -20.47 81.88 -19.46L87.8 -14.8Q88.58 -15.7 89.56 -16.26Q90.02 -16.53 90.52 -16.72Q90.96 -16.88 91.41 -16.97Q92.58 -17.21 93.85 -16.99Q95.55 -16.69 96.49 -15.73Q97.01 -15.2 97.17 -14.58Q97.31 -14.07 97.21 -13.49Q97.17 -13.26 97.09 -13.05Q96.86 -12.4 96.28 -11.87Q95.53 -11.17 94.05 -10.2Q91.91 -8.83 90.68 -7.56ZM88.44 7.07Q89.45 7.9 90.93 8.16Q92.51 8.44 93.8 7.95Q94.31 7.76 94.77 7.46Q95.61 6.9 96.1 6.13Q96.58 5.38 96.75 4.44Q96.95 3.3 96.65 2.32Q96.43 1.59 95.92 0.94Q95.65 0.6 95.33 0.31Q94.25 -0.67 92.55 -0.97Q90.83 -1.27 89.47 -0.71Q89.09 -0.55 88.74 -0.32Q88.08 0.1 87.63 0.68Q86.99 1.52 86.79 2.68Q86.62 3.62 86.81 4.49Q87.02 5.39 87.61 6.19Q87.98 6.69 88.44 7.07Z" fill="#FFFFFF" fill-opacity="1.000000" fill-rule="evenodd"/>
		<path id="?" d="M89.07 -4.11Q89.46 -6.31 90.68 -7.56Q91.91 -8.83 94.05 -10.2Q95.53 -11.17 96.28 -11.87Q97.05 -12.57 97.21 -13.49Q97.43 -14.77 96.49 -15.73Q95.55 -16.69 93.85 -16.99Q92.09 -17.3 90.52 -16.72Q88.95 -16.13 87.8 -14.8L81.88 -19.46Q84.22 -22.21 87.82 -23.35Q91.42 -24.48 96.07 -23.66Q101.29 -22.74 104.09 -20Q106.88 -17.27 106.19 -13.36Q105.87 -11.57 105.01 -10.29Q104.15 -9.02 103.13 -8.22Q102.11 -7.42 100.54 -6.49Q98.83 -5.47 97.96 -4.7Q97.09 -3.92 96.88 -2.73L89.07 -4.11ZM90.93 8.16Q88.78 7.78 87.61 6.19Q86.44 4.61 86.79 2.68Q87.14 0.7 88.74 -0.32Q90.35 -1.36 92.55 -0.97Q94.74 -0.58 95.92 0.94Q97.1 2.45 96.75 4.44Q96.41 6.36 94.77 7.46Q93.13 8.55 90.93 8.16Z" stroke="#202027" stroke-opacity="1.000000" stroke-width="0.464242"/>
		<rect id="Frame 2043683100" rx="19.750000" width="96.103348" height="128.304474" transform="translate(57.513672 -79.065430) rotate(10.000001)" stroke="#202027" stroke-opacity="1.000000" stroke-width="0.500000"/>
		<rect id="Frame 2043683094" rx="19.750000" width="96.103348" height="128.304474" transform="translate(158.233398 -61.305908) rotate(10.000001)" fill="#BCEC30" fill-opacity="1.000000"/>
		<path id="?" d="M190.65 10.47Q189.14 12.03 188.66 14.75L198.34 16.45Q198.5 15.59 198.93 14.9Q199.24 14.41 199.68 14.02Q200.75 13.06 202.88 11.8Q204.82 10.64 206.08 9.66Q207.35 8.66 208.41 7.08Q209.49 5.51 209.88 3.29Q210.32 0.78 209.61 -1.33Q208.95 -3.31 207.27 -4.95Q203.8 -8.34 197.33 -9.48Q191.57 -10.5 187.1 -9.1Q184.29 -8.21 182.1 -6.52Q180.82 -5.54 179.74 -4.27L187.09 1.5Q188.05 0.38 189.26 -0.32Q189.83 -0.64 190.45 -0.88Q191 -1.08 191.56 -1.19Q193.01 -1.49 194.58 -1.22Q196.69 -0.84 197.85 0.35Q198.5 1 198.7 1.77Q198.87 2.41 198.75 3.12Q198.7 3.4 198.6 3.67Q198.31 4.48 197.59 5.13Q196.66 6 194.83 7.19Q192.17 8.9 190.65 10.47ZM187.88 28.61Q189.13 29.64 190.96 29.96Q192.92 30.3 194.52 29.7Q195.15 29.47 195.72 29.09Q196.76 28.4 197.38 27.44Q197.97 26.51 198.18 25.34Q198.43 23.94 198.05 22.72Q197.78 21.81 197.15 21.01Q196.82 20.58 196.42 20.23Q195.07 19.01 192.97 18.64Q190.84 18.27 189.16 18.97Q188.69 19.16 188.25 19.44Q187.43 19.96 186.87 20.69Q186.08 21.72 185.83 23.16Q185.62 24.34 185.86 25.41Q186.11 26.52 186.85 27.52Q187.3 28.14 187.88 28.61Z" fill="#FFFFFF" fill-opacity="1.000000" fill-rule="evenodd"/>
		<path id="?" d="M188.66 14.75Q189.14 12.03 190.65 10.47Q192.17 8.9 194.83 7.19Q196.66 6 197.59 5.13Q198.54 4.26 198.75 3.12Q199.03 1.54 197.85 0.35Q196.69 -0.84 194.58 -1.22Q192.4 -1.6 190.45 -0.88Q188.5 -0.15 187.09 1.5L179.74 -4.27Q182.65 -7.69 187.1 -9.1Q191.57 -10.5 197.33 -9.48Q203.8 -8.34 207.27 -4.95Q210.74 -1.56 209.88 3.29Q209.49 5.51 208.41 7.08Q207.35 8.66 206.08 9.66Q204.82 10.64 202.88 11.8Q200.75 13.06 199.68 14.02Q198.6 14.98 198.34 16.45L188.66 14.75ZM190.96 29.96Q188.29 29.49 186.85 27.52Q185.4 25.55 185.83 23.16Q186.26 20.71 188.25 19.44Q190.25 18.16 192.97 18.64Q195.69 19.12 197.15 21.01Q198.61 22.88 198.18 25.34Q197.76 27.73 195.72 29.09Q193.69 30.44 190.96 29.96Z" stroke="#202027" stroke-opacity="1.000000" stroke-width="0.464242"/>
		<rect id="Frame 2043683094" rx="19.750000" width="96.103348" height="128.304474" transform="translate(158.233398 -61.305908) rotate(10.000001)" stroke="#202027" stroke-opacity="1.000000" stroke-width="0.500000"/>
		<rect id="Frame 2043683095" rx="19.750000" width="96.103348" height="128.304474" transform="translate(258.954102 -43.546143) rotate(10.000001)" fill="#BCEC30" fill-opacity="1.000000"/>
		<path id="?" d="M291.37 28.23Q289.86 29.79 289.38 32.51L299.06 34.21Q299.22 33.35 299.65 32.66Q299.96 32.17 300.4 31.78Q301.47 30.82 303.6 29.56Q305.54 28.4 306.8 27.42Q308.07 26.42 309.13 24.84Q310.21 23.27 310.6 21.05Q311.04 18.54 310.33 16.43Q309.67 14.45 307.99 12.81Q304.52 9.42 298.05 8.28Q292.29 7.26 287.82 8.66Q285.01 9.55 282.82 11.24Q281.54 12.22 280.46 13.49L287.81 19.26Q288.77 18.14 289.98 17.44Q290.55 17.11 291.17 16.88Q291.72 16.68 292.28 16.57Q293.73 16.27 295.3 16.54Q297.41 16.92 298.57 18.11Q299.22 18.76 299.42 19.53Q299.59 20.17 299.47 20.88Q299.41 21.16 299.32 21.43Q299.03 22.24 298.31 22.89Q297.38 23.76 295.55 24.95Q292.89 26.66 291.37 28.23ZM288.6 46.37Q289.85 47.4 291.68 47.72Q293.64 48.06 295.24 47.46Q295.87 47.23 296.44 46.85Q297.48 46.16 298.1 45.2Q298.69 44.27 298.9 43.1Q299.15 41.69 298.77 40.48Q298.5 39.57 297.87 38.77Q297.54 38.34 297.14 37.99Q295.79 36.77 293.69 36.4Q291.56 36.03 289.88 36.73Q289.41 36.92 288.97 37.2Q288.15 37.72 287.59 38.45Q286.8 39.48 286.54 40.92Q286.34 42.1 286.58 43.17Q286.83 44.28 287.57 45.28Q288.02 45.9 288.6 46.37Z" fill="#FFFFFF" fill-opacity="1.000000" fill-rule="evenodd"/>
		<path id="?" d="M289.38 32.51Q289.86 29.79 291.37 28.23Q292.89 26.66 295.55 24.95Q297.38 23.76 298.31 22.89Q299.26 22.02 299.47 20.88Q299.75 19.3 298.57 18.11Q297.41 16.92 295.3 16.54Q293.12 16.16 291.17 16.88Q289.22 17.61 287.81 19.26L280.46 13.49Q283.37 10.07 287.82 8.66Q292.29 7.26 298.05 8.28Q304.52 9.42 307.99 12.81Q311.46 16.2 310.6 21.05Q310.21 23.27 309.13 24.84Q308.07 26.42 306.8 27.42Q305.54 28.4 303.6 29.56Q301.47 30.82 300.4 31.78Q299.32 32.74 299.06 34.21L289.38 32.51ZM291.68 47.72Q289.01 47.25 287.57 45.28Q286.12 43.31 286.54 40.92Q286.98 38.47 288.97 37.2Q290.97 35.92 293.69 36.4Q296.41 36.88 297.87 38.77Q299.33 40.64 298.9 43.1Q298.47 45.49 296.44 46.85Q294.41 48.2 291.68 47.72Z" stroke="#202027" stroke-opacity="1.000000" stroke-width="0.464242"/>
		<rect id="Frame 2043683095" rx="19.750000" width="96.103348" height="128.304474" transform="translate(258.954102 -43.546143) rotate(10.000001)" stroke="#202027" stroke-opacity="1.000000" stroke-width="0.500000"/>
		<rect id="Frame 2043683101" rx="19.750000" width="96.103348" height="128.304474" transform="translate(359.673828 -25.786621) rotate(10.000001)" fill="#BCEC30" fill-opacity="1.000000"/>
		<path id="?" d="M392.84 45.72Q391.62 46.97 391.23 49.17L399.04 50.55Q399.17 49.84 399.52 49.29Q399.77 48.9 400.12 48.58Q400.99 47.81 402.7 46.79Q404.27 45.85 405.29 45.06Q406.31 44.26 407.17 42.98Q408.03 41.71 408.35 39.92Q408.71 37.9 408.14 36.2Q407.6 34.6 406.25 33.28Q403.45 30.54 398.23 29.62Q393.58 28.8 389.98 29.93Q387.71 30.65 385.94 32.01Q384.9 32.81 384.04 33.82L389.96 38.48Q390.74 37.57 391.72 37.01Q392.18 36.75 392.68 36.56Q393.12 36.4 393.57 36.31Q394.74 36.06 396.01 36.29Q397.71 36.59 398.65 37.55Q399.17 38.08 399.33 38.7Q399.47 39.21 399.37 39.79Q399.33 40.02 399.25 40.23Q399.02 40.88 398.44 41.41Q397.69 42.11 396.21 43.07Q394.07 44.45 392.84 45.72ZM390.6 60.35Q391.62 61.18 393.09 61.44Q394.67 61.72 395.96 61.23Q396.47 61.04 396.93 60.74Q397.77 60.18 398.26 59.41Q398.74 58.66 398.91 57.71Q399.11 56.58 398.81 55.6Q398.59 54.87 398.08 54.22Q397.82 53.87 397.49 53.59Q396.41 52.61 394.71 52.31Q392.99 52.01 391.63 52.57Q391.26 52.73 390.9 52.96Q390.24 53.38 389.79 53.96Q389.15 54.8 388.95 55.96Q388.78 56.9 388.97 57.77Q389.18 58.66 389.77 59.47Q390.14 59.97 390.6 60.35Z" fill="#FFFFFF" fill-opacity="1.000000" fill-rule="evenodd"/>
		<path id="?" d="M391.23 49.17Q391.62 46.97 392.84 45.72Q394.07 44.45 396.21 43.07Q397.69 42.11 398.44 41.41Q399.21 40.71 399.37 39.79Q399.6 38.51 398.65 37.55Q397.71 36.59 396.01 36.29Q394.25 35.98 392.68 36.56Q391.11 37.15 389.96 38.48L384.04 33.82Q386.38 31.07 389.98 29.93Q393.58 28.8 398.23 29.62Q403.45 30.54 406.25 33.28Q409.04 36.01 408.35 39.92Q408.03 41.71 407.17 42.98Q406.31 44.26 405.29 45.06Q404.27 45.85 402.7 46.79Q400.99 47.81 400.12 48.58Q399.25 49.36 399.04 50.55L391.23 49.17ZM393.09 61.44Q390.94 61.06 389.77 59.47Q388.61 57.89 388.95 55.96Q389.3 53.98 390.9 52.96Q392.51 51.92 394.71 52.31Q396.91 52.7 398.08 54.22Q399.26 55.73 398.91 57.71Q398.57 59.64 396.93 60.74Q395.29 61.83 393.09 61.44Z" stroke="#202027" stroke-opacity="1.000000" stroke-width="0.464242"/>
		<rect id="Frame 2043683101" rx="19.750000" width="96.103348" height="128.304474" transform="translate(359.673828 -25.786621) rotate(10.000001)" stroke="#202027" stroke-opacity="1.000000" stroke-width="0.500000"/>
		<rect id="Frame 2043683104" rx="19.750000" width="96.103348" height="128.304474" transform="translate(-66.541016 35.508545) rotate(10.000001)" fill="#BCEC30" fill-opacity="1.000000"/>
		<path id="?" d="M-33.38 107.01Q-34.59 108.27 -34.98 110.46L-27.17 111.84Q-27.05 111.14 -26.7 110.58Q-26.45 110.19 -26.09 109.88Q-25.23 109.1 -23.51 108.09Q-21.94 107.15 -20.93 106.36Q-19.9 105.55 -19.05 104.28Q-18.18 103.01 -17.86 101.22Q-17.51 99.2 -18.08 97.49Q-18.62 95.89 -19.97 94.57Q-22.77 91.84 -27.98 90.92Q-32.64 90.1 -36.24 91.23Q-38.5 91.94 -40.27 93.3Q-41.31 94.1 -42.18 95.12L-36.25 99.78Q-35.47 98.87 -34.5 98.31Q-34.04 98.05 -33.53 97.86Q-33.1 97.7 -32.64 97.6Q-31.47 97.36 -30.2 97.58Q-28.5 97.88 -27.57 98.84Q-27.05 99.37 -26.88 100Q-26.74 100.51 -26.85 101.08Q-26.89 101.31 -26.96 101.53Q-27.2 102.18 -27.77 102.71Q-28.53 103.4 -30 104.37Q-32.15 105.75 -33.38 107.01ZM-35.61 121.65Q-34.6 122.47 -33.12 122.74Q-31.54 123.01 -30.25 122.53Q-29.75 122.34 -29.29 122.03Q-28.45 121.47 -27.95 120.7Q-27.47 119.96 -27.3 119.01Q-27.1 117.88 -27.4 116.9Q-27.63 116.16 -28.13 115.52Q-28.4 115.17 -28.72 114.88Q-29.81 113.91 -31.51 113.61Q-33.22 113.3 -34.58 113.87Q-34.96 114.03 -35.31 114.25Q-35.98 114.67 -36.42 115.26Q-37.06 116.09 -37.27 117.25Q-37.44 118.2 -37.24 119.06Q-37.04 119.96 -36.44 120.77Q-36.08 121.27 -35.61 121.65Z" fill="#FFFFFF" fill-opacity="1.000000" fill-rule="evenodd"/>
		<path id="?" d="M-34.98 110.46Q-34.59 108.27 -33.38 107.01Q-32.15 105.75 -30 104.37Q-28.53 103.4 -27.77 102.71Q-27.01 102 -26.85 101.08Q-26.62 99.81 -27.57 98.84Q-28.5 97.88 -30.2 97.58Q-31.96 97.27 -33.53 97.86Q-35.11 98.44 -36.25 99.78L-42.18 95.12Q-39.83 92.36 -36.24 91.23Q-32.64 90.1 -27.98 90.92Q-22.77 91.84 -19.97 94.57Q-17.17 97.31 -17.86 101.22Q-18.18 103.01 -19.05 104.28Q-19.9 105.55 -20.93 106.36Q-21.94 107.15 -23.51 108.09Q-25.23 109.1 -26.09 109.88Q-26.96 110.65 -27.17 111.84L-34.98 110.46ZM-33.12 122.74Q-35.28 122.36 -36.44 120.77Q-37.61 119.18 -37.27 117.25Q-36.92 115.27 -35.31 114.25Q-33.7 113.22 -31.51 113.61Q-29.31 113.99 -28.13 115.52Q-26.95 117.03 -27.3 119.01Q-27.64 120.94 -29.29 122.03Q-30.93 123.12 -33.12 122.74Z" stroke="#202027" stroke-opacity="1.000000" stroke-width="0.464242"/>
		<rect id="Frame 2043683104" rx="19.750000" width="96.103348" height="128.304474" transform="translate(-66.541016 35.508545) rotate(10.000001)" stroke="#202027" stroke-opacity="1.000000" stroke-width="0.500000"/>
		<rect id="Frame 2043683096" rx="19.750000" width="96.103348" height="128.304474" transform="translate(34.179688 53.268311) rotate(10.000001)" fill="#BCEC30" fill-opacity="1.000000"/>
		<path id="?" d="M66.59 125.04Q65.09 126.6 64.6 129.32L74.29 131.03Q74.44 130.16 74.88 129.47Q75.18 128.99 75.62 128.59Q76.7 127.63 78.82 126.38Q80.77 125.22 82.02 124.23Q83.3 123.24 84.36 121.66Q85.43 120.08 85.82 117.86Q86.27 115.36 85.56 113.24Q84.89 111.26 83.21 109.62Q79.75 106.23 73.28 105.09Q67.51 104.08 63.05 105.48Q60.24 106.37 58.05 108.05Q56.76 109.04 55.69 110.3L63.03 116.08Q64 114.95 65.2 114.26Q65.77 113.93 66.4 113.7Q66.94 113.5 67.5 113.38Q68.96 113.08 70.53 113.36Q72.64 113.73 73.8 114.92Q74.44 115.58 74.65 116.35Q74.82 116.98 74.69 117.69Q74.64 117.98 74.54 118.24Q74.25 119.05 73.54 119.71Q72.61 120.57 70.78 121.77Q68.12 123.48 66.59 125.04ZM63.82 143.18Q65.08 144.21 66.91 144.53Q68.87 144.88 70.47 144.28Q71.09 144.04 71.67 143.66Q72.7 142.97 73.32 142.01Q73.92 141.09 74.12 139.92Q74.37 138.51 74 137.29Q73.72 136.39 73.1 135.59Q72.76 135.16 72.37 134.8Q71.02 133.59 68.91 133.22Q66.79 132.84 65.1 133.54Q64.63 133.74 64.2 134.02Q63.37 134.54 62.82 135.27Q62.03 136.3 61.77 137.74Q61.56 138.91 61.81 139.98Q62.06 141.09 62.79 142.1Q63.25 142.71 63.82 143.18Z" fill="#FFFFFF" fill-opacity="1.000000" fill-rule="evenodd"/>
		<path id="?" d="M64.6 129.32Q65.09 126.6 66.59 125.04Q68.12 123.48 70.78 121.77Q72.61 120.57 73.54 119.71Q74.49 118.84 74.69 117.69Q74.97 116.11 73.8 114.92Q72.64 113.73 70.53 113.36Q68.35 112.97 66.4 113.7Q64.45 114.42 63.03 116.08L55.69 110.3Q58.59 106.88 63.05 105.48Q67.51 104.08 73.28 105.09Q79.75 106.23 83.21 109.62Q86.68 113.02 85.82 117.86Q85.43 120.08 84.36 121.66Q83.3 123.24 82.02 124.23Q80.77 125.22 78.82 126.38Q76.7 127.63 75.62 128.59Q74.55 129.56 74.29 131.03L64.6 129.32ZM66.91 144.53Q64.24 144.06 62.79 142.1Q61.35 140.13 61.77 137.74Q62.21 135.28 64.2 134.02Q66.19 132.74 68.91 133.22Q71.64 133.7 73.1 135.59Q74.56 137.46 74.12 139.92Q73.7 142.31 71.67 143.66Q69.63 145.01 66.91 144.53Z" stroke="#202027" stroke-opacity="1.000000" stroke-width="0.464242"/>
		<rect id="Frame 2043683096" rx="19.750000" width="96.103348" height="128.304474" transform="translate(34.179688 53.268311) rotate(10.000001)" stroke="#202027" stroke-opacity="1.000000" stroke-width="0.500000"/>
		<rect id="Frame 2043683112" rx="19.750000" width="96.103348" height="128.304474" transform="translate(134.899414 71.027832) rotate(10.000001)" fill="#BCEC30" fill-opacity="1.000000"/>
		<path id="?" d="M168.06 142.53Q166.85 143.79 166.46 145.98L174.27 147.36Q174.39 146.66 174.75 146.1Q174.99 145.71 175.35 145.39Q176.21 144.62 177.93 143.61Q179.5 142.67 180.51 141.88Q181.54 141.07 182.39 139.8Q183.26 138.53 183.58 136.74Q183.93 134.72 183.36 133.01Q182.82 131.41 181.47 130.09Q178.67 127.35 173.46 126.43Q168.81 125.61 165.2 126.75Q162.94 127.46 161.17 128.82Q160.13 129.62 159.26 130.64L165.19 135.3Q165.97 134.39 166.94 133.83Q167.4 133.57 167.91 133.38Q168.34 133.22 168.8 133.12Q169.97 132.88 171.24 133.1Q172.94 133.4 173.88 134.36Q174.39 134.89 174.56 135.52Q174.7 136.03 174.59 136.6Q174.55 136.83 174.48 137.05Q174.24 137.7 173.67 138.23Q172.91 138.92 171.44 139.89Q169.29 141.27 168.06 142.53ZM165.83 157.17Q166.84 157.99 168.32 158.25Q169.9 158.53 171.19 158.05Q171.69 157.86 172.16 157.55Q172.99 156.99 173.49 156.22Q173.97 155.48 174.14 154.53Q174.34 153.39 174.04 152.41Q173.81 151.68 173.31 151.03Q173.04 150.69 172.72 150.4Q171.63 149.42 169.93 149.13Q168.22 148.82 166.86 149.39Q166.48 149.54 166.13 149.77Q165.47 150.19 165.02 150.78Q164.38 151.61 164.17 152.77Q164 153.72 164.2 154.58Q164.4 155.48 165 156.29Q165.36 156.79 165.83 157.17Z" fill="#FFFFFF" fill-opacity="1.000000" fill-rule="evenodd"/>
		<path id="?" d="M166.46 145.98Q166.85 143.79 168.06 142.53Q169.29 141.27 171.44 139.89Q172.91 138.92 173.67 138.23Q174.43 137.52 174.59 136.6Q174.82 135.33 173.88 134.36Q172.94 133.4 171.24 133.1Q169.48 132.79 167.91 133.38Q166.33 133.96 165.19 135.3L159.26 130.64Q161.61 127.88 165.2 126.75Q168.81 125.61 173.46 126.43Q178.67 127.35 181.47 130.09Q184.27 132.83 183.58 136.74Q183.26 138.53 182.39 139.8Q181.54 141.07 180.51 141.88Q179.5 142.67 177.93 143.61Q176.21 144.62 175.35 145.39Q174.48 146.17 174.27 147.36L166.46 145.98ZM168.32 158.25Q166.16 157.87 165 156.29Q163.83 154.7 164.17 152.77Q164.52 150.79 166.13 149.77Q167.74 148.74 169.93 149.13Q172.13 149.51 173.31 151.03Q174.49 152.55 174.14 154.53Q173.8 156.46 172.16 157.55Q170.51 158.64 168.32 158.25Z" stroke="#202027" stroke-opacity="1.000000" stroke-width="0.464242"/>
		<rect id="Frame 2043683112" rx="19.750000" width="96.103348" height="128.304474" transform="translate(134.899414 71.027832) rotate(10.000001)" stroke="#202027" stroke-opacity="1.000000" stroke-width="0.500000"/>
		<rect id="Frame 2043683098" rx="19.750000" width="96.103348" height="128.304474" transform="translate(235.620117 88.787598) rotate(10.000001)" fill="#BCEC30" fill-opacity="1.000000"/>
		<path id="?" d="M268.04 160.56Q266.53 162.12 266.04 164.84L275.73 166.55Q275.88 165.68 276.32 164.99Q276.62 164.51 277.06 164.11Q278.14 163.15 280.26 161.9Q282.21 160.73 283.47 159.75Q284.74 158.76 285.8 157.18Q286.87 155.6 287.26 153.38Q287.71 150.88 287 148.76Q286.33 146.78 284.66 145.14Q281.19 141.75 274.72 140.61Q268.96 139.59 264.49 141Q261.68 141.88 259.49 143.57Q258.2 144.56 257.13 145.82L264.47 151.6Q265.44 150.47 266.65 149.78Q267.22 149.45 267.84 149.22Q268.38 149.02 268.94 148.9Q270.4 148.6 271.97 148.88Q274.08 149.25 275.24 150.44Q275.88 151.09 276.09 151.87Q276.26 152.5 276.13 153.21Q276.08 153.5 275.98 153.76Q275.69 154.57 274.98 155.23Q274.05 156.09 272.22 157.29Q269.56 159 268.04 160.56ZM265.26 178.7Q266.52 179.73 268.35 180.05Q270.31 180.4 271.91 179.8Q272.54 179.56 273.11 179.18Q274.14 178.49 274.76 177.53Q275.36 176.61 275.56 175.44Q275.81 174.03 275.44 172.81Q275.16 171.91 274.54 171.1Q274.2 170.68 273.81 170.32Q272.46 169.11 270.35 168.74Q268.23 168.36 266.54 169.06Q266.07 169.26 265.64 169.54Q264.81 170.06 264.26 170.79Q263.47 171.82 263.21 173.26Q263 174.43 263.25 175.5Q263.5 176.61 264.23 177.61Q264.69 178.23 265.26 178.7Z" fill="#FFFFFF" fill-opacity="1.000000" fill-rule="evenodd"/>
		<path id="?" d="M266.04 164.84Q266.53 162.12 268.04 160.56Q269.56 159 272.22 157.29Q274.05 156.09 274.98 155.23Q275.93 154.35 276.13 153.21Q276.41 151.63 275.24 150.44Q274.08 149.25 271.97 148.88Q269.79 148.49 267.84 149.22Q265.89 149.94 264.47 151.6L257.13 145.82Q260.03 142.4 264.49 141Q268.96 139.59 274.72 140.61Q281.19 141.75 284.66 145.14Q288.12 148.53 287.26 153.38Q286.87 155.6 285.8 157.18Q284.74 158.76 283.47 159.75Q282.21 160.73 280.26 161.9Q278.14 163.15 277.06 164.11Q275.99 165.07 275.73 166.55L266.04 164.84ZM268.35 180.05Q265.68 179.58 264.23 177.61Q262.79 175.65 263.21 173.26Q263.65 170.8 265.64 169.54Q267.63 168.26 270.35 168.74Q273.08 169.22 274.54 171.1Q276 172.98 275.56 175.44Q275.14 177.83 273.11 179.18Q271.07 180.53 268.35 180.05Z" stroke="#202027" stroke-opacity="1.000000" stroke-width="0.464242"/>
		<rect id="Frame 2043683098" rx="19.750000" width="96.103348" height="128.304474" transform="translate(235.620117 88.787598) rotate(10.000001)" stroke="#202027" stroke-opacity="1.000000" stroke-width="0.500000"/>
		<rect id="Frame 2043683102" rx="19.750000" width="96.103348" height="128.304474" transform="translate(336.339844 106.547363) rotate(10.000001)" fill="#BCEC30" fill-opacity="1.000000"/>
		<path id="?" d="M369.51 178.05Q368.29 179.31 367.9 181.5L375.71 182.88Q375.83 182.18 376.19 181.62Q376.43 181.23 376.79 180.92Q377.65 180.14 379.37 179.13Q380.94 178.19 381.95 177.4Q382.98 176.59 383.83 175.32Q384.7 174.05 385.02 172.26Q385.38 170.24 384.8 168.53Q384.27 166.93 382.91 165.61Q380.12 162.87 374.9 161.95Q370.25 161.13 366.64 162.27Q364.38 162.98 362.61 164.34Q361.57 165.14 360.71 166.16L366.63 170.82Q367.41 169.91 368.38 169.35Q368.84 169.08 369.35 168.9Q369.79 168.73 370.24 168.64Q371.41 168.4 372.68 168.62Q374.38 168.92 375.32 169.88Q375.84 170.41 376 171.04Q376.14 171.55 376.04 172.12Q376 172.35 375.92 172.57Q375.68 173.22 375.11 173.75Q374.35 174.44 372.88 175.41Q370.73 176.79 369.51 178.05ZM367.27 192.69Q368.28 193.51 369.76 193.77Q371.34 194.05 372.63 193.57Q373.14 193.38 373.6 193.07Q374.43 192.51 374.93 191.74Q375.41 191 375.58 190.05Q375.78 188.91 375.48 187.93Q375.25 187.2 374.75 186.56Q374.48 186.21 374.16 185.92Q373.07 184.94 371.38 184.65Q369.66 184.34 368.3 184.91Q367.92 185.06 367.57 185.29Q366.91 185.71 366.46 186.3Q365.82 187.13 365.61 188.29Q365.45 189.24 365.64 190.1Q365.84 191 366.44 191.81Q366.81 192.31 367.27 192.69Z" fill="#FFFFFF" fill-opacity="1.000000" fill-rule="evenodd"/>
		<path id="?" d="M367.9 181.5Q368.29 179.31 369.51 178.05Q370.73 176.79 372.88 175.41Q374.35 174.44 375.11 173.75Q375.87 173.04 376.04 172.12Q376.26 170.85 375.32 169.88Q374.38 168.92 372.68 168.62Q370.92 168.31 369.35 168.9Q367.77 169.48 366.63 170.82L360.71 166.16Q363.05 163.4 366.64 162.27Q370.25 161.13 374.9 161.95Q380.12 162.87 382.91 165.61Q385.71 168.35 385.02 172.26Q384.7 174.05 383.83 175.32Q382.98 176.59 381.95 177.4Q380.94 178.19 379.37 179.13Q377.65 180.14 376.79 180.92Q375.92 181.69 375.71 182.88L367.9 181.5ZM369.76 193.77Q367.61 193.39 366.44 191.81Q365.27 190.22 365.61 188.29Q365.96 186.31 367.57 185.29Q369.18 184.26 371.38 184.65Q373.57 185.03 374.75 186.56Q375.93 188.07 375.58 190.05Q375.24 191.98 373.6 193.07Q371.96 194.16 369.76 193.77Z" stroke="#202027" stroke-opacity="1.000000" stroke-width="0.464242"/>
		<rect id="Frame 2043683102" rx="19.750000" width="96.103348" height="128.304474" transform="translate(336.339844 106.547363) rotate(10.000001)" stroke="#202027" stroke-opacity="1.000000" stroke-width="0.500000"/>
		<rect id="Frame 2043683109" rx="19.750000" width="96.103348" height="128.304474" transform="translate(-89.875000 167.842529) rotate(10.000001)" fill="#BCEC30" fill-opacity="1.000000"/>
		<path id="?" d="M-56.71 239.35Q-57.93 240.6 -58.32 242.8L-50.51 244.17Q-50.38 243.47 -50.03 242.92Q-49.78 242.53 -49.43 242.21Q-48.56 241.44 -46.85 240.42Q-45.28 239.48 -44.26 238.69Q-43.24 237.89 -42.38 236.61Q-41.52 235.34 -41.2 233.55Q-40.84 231.53 -41.41 229.82Q-41.95 228.23 -43.3 226.91Q-46.1 224.17 -51.32 223.25Q-55.97 222.43 -59.57 223.56Q-61.84 224.28 -63.61 225.64Q-64.64 226.43 -65.51 227.45L-59.58 232.11Q-58.81 231.2 -57.83 230.64Q-57.37 230.38 -56.87 230.19Q-56.43 230.03 -55.98 229.94Q-54.81 229.69 -53.54 229.92Q-51.83 230.22 -50.9 231.18Q-50.38 231.71 -50.21 232.33Q-50.08 232.84 -50.18 233.42Q-50.22 233.64 -50.3 233.86Q-50.53 234.51 -51.11 235.04Q-51.86 235.74 -53.34 236.7Q-55.48 238.08 -56.71 239.35ZM-58.95 253.98Q-57.93 254.81 -56.46 255.07Q-54.88 255.35 -53.59 254.86Q-53.08 254.67 -52.62 254.36Q-51.78 253.81 -51.28 253.03Q-50.8 252.29 -50.64 251.34Q-50.44 250.21 -50.74 249.23Q-50.96 248.5 -51.47 247.85Q-51.73 247.5 -52.05 247.22Q-53.14 246.24 -54.84 245.94Q-56.56 245.64 -57.91 246.2Q-58.29 246.36 -58.65 246.58Q-59.31 247.01 -59.76 247.59Q-60.4 248.42 -60.6 249.59Q-60.77 250.53 -60.57 251.4Q-60.37 252.29 -59.78 253.1Q-59.41 253.6 -58.95 253.98Z" fill="#FFFFFF" fill-opacity="1.000000" fill-rule="evenodd"/>
		<path id="?" d="M-58.32 242.8Q-57.93 240.6 -56.71 239.35Q-55.48 238.08 -53.34 236.7Q-51.86 235.74 -51.11 235.04Q-50.34 234.34 -50.18 233.42Q-49.95 232.14 -50.9 231.18Q-51.83 230.22 -53.54 229.92Q-55.3 229.61 -56.87 230.19Q-58.44 230.78 -59.58 232.11L-65.51 227.45Q-63.17 224.7 -59.57 223.56Q-55.97 222.43 -51.32 223.25Q-46.1 224.17 -43.3 226.91Q-40.51 229.64 -41.2 233.55Q-41.52 235.34 -42.38 236.61Q-43.24 237.89 -44.26 238.69Q-45.28 239.48 -46.85 240.42Q-48.56 241.44 -49.43 242.21Q-50.29 242.99 -50.51 244.17L-58.32 242.8ZM-56.46 255.07Q-58.61 254.69 -59.78 253.1Q-60.94 251.52 -60.6 249.59Q-60.25 247.61 -58.65 246.58Q-57.04 245.55 -54.84 245.94Q-52.64 246.33 -51.47 247.85Q-50.29 249.36 -50.64 251.34Q-50.98 253.27 -52.62 254.36Q-54.26 255.46 -56.46 255.07Z" stroke="#202027" stroke-opacity="1.000000" stroke-width="0.464242"/>
		<rect id="Frame 2043683109" rx="19.750000" width="96.103348" height="128.304474" transform="translate(-89.875000 167.842529) rotate(10.000001)" stroke="#202027" stroke-opacity="1.000000" stroke-width="0.500000"/>
		<rect id="Frame 2043683105" rx="19.750000" width="96.103348" height="128.304474" transform="translate(10.845703 185.602051) rotate(10.000001)" fill="#BCEC30" fill-opacity="1.000000"/>
		<path id="?" d="M43.26 257.38Q41.75 258.93 41.27 261.66L50.95 263.36Q51.11 262.49 51.54 261.8Q51.85 261.32 52.29 260.93Q53.36 259.97 55.49 258.71Q57.43 257.55 58.69 256.57Q59.96 255.57 61.02 253.99Q62.1 252.41 62.49 250.2Q62.93 247.69 62.22 245.58Q61.56 243.6 59.88 241.96Q56.41 238.57 49.94 237.43Q44.18 236.41 39.71 237.81Q36.9 238.7 34.71 240.39Q33.43 241.37 32.35 242.64L39.7 248.41Q40.66 247.29 41.87 246.59Q42.44 246.26 43.07 246.03Q43.61 245.83 44.17 245.71Q45.62 245.41 47.19 245.69Q49.31 246.06 50.46 247.25Q51.11 247.91 51.31 248.68Q51.48 249.31 51.36 250.03Q51.31 250.31 51.21 250.58Q50.92 251.39 50.2 252.04Q49.27 252.91 47.44 254.1Q44.78 255.81 43.26 257.38ZM40.49 275.52Q41.75 276.54 43.58 276.87Q45.53 277.21 47.13 276.61Q47.76 276.37 48.33 275.99Q49.37 275.3 49.99 274.35Q50.58 273.42 50.79 272.25Q51.04 270.84 50.67 269.63Q50.39 268.72 49.76 267.92Q49.43 267.49 49.03 267.13Q47.68 265.92 45.58 265.55Q43.45 265.18 41.77 265.88Q41.3 266.07 40.86 266.35Q40.04 266.87 39.48 267.6Q38.69 268.63 38.44 270.07Q38.23 271.24 38.47 272.31Q38.72 273.43 39.46 274.43Q39.91 275.05 40.49 275.52Z" fill="#FFFFFF" fill-opacity="1.000000" fill-rule="evenodd"/>
		<path id="?" d="M41.27 261.66Q41.75 258.93 43.26 257.38Q44.78 255.81 47.44 254.1Q49.27 252.91 50.2 252.04Q51.15 251.17 51.36 250.03Q51.64 248.45 50.46 247.25Q49.31 246.06 47.19 245.69Q45.02 245.31 43.07 246.03Q41.12 246.76 39.7 248.41L32.35 242.64Q35.26 239.22 39.71 237.81Q44.18 236.41 49.94 237.43Q56.41 238.57 59.88 241.96Q63.35 245.35 62.49 250.2Q62.1 252.41 61.02 253.99Q59.96 255.57 58.69 256.57Q57.43 257.55 55.49 258.71Q53.36 259.97 52.29 260.93Q51.21 261.89 50.95 263.36L41.27 261.66ZM43.58 276.87Q40.91 276.4 39.46 274.43Q38.01 272.46 38.44 270.07Q38.87 267.62 40.86 266.35Q42.86 265.07 45.58 265.55Q48.3 266.03 49.76 267.92Q51.22 269.79 50.79 272.25Q50.37 274.64 48.33 275.99Q46.3 277.35 43.58 276.87Z" stroke="#202027" stroke-opacity="1.000000" stroke-width="0.464242"/>
		<rect id="Frame 2043683105" rx="19.750000" width="96.103348" height="128.304474" transform="translate(10.845703 185.602051) rotate(10.000001)" stroke="#202027" stroke-opacity="1.000000" stroke-width="0.500000"/>
		<rect id="Frame 2043683106" rx="19.750000" width="96.103348" height="128.304474" transform="translate(111.565430 203.361816) rotate(10.000001)" fill="#BCEC30" fill-opacity="1.000000"/>
		<path id="?" d="M143.98 275.14Q142.47 276.69 141.99 279.42L151.67 281.12Q151.83 280.25 152.26 279.56Q152.57 279.08 153.01 278.69Q154.08 277.73 156.21 276.47Q158.16 275.31 159.41 274.32Q160.68 273.33 161.74 271.75Q162.82 270.17 163.21 267.96Q163.65 265.45 162.94 263.34Q162.28 261.36 160.6 259.72Q157.13 256.32 150.67 255.19Q144.9 254.17 140.43 255.57Q137.63 256.46 135.43 258.15Q134.15 259.13 133.07 260.4L140.42 266.17Q141.38 265.04 142.59 264.35Q143.16 264.02 143.79 263.79Q144.33 263.59 144.89 263.47Q146.34 263.17 147.91 263.45Q150.03 263.82 151.19 265.01Q151.83 265.67 152.03 266.44Q152.2 267.07 152.08 267.79Q152.03 268.07 151.93 268.34Q151.64 269.15 150.92 269.8Q149.99 270.66 148.16 271.86Q145.5 273.57 143.98 275.14ZM141.21 293.28Q142.47 294.3 144.3 294.63Q146.25 294.97 147.86 294.37Q148.48 294.13 149.05 293.75Q150.09 293.06 150.71 292.1Q151.3 291.18 151.51 290.01Q151.76 288.6 151.39 287.39Q151.11 286.48 150.48 285.68Q150.15 285.25 149.75 284.89Q148.4 283.68 146.3 283.31Q144.17 282.94 142.49 283.64Q142.02 283.83 141.58 284.11Q140.76 284.63 140.2 285.36Q139.41 286.39 139.16 287.83Q138.95 289 139.19 290.07Q139.44 291.19 140.18 292.19Q140.64 292.81 141.21 293.28Z" fill="#FFFFFF" fill-opacity="1.000000" fill-rule="evenodd"/>
		<path id="?" d="M141.99 279.42Q142.47 276.69 143.98 275.14Q145.5 273.57 148.16 271.86Q149.99 270.66 150.92 269.8Q151.88 268.93 152.08 267.79Q152.36 266.21 151.19 265.01Q150.03 263.82 147.91 263.45Q145.74 263.07 143.79 263.79Q141.84 264.51 140.42 266.17L133.07 260.4Q135.98 256.98 140.43 255.57Q144.9 254.17 150.67 255.19Q157.13 256.32 160.6 259.72Q164.07 263.11 163.21 267.96Q162.82 270.17 161.74 271.75Q160.68 273.33 159.41 274.32Q158.16 275.31 156.21 276.47Q154.08 277.73 153.01 278.69Q151.93 279.65 151.67 281.12L141.99 279.42ZM144.3 294.63Q141.63 294.16 140.18 292.19Q138.73 290.22 139.16 287.83Q139.59 285.38 141.58 284.11Q143.58 282.83 146.3 283.31Q149.02 283.79 150.48 285.68Q151.95 287.55 151.51 290.01Q151.09 292.4 149.05 293.75Q147.02 295.11 144.3 294.63Z" stroke="#202027" stroke-opacity="1.000000" stroke-width="0.464242"/>
		<rect id="Frame 2043683106" rx="19.750000" width="96.103348" height="128.304474" transform="translate(111.565430 203.361816) rotate(10.000001)" stroke="#202027" stroke-opacity="1.000000" stroke-width="0.500000"/>
		<rect id="Frame 2043683107" rx="19.750000" width="96.103348" height="128.304474" transform="translate(212.286133 221.121582) rotate(10.000001)" fill="#BCEC30" fill-opacity="1.000000"/>
		<path id="?" d="M245.45 292.63Q244.23 293.88 243.84 296.08L251.66 297.45Q251.78 296.75 252.13 296.2Q252.38 295.81 252.73 295.49Q253.6 294.71 255.32 293.7Q256.88 292.76 257.9 291.97Q258.92 291.17 259.78 289.89Q260.65 288.62 260.96 286.83Q261.32 284.81 260.75 283.1Q260.21 281.51 258.86 280.18Q256.06 277.45 250.84 276.53Q246.19 275.71 242.59 276.84Q240.32 277.56 238.55 278.92Q237.52 279.71 236.65 280.73L242.58 285.39Q243.35 284.48 244.33 283.92Q244.79 283.66 245.29 283.47Q245.73 283.31 246.18 283.22Q247.35 282.97 248.62 283.2Q250.33 283.5 251.26 284.46Q251.78 284.99 251.95 285.61Q252.08 286.12 251.98 286.69Q251.94 286.92 251.86 287.14Q251.63 287.79 251.05 288.32Q250.3 289.02 248.82 289.98Q246.68 291.36 245.45 292.63ZM243.22 307.26Q244.23 308.09 245.7 308.35Q247.28 308.63 248.58 308.14Q249.08 307.95 249.54 307.64Q250.38 307.09 250.88 306.31Q251.36 305.57 251.52 304.62Q251.73 303.49 251.42 302.51Q251.2 301.78 250.7 301.13Q250.43 300.78 250.11 300.5Q249.02 299.52 247.32 299.22Q245.6 298.92 244.25 299.48Q243.87 299.64 243.52 299.86Q242.85 300.29 242.4 300.87Q241.76 301.7 241.56 302.87Q241.39 303.81 241.59 304.68Q241.79 305.57 242.38 306.38Q242.75 306.88 243.22 307.26Z" fill="#FFFFFF" fill-opacity="1.000000" fill-rule="evenodd"/>
		<path id="?" d="M243.84 296.08Q244.23 293.88 245.45 292.63Q246.68 291.36 248.82 289.98Q250.3 289.02 251.05 288.32Q251.82 287.62 251.98 286.69Q252.21 285.42 251.26 284.46Q250.33 283.5 248.62 283.2Q246.87 282.89 245.29 283.47Q243.72 284.06 242.58 285.39L236.65 280.73Q239 277.97 242.59 276.84Q246.19 275.71 250.84 276.53Q256.06 277.45 258.86 280.18Q261.66 282.92 260.96 286.83Q260.65 288.62 259.78 289.89Q258.92 291.17 257.9 291.97Q256.88 292.76 255.32 293.7Q253.6 294.71 252.73 295.49Q251.87 296.26 251.66 297.45L243.84 296.08ZM245.7 308.35Q243.55 307.97 242.38 306.38Q241.22 304.79 241.56 302.87Q241.91 300.88 243.52 299.86Q245.12 298.83 247.32 299.22Q249.52 299.61 250.7 301.13Q251.88 302.64 251.52 304.62Q251.18 306.55 249.54 307.64Q247.9 308.74 245.7 308.35Z" stroke="#202027" stroke-opacity="1.000000" stroke-width="0.464242"/>
		<rect id="Frame 2043683107" rx="19.750000" width="96.103348" height="128.304474" transform="translate(212.286133 221.121582) rotate(10.000001)" stroke="#202027" stroke-opacity="1.000000" stroke-width="0.500000"/>
		<rect id="Frame 2043683108" rx="19.750000" width="96.103348" height="128.304474" transform="translate(313.005859 238.881104) rotate(10.000001)" fill="#BCEC30" fill-opacity="1.000000"/>
		<path id="?" d="M346.17 310.39Q344.95 311.64 344.56 313.84L352.38 315.21Q352.5 314.51 352.85 313.96Q353.1 313.57 353.45 313.25Q354.32 312.47 356.03 311.46Q357.6 310.52 358.62 309.73Q359.64 308.93 360.5 307.65Q361.37 306.38 361.68 304.59Q362.04 302.57 361.47 300.86Q360.93 299.27 359.58 297.94Q356.78 295.21 351.56 294.29Q346.91 293.47 343.31 294.6Q341.04 295.32 339.27 296.68Q338.24 297.47 337.37 298.49L343.3 303.15Q344.07 302.24 345.05 301.68Q345.51 301.42 346.01 301.23Q346.45 301.07 346.9 300.98Q348.07 300.73 349.34 300.96Q351.05 301.26 351.98 302.22Q352.5 302.75 352.67 303.37Q352.8 303.88 352.7 304.45Q352.66 304.68 352.58 304.9Q352.35 305.55 351.77 306.08Q351.02 306.78 349.54 307.74Q347.4 309.12 346.17 310.39ZM343.94 325.02Q344.95 325.85 346.42 326.11Q348 326.39 349.3 325.9Q349.8 325.71 350.26 325.4Q351.1 324.85 351.6 324.07Q352.08 323.33 352.24 322.38Q352.45 321.25 352.14 320.27Q351.92 319.54 351.42 318.89Q351.15 318.54 350.83 318.26Q349.74 317.28 348.04 316.98Q346.32 316.68 344.97 317.24Q344.59 317.4 344.24 317.62Q343.57 318.04 343.12 318.63Q342.48 319.46 342.28 320.63Q342.11 321.57 342.31 322.44Q342.51 323.33 343.1 324.14Q343.47 324.64 343.94 325.02Z" fill="#FFFFFF" fill-opacity="1.000000" fill-rule="evenodd"/>
		<path id="?" d="M344.56 313.84Q344.95 311.64 346.17 310.39Q347.4 309.12 349.54 307.74Q351.02 306.78 351.77 306.08Q352.54 305.38 352.7 304.45Q352.93 303.18 351.98 302.22Q351.05 301.26 349.34 300.96Q347.59 300.65 346.01 301.23Q344.44 301.82 343.3 303.15L337.37 298.49Q339.72 295.73 343.31 294.6Q346.91 293.47 351.56 294.29Q356.78 295.21 359.58 297.94Q362.38 300.68 361.68 304.59Q361.37 306.38 360.5 307.65Q359.64 308.93 358.62 309.73Q357.6 310.52 356.03 311.46Q354.32 312.47 353.45 313.25Q352.59 314.02 352.38 315.21L344.56 313.84ZM346.42 326.11Q344.27 325.73 343.1 324.14Q341.94 322.55 342.28 320.63Q342.63 318.64 344.24 317.62Q345.84 316.59 348.04 316.98Q350.24 317.37 351.42 318.89Q352.6 320.4 352.24 322.38Q351.9 324.31 350.26 325.4Q348.62 326.5 346.42 326.11Z" stroke="#202027" stroke-opacity="1.000000" stroke-width="0.464242"/>
		<rect id="Frame 2043683108" rx="19.750000" width="96.103348" height="128.304474" transform="translate(313.005859 238.881104) rotate(10.000001)" stroke="#202027" stroke-opacity="1.000000" stroke-width="0.500000"/>
		<g filter="url(#filter_17_6097_dd)">
			<rect id="Frame 2043683065" rx="20.250000" width="125.842880" height="167.623871" transform="translate(123.647461 49.092773) rotate(10.000000)" fill="#E1FF8F" fill-opacity="1.000000"/>
			<rect id="Frame 2043683065" rx="20.250000" width="125.842880" height="167.623871" transform="translate(123.647461 49.092773) rotate(10.000000)" stroke="#202027" stroke-opacity="1.000000" stroke-width="0.500000"/>
			<rect id="Frame 2043683065" rx="20.250000" width="125.842880" height="167.623871" transform="translate(123.647461 49.092773) rotate(10.000000)" stroke="#000000" stroke-opacity="0.200000" stroke-width="0.500000"/>
		</g>
		<path id="?" d="M165.92 143.2Q163.91 145.28 163.27 148.91L176.18 151.18Q176.38 150.03 176.97 149.11Q177.37 148.46 177.96 147.94Q179.39 146.66 182.23 144.98Q184.82 143.43 186.5 142.12Q188.19 140.79 189.61 138.69Q191.04 136.58 191.56 133.63Q192.15 130.29 191.2 127.47Q190.32 124.83 188.08 122.64Q183.46 118.12 174.84 116.6Q167.15 115.24 161.19 117.12Q157.45 118.3 154.52 120.55Q152.81 121.86 151.38 123.55L161.17 131.25Q162.46 129.75 164.07 128.82Q164.83 128.38 165.66 128.08Q166.39 127.81 167.13 127.65Q169.07 127.25 171.17 127.62Q173.98 128.12 175.53 129.7Q176.39 130.58 176.66 131.61Q176.89 132.45 176.72 133.4Q176.65 133.78 176.52 134.14Q176.13 135.21 175.18 136.09Q173.94 137.24 171.5 138.84Q167.95 141.12 165.92 143.2ZM162.23 167.39Q163.9 168.76 166.34 169.19Q168.95 169.65 171.09 168.85Q171.92 168.53 172.69 168.02Q174.07 167.11 174.89 165.83Q175.68 164.6 175.96 163.03Q176.29 161.16 175.8 159.54Q175.43 158.33 174.59 157.26Q174.15 156.69 173.62 156.21Q171.82 154.6 169.01 154.1Q166.18 153.6 163.93 154.53Q163.31 154.79 162.73 155.17Q161.63 155.86 160.89 156.83Q159.83 158.21 159.49 160.13Q159.21 161.69 159.54 163.12Q159.87 164.6 160.86 165.94Q161.46 166.76 162.23 167.39Z" fill="#FFFFFF" fill-opacity="1.000000" fill-rule="evenodd"/>
		<path id="?" d="M163.27 148.91Q163.91 145.28 165.92 143.2Q167.95 141.12 171.5 138.84Q173.94 137.24 175.18 136.09Q176.45 134.92 176.72 133.4Q177.09 131.3 175.53 129.7Q173.98 128.12 171.17 127.62Q168.26 127.11 165.66 128.08Q163.06 129.04 161.17 131.25L151.38 123.55Q155.25 118.99 161.19 117.12Q167.15 115.24 174.84 116.6Q183.46 118.12 188.08 122.64Q192.71 127.16 191.56 133.63Q191.04 136.58 189.61 138.69Q188.19 140.79 186.5 142.12Q184.82 143.43 182.23 144.98Q179.39 146.66 177.96 147.94Q176.53 149.22 176.18 151.18L163.27 148.91ZM166.34 169.19Q162.78 168.56 160.86 165.94Q158.93 163.32 159.49 160.13Q160.07 156.85 162.73 155.17Q165.38 153.46 169.01 154.1Q172.65 154.74 174.59 157.26Q176.54 159.76 175.96 163.03Q175.4 166.22 172.69 168.02Q169.97 169.83 166.34 169.19Z" stroke="#202027" stroke-opacity="1.000000" stroke-width="0.500000"/>
	</g>
</svg>
