<svg width="3220.000000" height="90.000000" viewBox="0 0 3220 90" fill="none" xmlns="http://www.w3.org/2000/svg" xmlns:xlink="http://www.w3.org/1999/xlink">
	<desc>
			Created with Pixso.
	</desc>
	<defs>
		<filter id="filter_22_2251_dd" x="0.000000" y="0.000000" width="3220.000000" height="90.000000" filterUnits="userSpaceOnUse" color-interpolation-filters="sRGB">
			<feFlood flood-opacity="0" result="BackgroundImageFix"/>
			<feGaussianBlur in="BackgroundImage" stdDeviation="16.6667"/>
			<feComposite in2="SourceAlpha" operator="in" result="effect_backgroundBlur_1"/>
			<feBlend mode="normal" in="SourceGraphic" in2="effect_backgroundBlur_1" result="shape"/>
		</filter>
		<clipPath id="clip22_2251">
			<rect id="Полоса для анимации" rx="0.000000" width="3219.000000" height="89.000000" transform="translate(0.500000 0.500000)" fill="white" fill-opacity="0"/>
		</clipPath>
	</defs>
	<g filter="url(#filter_22_2251_dd)">
		<rect id="Полоса для анимации" rx="0.000000" width="3219.000000" height="89.000000" transform="translate(0.500000 0.500000)" fill="#BCEC30" fill-opacity="1.000000"/>
		<g clip-path="url(#clip22_2251)">
			<path id="Викторина" d="M148.1 53.26Q150.48 54.35 153.37 54.35Q156.28 54.35 158.68 53.23Q158.96 53.1 159.24 52.95Q160.81 52.1 161.98 50.87Q162.75 50.05 163.35 49.06Q163.77 48.37 164.07 47.64Q164.85 45.72 164.85 43.49Q164.85 41.29 164.09 39.4Q163.78 38.64 163.35 37.93Q162.75 36.93 161.96 36.1Q160.8 34.89 159.24 34.05Q158.94 33.89 158.64 33.75Q156.26 32.64 153.37 32.64Q150.51 32.64 148.14 33.72Q147.8 33.87 147.47 34.05Q145.88 34.9 144.71 36.15Q143.94 36.96 143.36 37.93Q142.96 38.59 142.67 39.3Q141.88 41.23 141.88 43.49Q141.88 45.78 142.69 47.73Q142.97 48.42 143.36 49.06Q143.94 50.02 144.69 50.83Q145.87 52.08 147.47 52.95Q147.78 53.11 148.1 53.26ZM69.08 44.89Q68.06 43.61 66.16 43.05Q67.34 42.47 68.08 41.53Q68.22 41.36 68.34 41.17Q68.52 40.9 68.65 40.61Q69.12 39.63 69.12 38.42Q69.12 36.97 68.49 35.89Q67.98 35.03 67.08 34.41Q65.04 33 61.39 33L51.6 33L51.6 54L61.95 54Q65.88 54 68 52.43Q68.91 51.77 69.42 50.88Q70.12 49.68 70.12 48.08Q70.12 46.57 69.46 45.43Q69.29 45.16 69.09 44.91Q69.09 44.9 69.08 44.89ZM79.99 33L75.15 33L75.15 54L79.74 54L89.76 40.34L89.76 54L94.56 54L94.56 33L90.01 33L79.99 46.68L79.99 33ZM105.76 45.54L109.11 45.54L114.58 54L120.09 54L113.02 43.13L119.89 33L114.75 33L109.24 41.49L105.76 41.49L105.76 33L100.92 33L100.92 54L105.76 54L105.76 45.54ZM132.66 36.95L139.39 36.95L139.39 33L121.17 33L121.17 36.95L127.87 36.95L127.87 54L132.66 54L132.66 36.95ZM183.73 33.93Q181.68 33 178.89 33L169.8 33L169.8 54L174.67 54L174.67 48.2L178.89 48.2Q181.68 48.2 183.73 47.29Q185.35 46.57 186.38 45.36Q186.66 45.03 186.9 44.66Q187.06 44.41 187.19 44.15Q188.01 42.6 188.01 40.61Q188.01 38.51 187.11 36.92Q187.01 36.74 186.9 36.57Q186.69 36.24 186.44 35.95Q185.4 34.68 183.73 33.93ZM197.26 33L192.42 33L192.42 54L197.02 54L207.03 40.34L207.03 54L211.83 54L211.83 33L207.28 33L197.26 46.68L197.26 33ZM237.52 54L237.52 33L232.65 33L232.65 41.27L223.12 41.27L223.12 33L218.25 33L218.25 54L223.12 54L223.12 45.38L232.65 45.38L232.65 54L237.52 54ZM248.44 49.5L258.19 49.5L260.05 54L265.14 54L255.75 33L250.96 33L241.6 54L246.58 54L248.44 49.5ZM60.96 41.7L56.44 41.7L56.44 36.59L60.96 36.59Q62.52 36.59 63.35 37.26Q63.61 37.47 63.79 37.73Q64.18 38.3 64.18 39.14Q64.18 40.09 63.72 40.7Q63.57 40.89 63.37 41.05Q62.55 41.7 60.96 41.7ZM155.98 49.72Q154.78 50.22 153.37 50.22Q151.93 50.22 150.71 49.7Q150.35 49.55 150.01 49.36Q149.32 48.96 148.76 48.43Q148.11 47.8 147.65 46.98Q147.57 46.84 147.5 46.69Q146.79 45.27 146.79 43.49Q146.79 41.75 147.48 40.34Q147.56 40.17 147.65 40.01Q148.13 39.16 148.81 38.52Q149.34 38.01 150.01 37.63Q150.35 37.44 150.71 37.29Q151.93 36.78 153.37 36.78Q154.78 36.78 155.98 37.27Q156.36 37.43 156.72 37.63Q157.39 38.01 157.93 38.52Q158.6 39.16 159.08 40.01Q159.17 40.17 159.25 40.34Q159.94 41.75 159.94 43.49Q159.94 45.27 159.23 46.69Q159.16 46.84 159.08 46.98Q158.62 47.8 157.97 48.43Q157.42 48.96 156.72 49.36Q156.36 49.57 155.98 49.72ZM181.95 43.3Q180.81 44.25 178.62 44.25L174.67 44.25L174.67 36.95L178.62 36.95Q180.81 36.95 181.95 37.9Q182.25 38.16 182.48 38.47Q183.09 39.32 183.09 40.61Q183.09 41.86 182.5 42.7Q182.27 43.03 181.95 43.3ZM253.33 37.76L256.66 45.81L250 45.81L253.33 37.76ZM64.69 49.37Q63.89 50.39 61.78 50.39L56.44 50.39L56.44 45.08L61.78 45.08Q63.93 45.08 64.73 46.12Q65.2 46.73 65.2 47.7Q65.2 48.73 64.69 49.37Z" fill="#202027" fill-opacity="1.000000" fill-rule="evenodd"/>
			<path id="Star" d="M335 27L330.13 40.13L317 45L330.13 49.86L335 63L339.86 49.86L353 45L339.86 40.13L335 27Z" fill="#202027" fill-opacity="1.000000" fill-rule="evenodd"/>
			<path id="угадай число" d="M525.58 29.91Q526.96 31.64 530.5 31.64Q533.41 31.64 534.85 30.48Q535.2 30.19 535.47 29.83Q536.3 28.75 536.32 27.06L532.99 27.06Q532.97 27.98 532.5 28.52Q532.42 28.61 532.33 28.69Q531.7 29.25 530.5 29.25Q529.16 29.25 528.54 28.58Q528.04 28.03 528.01 27.06L524.68 27.06Q524.7 28.83 525.58 29.91ZM610.77 53.36Q613.05 54.35 615.76 54.35Q618.5 54.35 620.71 53.39Q622.03 52.82 623.1 51.95Q623.83 51.35 624.44 50.6L621.32 47.73Q620.13 49.11 618.63 49.73Q617.43 50.22 616.03 50.22Q614.29 50.22 612.88 49.53Q612.72 49.45 612.56 49.36Q611.77 48.92 611.16 48.31Q610.59 47.72 610.17 46.98Q610.09 46.84 610.02 46.69Q609.31 45.27 609.31 43.49Q609.31 41.75 610 40.34Q610.08 40.17 610.17 40.01Q610.6 39.24 611.21 38.64Q611.8 38.05 612.56 37.63Q612.72 37.54 612.88 37.46Q614.29 36.78 616.03 36.78Q617.46 36.78 618.67 37.28Q620.15 37.89 621.32 39.24L624.44 36.36Q623.86 35.67 623.18 35.1Q622.09 34.19 620.73 33.6Q618.53 32.64 615.79 32.64Q612.97 32.64 610.63 33.7Q610.29 33.86 609.96 34.04Q608.49 34.83 607.37 35.96Q606.52 36.83 605.88 37.9Q605.55 38.45 605.29 39.03Q604.4 41.06 604.4 43.49Q604.4 45.9 605.28 47.93Q605.54 48.52 605.88 49.09Q606.51 50.15 607.35 51.01Q608.47 52.16 609.96 52.96Q610.36 53.18 610.77 53.36ZM658.23 53.26Q660.61 54.35 663.5 54.35Q666.42 54.35 668.81 53.23Q669.09 53.1 669.37 52.95Q670.94 52.1 672.11 50.87Q672.88 50.05 673.48 49.06Q673.9 48.37 674.2 47.64Q674.98 45.72 674.98 43.49Q674.98 41.29 674.22 39.4Q673.91 38.64 673.48 37.93Q672.88 36.93 672.09 36.1Q670.93 34.89 669.37 34.05Q669.07 33.89 668.77 33.75Q666.39 32.64 663.5 32.64Q660.64 32.64 658.27 33.72Q657.93 33.87 657.6 34.05Q656.01 34.9 654.84 36.15Q654.07 36.96 653.49 37.93Q653.09 38.59 652.8 39.3Q652.01 41.23 652.01 43.49Q652.01 45.78 652.82 47.73Q653.1 48.42 653.49 49.06Q654.07 50.02 654.82 50.83Q656 52.08 657.6 52.95Q657.91 53.11 658.23 53.26ZM416.62 49.62L425.57 33L420.8 33L415.03 44.28L409.45 33L404.27 33L412.54 48.41L412.37 48.66Q411.77 49.59 411.04 50.03Q410.86 50.13 410.67 50.22Q410.1 50.46 409.42 50.46Q408.59 50.46 407.33 50.06L406.16 53.75Q407.93 54.48 409.58 54.48Q410.48 54.48 411.33 54.26Q412.48 53.96 413.52 53.25Q415.33 52.02 416.62 49.62ZM433.88 36.95L443.87 36.95L443.9 33L429.07 33L429.07 54L433.91 54L433.88 36.95ZM448.46 49.5L458.21 49.5L460.07 54L465.16 54L455.77 33L450.98 33L441.62 54L446.6 54L448.46 49.5ZM491 58.35L491 50.03L488.05 50.03L488.05 33L471.92 33L471.68 39.57Q471.49 44.58 470.71 47.28Q470.12 49.33 468.88 49.86Q468.49 50.02 468.04 50.03L467.21 50.03L467.17 58.35L471.68 58.35L471.68 54L486.49 54L486.49 58.35L491 58.35ZM500.12 49.5L509.87 49.5L511.73 54L516.82 54L507.43 33L502.64 33L493.28 54L498.26 54L500.12 49.5ZM525.65 33L520.81 33L520.81 54L525.4 54L535.42 40.34L535.42 54L540.22 54L540.22 33L535.67 33L525.65 46.68L525.65 33ZM573.59 54L573.59 33L568.78 33L568.78 42.44Q568.23 42.69 567.66 42.87Q566.05 43.37 564.29 43.37Q562.1 43.37 560.94 42.28Q560.86 42.21 560.78 42.12Q559.78 41.03 559.78 39.02L559.78 33L554.99 33L554.99 39.57Q554.99 42.71 556.51 44.64Q556.84 45.05 557.23 45.4Q559.48 47.43 563.71 47.43Q566.05 47.43 568.78 46.44L568.78 54L573.59 54ZM584.84 33L580 33L580 54L584.59 54L594.61 40.34L594.61 54L599.41 54L599.41 33L594.86 33L584.84 46.68L584.84 33ZM647.02 54L647.02 33L630.89 33L630.59 41.51Q630.4 45.89 629.72 47.95Q629.27 49.29 628.36 49.76Q627.89 50 627.28 50Q626.81 50 626.41 49.89L626.11 54Q627.53 54.32 628.52 54.32Q630.37 54.32 631.58 53.45Q631.95 53.18 632.25 52.85Q633.58 51.36 634.15 48.58Q634.73 45.81 634.87 41.33L635.03 36.95L642.23 36.95L642.23 54L647.02 54ZM666.11 49.72Q664.91 50.22 663.5 50.22Q662.06 50.22 660.84 49.7Q660.48 49.55 660.14 49.36Q659.45 48.96 658.89 48.43Q658.24 47.8 657.78 46.98Q657.7 46.84 657.63 46.69Q656.92 45.27 656.92 43.49Q656.92 41.75 657.61 40.34Q657.69 40.17 657.78 40.01Q658.26 39.16 658.94 38.52Q659.47 38.01 660.14 37.63Q660.48 37.44 660.84 37.29Q662.06 36.78 663.5 36.78Q664.91 36.78 666.11 37.27Q666.49 37.43 666.85 37.63Q667.52 38.01 668.06 38.52Q668.73 39.16 669.21 40.01Q669.3 40.17 669.38 40.34Q670.07 41.75 670.07 43.49Q670.07 45.27 669.36 46.69Q669.29 46.84 669.21 46.98Q668.75 47.8 668.1 48.43Q667.55 48.96 666.85 49.36Q666.49 49.57 666.11 49.72ZM475.33 46.3Q475.81 43.76 475.97 40.01L476.06 36.95L483.26 36.95L483.26 50.03L473.87 50.03Q474.86 48.83 475.33 46.3ZM453.35 37.76L456.68 45.81L450.02 45.81L453.35 37.76ZM505.01 37.76L508.34 45.81L501.68 45.81L505.01 37.76Z" fill="#202027" fill-opacity="1.000000" fill-rule="evenodd"/>
			<path id="Star" d="M746 27L741.13 40.13L728 45L741.13 49.86L746 63L750.86 49.86L764 45L750.86 40.13L746 27Z" fill="#202027" fill-opacity="1.000000" fill-rule="evenodd"/>
			<path id="Переверни текст" d="M1106.5 53.36Q1108.78 54.35 1111.49 54.35Q1114.22 54.35 1116.43 53.39Q1117.76 52.82 1118.81 51.95Q1119.55 51.35 1120.16 50.6L1117.04 47.73Q1115.85 49.11 1114.35 49.73Q1113.16 50.22 1111.76 50.22Q1110.02 50.22 1108.61 49.53Q1108.43 49.45 1108.28 49.36Q1107.5 48.92 1106.89 48.31Q1106.31 47.72 1105.89 46.98Q1105.81 46.84 1105.74 46.69Q1105.04 45.27 1105.04 43.49Q1105.04 41.75 1105.72 40.34Q1105.8 40.17 1105.89 40.01Q1106.32 39.24 1106.93 38.64Q1107.53 38.05 1108.28 37.63Q1108.43 37.54 1108.61 37.46Q1110.02 36.78 1111.76 36.78Q1113.18 36.78 1114.4 37.28Q1115.87 37.89 1117.04 39.24L1120.16 36.36Q1119.57 35.67 1118.91 35.1Q1117.81 34.19 1116.44 33.6Q1114.25 32.64 1111.52 32.64Q1108.68 32.64 1106.35 33.7Q1106.01 33.86 1105.68 34.04Q1104.21 34.83 1103.1 35.96Q1102.25 36.83 1101.6 37.9Q1101.27 38.45 1101.02 39.03Q1100.12 41.06 1100.12 43.49Q1100.12 45.9 1101 47.93Q1101.26 48.52 1101.6 49.09Q1102.24 50.15 1103.07 51.01Q1104.19 52.16 1105.68 52.96Q1106.07 53.18 1106.5 53.36ZM836.75 54L836.75 33L817.6 33L817.6 54L822.44 54L822.44 36.95L831.91 36.95L831.91 54L836.75 54ZM859.42 54L859.42 50.1L847.99 50.1L847.99 45.24L857.75 45.24L857.75 41.46L847.99 41.46L847.99 36.89L859.03 36.89L859.03 33L843.16 33L843.16 54L859.42 54ZM878.48 33.93Q876.43 33 873.64 33L864.55 33L864.55 54L869.42 54L869.42 48.2L873.64 48.2Q876.43 48.2 878.48 47.29Q880.1 46.57 881.13 45.36Q881.41 45.03 881.65 44.66Q881.81 44.41 881.94 44.15Q882.76 42.6 882.76 40.61Q882.76 38.51 881.86 36.92Q881.76 36.74 881.65 36.57Q881.44 36.24 881.19 35.95Q880.15 34.68 878.48 33.93ZM903.43 54L903.43 50.1L892 50.1L892 45.24L901.76 45.24L901.76 41.46L892 41.46L892 36.89L903.04 36.89L903.04 33L887.17 33L887.17 54L903.43 54ZM926.04 44.89Q925.02 43.61 923.12 43.05Q924.3 42.47 925.04 41.53Q925.18 41.36 925.3 41.17Q925.48 40.9 925.61 40.61Q926.08 39.63 926.08 38.42Q926.08 36.97 925.45 35.89Q924.94 35.03 924.04 34.41Q922 33 918.35 33L908.56 33L908.56 54L918.91 54Q922.85 54 924.96 52.43Q925.87 51.77 926.38 50.88Q927.08 49.68 927.08 48.08Q927.08 46.57 926.42 45.43Q926.25 45.16 926.05 44.91Q926.05 44.9 926.04 44.89ZM948.37 54L948.37 50.1L936.94 50.1L936.94 45.24L946.7 45.24L946.7 41.46L936.94 41.46L936.94 36.89L947.98 36.89L947.98 33L932.11 33L932.11 54L948.37 54ZM967.43 33.93Q965.38 33 962.59 33L953.5 33L953.5 54L958.37 54L958.37 48.2L962.59 48.2Q965.38 48.2 967.43 47.29Q969.05 46.57 970.08 45.36Q970.36 45.03 970.6 44.66Q970.76 44.41 970.89 44.15Q971.71 42.6 971.71 40.61Q971.71 38.51 970.81 36.92Q970.71 36.74 970.6 36.57Q970.39 36.24 970.14 35.95Q969.1 34.68 967.43 33.93ZM995.39 54L995.39 33L990.52 33L990.52 41.27L980.99 41.27L980.99 33L976.12 33L976.12 54L980.99 54L980.99 45.38L990.52 45.38L990.52 54L995.39 54ZM1006.67 33L1001.84 33L1001.84 54L1006.43 54L1016.45 40.34L1016.45 54L1021.25 54L1021.25 33L1016.69 33L1006.67 46.68L1006.67 33ZM1046.68 36.95L1053.41 36.95L1053.41 33L1035.19 33L1035.19 36.95L1041.89 36.95L1041.89 54L1046.68 54L1046.68 36.95ZM1073.93 54L1073.93 50.1L1062.49 50.1L1062.49 45.24L1072.25 45.24L1072.25 41.46L1062.49 41.46L1062.49 36.89L1073.54 36.89L1073.54 33L1057.67 33L1057.67 54L1073.93 54ZM1083.82 45.54L1087.18 45.54L1092.65 54L1098.17 54L1091.09 43.13L1097.96 33L1092.82 33L1087.31 41.49L1083.82 41.49L1083.82 33L1079 33L1079 54L1083.82 54L1083.82 45.54ZM1133.66 36.95L1140.38 36.95L1140.38 33L1122.17 33L1122.17 36.95L1128.86 36.95L1128.86 54L1133.66 54L1133.66 36.95ZM917.92 41.7L913.4 41.7L913.4 36.59L917.92 36.59Q919.48 36.59 920.31 37.26Q920.57 37.47 920.75 37.73Q921.14 38.3 921.14 39.14Q921.14 40.09 920.68 40.7Q920.53 40.89 920.33 41.05Q919.51 41.7 917.92 41.7ZM876.7 43.3Q875.56 44.25 873.37 44.25L869.42 44.25L869.42 36.95L873.37 36.95Q875.56 36.95 876.7 37.9Q877 38.16 877.23 38.47Q877.84 39.32 877.84 40.61Q877.84 41.86 877.25 42.7Q877.02 43.03 876.7 43.3ZM965.65 43.3Q964.51 44.25 962.32 44.25L958.37 44.25L958.37 36.95L962.32 36.95Q964.51 36.95 965.65 37.9Q965.95 38.16 966.18 38.47Q966.79 39.32 966.79 40.61Q966.79 41.86 966.2 42.7Q965.97 43.03 965.65 43.3ZM921.65 49.37Q920.85 50.39 918.74 50.39L913.4 50.39L913.4 45.08L918.74 45.08Q920.9 45.08 921.69 46.12Q922.16 46.73 922.16 47.7Q922.16 48.73 921.65 49.37Z" fill="#202027" fill-opacity="1.000000" fill-rule="evenodd"/>
			<path id="Star" d="M1210 27L1205.14 40.13L1192 45L1205.14 49.86L1210 63L1214.86 49.86L1228 45L1214.86 40.13L1210 27Z" fill="#202027" fill-opacity="1.000000" fill-rule="evenodd"/>
			<path id="Простая арифметика" d="M1552.82 48.19Q1554.07 46.21 1554.07 43.43Q1554.07 40.8 1552.9 38.87Q1552.25 37.79 1551.24 36.93Q1548.4 34.53 1543.09 34.23L1543.09 32.1L1538.62 32.1L1538.62 34.26Q1533.28 34.59 1530.44 36.94Q1529.47 37.75 1528.84 38.76Q1527.61 40.71 1527.61 43.43Q1527.61 46.08 1528.78 48.01Q1529.43 49.08 1530.44 49.93Q1533.28 52.32 1538.62 52.62L1538.62 54.93L1543.09 54.93L1543.09 52.65Q1548.4 52.38 1551.24 50Q1552.19 49.19 1552.82 48.19ZM1334.84 53.26Q1337.23 54.35 1340.11 54.35Q1343.03 54.35 1345.42 53.23Q1345.71 53.1 1345.99 52.95Q1347.56 52.1 1348.72 50.87Q1349.5 50.05 1350.1 49.06Q1350.51 48.37 1350.82 47.64Q1351.6 45.72 1351.6 43.49Q1351.6 41.29 1350.83 39.4Q1350.53 38.64 1350.1 37.93Q1349.49 36.93 1348.7 36.1Q1347.54 34.89 1345.99 34.05Q1345.69 33.89 1345.38 33.75Q1343.01 32.64 1340.11 32.64Q1337.25 32.64 1334.88 33.72Q1334.54 33.87 1334.21 34.05Q1332.62 34.9 1331.45 36.15Q1330.69 36.96 1330.1 37.93Q1329.71 38.59 1329.42 39.3Q1328.62 41.23 1328.62 43.49Q1328.62 45.78 1329.43 47.73Q1329.72 48.42 1330.1 49.06Q1330.68 50.02 1331.43 50.83Q1332.61 52.08 1334.21 52.95Q1334.52 53.11 1334.84 53.26ZM1361.49 53.36Q1363.77 54.35 1366.48 54.35Q1369.21 54.35 1371.43 53.39Q1372.75 52.82 1373.81 51.95Q1374.54 51.35 1375.15 50.6L1372.03 47.73Q1370.84 49.11 1369.34 49.73Q1368.15 50.22 1366.75 50.22Q1365.01 50.22 1363.6 49.53Q1363.43 49.45 1363.27 49.36Q1362.49 48.92 1361.88 48.31Q1361.3 47.72 1360.88 46.98Q1360.8 46.84 1360.73 46.69Q1360.03 45.27 1360.03 43.49Q1360.03 41.75 1360.71 40.34Q1360.79 40.17 1360.88 40.01Q1361.32 39.24 1361.93 38.64Q1362.52 38.05 1363.27 37.63Q1363.43 37.54 1363.6 37.46Q1365.01 36.78 1366.75 36.78Q1368.17 36.78 1369.39 37.28Q1370.86 37.89 1372.03 39.24L1375.15 36.36Q1374.57 35.67 1373.9 35.1Q1372.8 34.19 1371.44 33.6Q1369.24 32.64 1366.51 32.64Q1363.68 32.64 1361.34 33.7Q1361 33.86 1360.67 34.04Q1359.2 34.83 1358.09 35.96Q1357.24 36.83 1356.59 37.9Q1356.26 38.45 1356.01 39.03Q1355.11 41.06 1355.11 43.49Q1355.11 45.9 1355.99 47.93Q1356.25 48.52 1356.59 49.09Q1357.23 50.15 1358.07 51.01Q1359.19 52.16 1360.67 52.96Q1361.07 53.18 1361.49 53.36ZM1300.75 54L1300.75 33L1281.61 33L1281.61 54L1286.43 54L1286.43 36.95L1295.92 36.95L1295.92 54L1300.75 54ZM1321.1 33.93Q1319.05 33 1316.26 33L1307.17 33L1307.17 54L1312.03 54L1312.03 48.2L1316.26 48.2Q1319.05 48.2 1321.1 47.29Q1322.71 46.57 1323.74 45.36Q1324.02 45.03 1324.26 44.66Q1324.42 44.41 1324.56 44.15Q1325.38 42.6 1325.38 40.61Q1325.38 38.51 1324.47 36.92Q1324.37 36.74 1324.26 36.57Q1324.05 36.24 1323.81 35.95Q1322.76 34.68 1321.1 33.93ZM1388.65 36.95L1395.37 36.95L1395.37 33L1377.16 33L1377.16 36.95L1383.85 36.95L1383.85 54L1388.65 54L1388.65 36.95ZM1403.05 49.5L1412.8 49.5L1414.66 54L1419.76 54L1410.37 33L1405.57 33L1396.21 54L1401.19 54L1403.05 49.5ZM1439.44 54L1439.44 33L1430.38 33Q1427.62 33 1425.58 33.94Q1424.08 34.64 1423.08 35.77Q1422.72 36.18 1422.43 36.64Q1422.41 36.68 1422.39 36.71Q1421.32 38.44 1421.32 40.83Q1421.32 43.21 1422.39 44.94Q1422.42 44.99 1422.45 45.04Q1422.72 45.45 1423.04 45.81Q1424.1 47 1425.73 47.67L1421.35 54L1426.48 54L1430.2 48.41L1434.64 48.41L1434.64 54L1439.44 54ZM1460.05 49.5L1469.8 49.5L1471.66 54L1476.76 54L1467.37 33L1462.57 33L1453.21 54L1458.19 54L1460.05 49.5ZM1494.68 33.93Q1492.63 33 1489.84 33L1480.75 33L1480.75 54L1485.61 54L1485.61 48.2L1489.84 48.2Q1492.63 48.2 1494.68 47.29Q1496.29 46.57 1497.32 45.36Q1497.6 45.03 1497.84 44.66Q1498 44.41 1498.14 44.15Q1498.96 42.6 1498.96 40.61Q1498.96 38.51 1498.05 36.92Q1497.95 36.74 1497.84 36.57Q1497.63 36.24 1497.39 35.95Q1496.34 34.68 1494.68 33.93ZM1508.2 33L1503.37 33L1503.37 54L1507.96 54L1517.98 40.34L1517.98 54L1522.78 54L1522.78 33L1518.22 33L1508.2 46.68L1508.2 33ZM1577.98 41.43L1578.01 54L1582.57 54L1582.54 33L1578.52 33L1570.78 46.05L1562.92 33L1558.9 33L1558.9 54L1563.46 54L1563.46 41.67L1569.64 51.78L1571.8 51.78L1577.98 41.43ZM1605.25 54L1605.25 50.1L1593.81 50.1L1593.81 45.24L1603.57 45.24L1603.57 41.46L1593.81 41.46L1593.81 36.89L1604.86 36.89L1604.86 33L1588.99 33L1588.99 54L1605.25 54ZM1619.71 36.95L1626.43 36.95L1626.43 33L1608.22 33L1608.22 36.95L1614.91 36.95L1614.91 54L1619.71 54L1619.71 36.95ZM1635.52 33L1630.69 33L1630.69 54L1635.28 54L1645.3 40.34L1645.3 54L1650.1 54L1650.1 33L1645.54 33L1635.52 46.68L1635.52 33ZM1661.29 45.54L1664.65 45.54L1670.11 54L1675.63 54L1668.55 43.13L1675.42 33L1670.29 33L1664.77 41.49L1661.29 41.49L1661.29 33L1656.46 33L1656.46 54L1661.29 54L1661.29 45.54ZM1683.16 49.5L1692.91 49.5L1694.77 54L1699.87 54L1690.48 33L1685.68 33L1676.32 54L1681.3 54L1683.16 49.5ZM1342.73 49.72Q1341.52 50.22 1340.11 50.22Q1338.68 50.22 1337.45 49.7Q1337.09 49.55 1336.75 49.36Q1336.06 48.96 1335.5 48.43Q1334.86 47.8 1334.39 46.98Q1334.32 46.84 1334.24 46.69Q1333.54 45.27 1333.54 43.49Q1333.54 41.75 1334.22 40.34Q1334.3 40.17 1334.39 40.01Q1334.87 39.16 1335.55 38.52Q1336.09 38.01 1336.75 37.63Q1337.09 37.44 1337.45 37.29Q1338.68 36.78 1340.11 36.78Q1341.52 36.78 1342.73 37.27Q1343.11 37.43 1343.47 37.63Q1344.13 38.01 1344.67 38.52Q1345.35 39.16 1345.83 40.01Q1345.92 40.17 1346 40.34Q1346.68 41.75 1346.68 43.49Q1346.68 45.27 1345.98 46.69Q1345.91 46.84 1345.83 46.98Q1345.37 47.8 1344.72 48.43Q1344.16 48.96 1343.47 49.36Q1343.11 49.57 1342.73 49.72ZM1319.31 43.3Q1318.18 44.25 1315.99 44.25L1312.03 44.25L1312.03 36.95L1315.99 36.95Q1318.18 36.95 1319.31 37.9Q1319.62 38.16 1319.84 38.47Q1320.45 39.32 1320.45 40.61Q1320.45 41.86 1319.87 42.7Q1319.64 43.03 1319.31 43.3ZM1427.33 37.92Q1428.43 36.95 1430.5 36.95L1434.64 36.95L1434.64 44.58L1430.38 44.58Q1428.34 44.58 1427.29 43.59Q1427.14 43.44 1427.01 43.28Q1426.24 42.33 1426.24 40.77Q1426.24 39.15 1427.04 38.22Q1427.17 38.06 1427.33 37.92ZM1492.89 43.3Q1491.76 44.25 1489.57 44.25L1485.61 44.25L1485.61 36.95L1489.57 36.95Q1491.76 36.95 1492.89 37.9Q1493.2 38.16 1493.42 38.47Q1494.03 39.32 1494.03 40.61Q1494.03 41.86 1493.45 42.7Q1493.22 43.03 1492.89 43.3ZM1407.95 37.76L1411.27 45.81L1404.61 45.81L1407.95 37.76ZM1464.95 37.76L1468.27 45.81L1461.61 45.81L1464.95 37.76ZM1688.06 37.76L1691.38 45.81L1684.72 45.81L1688.06 37.76ZM1533.06 46.21Q1532.32 45.06 1532.32 43.43Q1532.32 41.55 1533.22 40.35Q1533.5 39.98 1533.86 39.67Q1535.41 38.37 1538.62 38.06L1538.62 48.83Q1534.48 48.4 1533.06 46.21ZM1547.83 47.21Q1546.27 48.54 1543.09 48.83L1543.09 38.06Q1547.16 38.42 1548.6 40.55Q1549.39 41.71 1549.39 43.4Q1549.39 45.24 1548.52 46.46Q1548.22 46.87 1547.83 47.21Z" fill="#202027" fill-opacity="1.000000" fill-rule="evenodd"/>
			<path id="Star" d="M1770 27L1765.14 40.13L1752 45L1765.14 49.86L1770 63L1774.86 49.86L1788 45L1774.86 40.13L1770 27Z" fill="#202027" fill-opacity="1.000000" fill-rule="evenodd"/>
			<path id="Камень, ножницы, бумага" d="M2037.82 53.26Q2040.21 54.35 2043.09 54.35Q2046.01 54.35 2048.39 53.23Q2048.69 53.1 2048.97 52.95Q2050.54 52.1 2051.7 50.87Q2052.48 50.05 2053.08 49.06Q2053.49 48.37 2053.8 47.64Q2054.58 45.72 2054.58 43.49Q2054.58 41.29 2053.81 39.4Q2053.51 38.64 2053.08 37.93Q2052.47 36.93 2051.68 36.1Q2050.52 34.89 2048.97 34.05Q2048.67 33.89 2048.36 33.75Q2045.99 32.64 2043.09 32.64Q2040.23 32.64 2037.86 33.72Q2037.52 33.87 2037.19 34.05Q2035.6 34.9 2034.43 36.15Q2033.67 36.96 2033.08 37.93Q2032.69 38.59 2032.4 39.3Q2031.6 41.23 2031.6 43.49Q2031.6 45.78 2032.41 47.73Q2032.7 48.42 2033.08 49.06Q2033.66 50.02 2034.41 50.83Q2035.59 52.08 2037.19 52.95Q2037.5 53.11 2037.82 53.26ZM1846.38 45.54L1849.74 45.54L1855.2 54L1860.72 54L1853.64 43.13L1860.51 33L1855.38 33L1849.86 41.49L1846.38 41.49L1846.38 33L1841.55 33L1841.55 54L1846.38 54L1846.38 45.54ZM1868.25 49.5L1878 49.5L1879.86 54L1884.96 54L1875.57 33L1870.77 33L1861.41 54L1866.39 54L1868.25 49.5ZM1908.03 41.43L1908.06 54L1912.62 54L1912.59 33L1908.57 33L1900.83 46.05L1892.97 33L1888.95 33L1888.95 54L1893.51 54L1893.51 41.67L1899.69 51.78L1901.85 51.78L1908.03 41.43ZM1935.3 54L1935.3 50.1L1923.86 50.1L1923.86 45.24L1933.62 45.24L1933.62 41.46L1923.86 41.46L1923.86 36.89L1934.91 36.89L1934.91 33L1919.04 33L1919.04 54L1935.3 54ZM1959.69 54L1959.69 33L1954.83 33L1954.83 41.27L1945.29 41.27L1945.29 33L1940.43 33L1940.43 54L1945.29 54L1945.29 45.38L1954.83 45.38L1954.83 54L1959.69 54ZM1982.2 41.61Q1980.15 39.9 1976.31 39.9L1970.97 39.9L1970.97 33L1966.14 33L1966.14 54L1975.62 54Q1979.73 54 1981.99 52.12Q1982.55 51.66 1982.96 51.1Q1984.26 49.37 1984.26 46.68Q1984.26 44 1982.95 42.37Q1982.62 41.95 1982.2 41.61ZM2026.62 54L2026.62 33L2021.76 33L2021.76 41.27L2012.22 41.27L2012.22 33L2007.36 33L2007.36 54L2012.22 54L2012.22 45.38L2021.76 45.38L2021.76 54L2026.62 54ZM2074.77 45.54L2077.83 45.54L2082.54 54L2088.14 54L2081.87 43.02L2087.76 33L2082.62 33L2077.88 41.49L2074.77 41.49L2074.77 33L2070 33L2070 41.49L2066.79 41.49L2062.08 33L2056.95 33L2062.86 43.02L2056.56 54L2062.17 54L2066.87 45.54L2070 45.54L2070 54L2074.77 54L2074.77 45.54ZM2110.95 54L2110.95 33L2106.09 33L2106.09 41.27L2096.55 41.27L2096.55 33L2091.69 33L2091.69 54L2096.55 54L2096.55 45.38L2106.09 45.38L2106.09 54L2110.95 54ZM2122.23 33L2117.39 33L2117.39 54L2121.99 54L2132.01 40.34L2132.01 54L2136.81 54L2136.81 33L2132.25 33L2122.23 46.68L2122.23 33ZM2165.25 58.43L2165.25 50.03L2162.25 50.03L2162.25 33L2157.42 33L2157.42 50.03L2148.06 50.03L2148.06 33L2143.23 33L2143.23 54L2160.78 54L2160.78 58.43L2165.25 58.43ZM2185.72 41.61Q2183.67 39.9 2179.83 39.9L2174.49 39.9L2174.49 33L2169.65 33L2169.65 54L2179.13 54Q2183.25 54 2185.51 52.12Q2186.07 51.66 2186.48 51.1Q2187.78 49.37 2187.78 46.68Q2187.78 44 2186.47 42.37Q2186.13 41.95 2185.72 41.61ZM2195.28 33L2190.45 33L2190.45 54L2195.28 54L2195.28 33ZM2237.39 33L2220.45 33L2220.45 54L2230.4 54Q2234.46 54 2236.68 52.26Q2237.47 51.63 2237.98 50.83Q2238.89 49.39 2238.89 47.37Q2238.89 45.23 2237.88 43.81Q2237.48 43.23 2236.9 42.77Q2234.9 41.18 2231.1 41.18L2225.28 41.18L2225.28 36.86L2237.39 36.86L2237.39 33ZM2253.03 49.62L2261.97 33L2257.2 33L2251.44 44.28L2245.86 33L2240.67 33L2248.95 48.41L2248.77 48.66Q2248.17 49.59 2247.45 50.03Q2247.27 50.13 2247.07 50.22Q2246.5 50.46 2245.83 50.46Q2244.99 50.46 2243.73 50.06L2242.56 53.75Q2244.33 54.48 2245.98 54.48Q2246.88 54.48 2247.73 54.26Q2248.87 53.96 2249.92 53.25Q2251.74 52.02 2253.03 49.62ZM2284.56 41.43L2284.59 54L2289.14 54L2289.12 33L2285.1 33L2277.36 46.05L2269.5 33L2265.48 33L2265.48 54L2270.04 54L2270.04 41.67L2276.22 51.78L2278.37 51.78L2284.56 41.43ZM2300.04 49.5L2309.79 49.5L2311.64 54L2316.75 54L2307.36 33L2302.56 33L2293.2 54L2298.18 54L2300.04 49.5ZM2325.54 36.95L2335.53 36.95L2335.56 33L2320.74 33L2320.74 54L2325.57 54L2325.54 36.95ZM2340.12 49.5L2349.87 49.5L2351.73 54L2356.83 54L2347.44 33L2342.63 33L2333.28 54L2338.26 54L2340.12 49.5ZM2045.71 49.72Q2044.5 50.22 2043.09 50.22Q2041.66 50.22 2040.43 49.7Q2040.07 49.55 2039.73 49.36Q2039.04 48.96 2038.48 48.43Q2037.84 47.8 2037.37 46.98Q2037.3 46.84 2037.22 46.69Q2036.52 45.27 2036.52 43.49Q2036.52 41.75 2037.2 40.34Q2037.28 40.17 2037.37 40.01Q2037.85 39.16 2038.53 38.52Q2039.07 38.01 2039.73 37.63Q2040.07 37.44 2040.43 37.29Q2041.66 36.78 2043.09 36.78Q2044.5 36.78 2045.71 37.27Q2046.09 37.43 2046.45 37.63Q2047.11 38.01 2047.65 38.52Q2048.33 39.16 2048.81 40.01Q2048.89 40.17 2048.98 40.34Q2049.65 41.75 2049.65 43.49Q2049.65 45.27 2048.96 46.69Q2048.88 46.84 2048.81 46.98Q2048.35 47.8 2047.7 48.43Q2047.14 48.96 2046.45 49.36Q2046.09 49.57 2045.71 49.72ZM1873.15 37.76L1876.47 45.81L1869.81 45.81L1873.15 37.76ZM2304.94 37.76L2308.26 45.81L2301.6 45.81L2304.94 37.76ZM2345.02 37.76L2348.34 45.81L2341.68 45.81L2345.02 37.76ZM1978.3 49.47Q1977.24 50.39 1975.35 50.39L1970.97 50.39L1970.97 43.49L1975.35 43.49Q1977.77 43.49 1978.73 44.68Q1979.37 45.46 1979.37 46.77Q1979.37 48.19 1978.68 49.08Q1978.51 49.29 1978.3 49.47ZM2181.82 49.47Q2180.76 50.39 2178.87 50.39L2174.49 50.39L2174.49 43.49L2178.87 43.49Q2181.29 43.49 2182.25 44.68Q2182.88 45.46 2182.88 46.77Q2182.88 48.19 2182.2 49.08Q2182.03 49.29 2181.82 49.47ZM2232.99 49.66Q2232 50.39 2230.13 50.39L2225.28 50.39L2225.28 44.75L2230.13 44.75Q2232.67 44.75 2233.54 45.95Q2233.98 46.57 2233.98 47.51Q2233.98 48.45 2233.55 49.08Q2233.32 49.41 2232.99 49.66ZM1991.46 48.78Q1990.82 48.41 1989.96 48.41Q1989.13 48.41 1988.49 48.76Q1988.16 48.94 1987.88 49.21Q1987.62 49.46 1987.44 49.75Q1987.05 50.41 1987.05 51.29Q1987.05 52.05 1987.35 52.65Q1987.41 52.77 1987.48 52.87Q1987.69 53.19 1987.97 53.43Q1988.28 53.69 1988.67 53.85L1987.35 58.62L1990.32 58.62L1992.03 54.3Q1992.54 53.09 1992.69 52.49Q1992.84 51.89 1992.84 51.29Q1992.84 50.38 1992.44 49.72Q1992.27 49.44 1992.03 49.21Q1991.77 48.96 1991.46 48.78ZM2204.55 48.78Q2203.9 48.41 2203.05 48.41Q2202.22 48.41 2201.58 48.76Q2201.25 48.94 2200.97 49.21Q2200.71 49.46 2200.53 49.75Q2200.13 50.41 2200.13 51.29Q2200.13 52.05 2200.44 52.65Q2200.5 52.77 2200.57 52.87Q2200.78 53.19 2201.06 53.43Q2201.37 53.69 2201.76 53.85L2200.44 58.62L2203.4 58.62L2205.12 54.3Q2205.62 53.09 2205.78 52.49Q2205.93 51.89 2205.93 51.29Q2205.93 50.38 2205.53 49.72Q2205.36 49.44 2205.12 49.21Q2204.86 48.96 2204.55 48.78Z" fill="#202027" fill-opacity="1.000000" fill-rule="evenodd"/>
			<path id="Star" d="M2427 27L2422.13 40.13L2409 45L2422.13 49.86L2427 63L2431.86 49.86L2445 45L2431.86 40.13L2427 27Z" fill="#202027" fill-opacity="1.000000" fill-rule="evenodd"/>
			<path id="Генератор случайных цветов" d="M2835.02 29.91Q2836.41 31.64 2839.95 31.64Q2842.85 31.64 2844.29 30.48Q2844.65 30.19 2844.92 29.83Q2845.74 28.75 2845.76 27.06L2842.44 27.06Q2842.41 27.98 2841.94 28.52Q2841.87 28.61 2841.78 28.69Q2841.15 29.25 2839.95 29.25Q2838.6 29.25 2837.98 28.58Q2837.48 28.03 2837.46 27.06L2834.12 27.06Q2834.15 28.83 2835.02 29.91ZM2656.54 53.26Q2658.93 54.35 2661.81 54.35Q2664.73 54.35 2667.12 53.23Q2667.41 53.1 2667.69 52.95Q2669.26 52.1 2670.42 50.87Q2671.2 50.05 2671.8 49.06Q2672.21 48.37 2672.52 47.64Q2673.3 45.72 2673.3 43.49Q2673.3 41.29 2672.53 39.4Q2672.23 38.64 2671.8 37.93Q2671.19 36.93 2670.4 36.1Q2669.24 34.89 2667.69 34.05Q2667.39 33.89 2667.08 33.75Q2664.71 32.64 2661.81 32.64Q2658.95 32.64 2656.58 33.72Q2656.24 33.87 2655.91 34.05Q2654.32 34.9 2653.15 36.15Q2652.39 36.96 2651.8 37.93Q2651.41 38.59 2651.12 39.3Q2650.32 41.23 2650.32 43.49Q2650.32 45.78 2651.13 47.73Q2651.42 48.42 2651.8 49.06Q2652.38 50.02 2653.13 50.83Q2654.31 52.08 2655.91 52.95Q2656.22 53.11 2656.54 53.26ZM2715.8 53.36Q2718.08 54.35 2720.79 54.35Q2723.52 54.35 2725.74 53.39Q2727.06 52.82 2728.12 51.95Q2728.85 51.35 2729.46 50.6L2726.34 47.73Q2725.15 49.11 2723.65 49.73Q2722.46 50.22 2721.06 50.22Q2719.32 50.22 2717.91 49.53Q2717.74 49.45 2717.58 49.36Q2716.8 48.92 2716.19 48.31Q2715.61 47.72 2715.19 46.98Q2715.11 46.84 2715.04 46.69Q2714.34 45.27 2714.34 43.49Q2714.34 41.75 2715.02 40.34Q2715.1 40.17 2715.19 40.01Q2715.63 39.24 2716.23 38.64Q2716.83 38.05 2717.58 37.63Q2717.74 37.54 2717.91 37.46Q2719.32 36.78 2721.06 36.78Q2722.48 36.78 2723.7 37.28Q2725.17 37.89 2726.34 39.24L2729.46 36.36Q2728.88 35.67 2728.21 35.1Q2727.11 34.19 2725.75 33.6Q2723.55 32.64 2720.82 32.64Q2717.99 32.64 2715.65 33.7Q2715.31 33.86 2714.98 34.04Q2713.51 34.83 2712.4 35.96Q2711.55 36.83 2710.9 37.9Q2710.57 38.45 2710.32 39.03Q2709.42 41.06 2709.42 43.49Q2709.42 45.9 2710.3 47.93Q2710.56 48.52 2710.9 49.09Q2711.54 50.15 2712.38 51.01Q2713.5 52.16 2714.98 52.96Q2715.38 53.18 2715.8 53.36ZM3042.52 53.26Q3044.91 54.35 3047.79 54.35Q3050.71 54.35 3053.1 53.23Q3053.39 53.1 3053.67 52.95Q3055.24 52.1 3056.4 50.87Q3057.18 50.05 3057.78 49.06Q3058.19 48.37 3058.5 47.64Q3059.28 45.72 3059.28 43.49Q3059.28 41.29 3058.51 39.4Q3058.21 38.64 3057.78 37.93Q3057.17 36.93 3056.38 36.1Q3055.22 34.89 3053.67 34.05Q3053.37 33.89 3053.06 33.75Q3050.69 32.64 3047.79 32.64Q3044.93 32.64 3042.56 33.72Q3042.22 33.87 3041.89 34.05Q3040.3 34.9 3039.13 36.15Q3038.37 36.96 3037.78 37.93Q3037.39 38.59 3037.1 39.3Q3036.3 41.23 3036.3 43.49Q3036.3 45.78 3037.11 47.73Q3037.4 48.42 3037.78 49.06Q3038.36 50.02 3039.11 50.83Q3040.29 52.08 3041.89 52.95Q3042.2 53.11 3042.52 53.26ZM2503.4 36.95L2513.39 36.95L2513.43 33L2498.61 33L2498.61 54L2503.44 54L2503.4 36.95ZM2533.86 54L2533.86 50.1L2522.42 50.1L2522.42 45.24L2532.18 45.24L2532.18 41.46L2522.42 41.46L2522.42 36.89L2533.47 36.89L2533.47 33L2517.6 33L2517.6 54L2533.86 54ZM2558.25 54L2558.25 33L2553.38 33L2553.38 41.27L2543.85 41.27L2543.85 33L2538.99 33L2538.99 54L2543.85 54L2543.85 45.38L2553.38 45.38L2553.38 54L2558.25 54ZM2580.96 54L2580.96 50.1L2569.52 50.1L2569.52 45.24L2579.28 45.24L2579.28 41.46L2569.52 41.46L2569.52 36.89L2580.57 36.89L2580.57 33L2564.7 33L2564.7 54L2580.96 54ZM2600.02 33.93Q2597.97 33 2595.18 33L2586.09 33L2586.09 54L2590.95 54L2590.95 48.2L2595.18 48.2Q2597.97 48.2 2600.02 47.29Q2601.62 46.57 2602.65 45.36Q2602.94 45.03 2603.18 44.66Q2603.34 44.41 2603.48 44.15Q2604.3 42.6 2604.3 40.61Q2604.3 38.51 2603.38 36.92Q2603.29 36.74 2603.18 36.57Q2602.97 36.24 2602.73 35.95Q2601.68 34.68 2600.02 33.93ZM2612.12 49.5L2621.88 49.5L2623.74 54L2628.84 54L2619.45 33L2614.64 33L2605.29 54L2610.27 54L2612.12 49.5ZM2641.11 36.95L2647.83 36.95L2647.83 33L2629.62 33L2629.62 36.95L2636.31 36.95L2636.31 54L2641.11 54L2641.11 36.95ZM2692.18 33.93Q2690.13 33 2687.34 33L2678.25 33L2678.25 54L2683.11 54L2683.11 48.2L2687.34 48.2Q2690.13 48.2 2692.18 47.29Q2693.79 46.57 2694.82 45.36Q2695.1 45.03 2695.34 44.66Q2695.5 44.41 2695.64 44.15Q2696.46 42.6 2696.46 40.61Q2696.46 38.51 2695.55 36.92Q2695.45 36.74 2695.34 36.57Q2695.13 36.24 2694.89 35.95Q2693.84 34.68 2692.18 33.93ZM2752.05 54L2752.05 33L2735.91 33L2735.61 41.51Q2735.43 45.89 2734.74 47.95Q2734.29 49.29 2733.39 49.76Q2732.91 50 2732.31 50Q2731.83 50 2731.44 49.89L2731.14 54Q2732.55 54.32 2733.54 54.32Q2735.39 54.32 2736.61 53.45Q2736.97 53.18 2737.28 52.85Q2738.61 51.36 2739.18 48.58Q2739.75 45.81 2739.9 41.33L2740.05 36.95L2747.25 36.95L2747.25 54L2752.05 54ZM2768.52 49.62L2777.46 33L2772.69 33L2766.93 44.28L2761.35 33L2756.16 33L2764.44 48.41L2764.26 48.66Q2763.66 49.59 2762.94 50.03Q2762.76 50.13 2762.56 50.22Q2761.99 50.46 2761.32 50.46Q2760.48 50.46 2759.22 50.06L2758.05 53.75Q2759.82 54.48 2761.47 54.48Q2762.38 54.48 2763.22 54.26Q2764.37 53.96 2765.41 53.25Q2767.23 52.02 2768.52 49.62ZM2798.67 54L2798.67 33L2793.87 33L2793.87 42.44Q2793.32 42.69 2792.75 42.87Q2791.14 43.37 2789.37 43.37Q2787.18 43.37 2786.02 42.28Q2785.94 42.21 2785.87 42.12Q2784.87 41.03 2784.87 39.02L2784.87 33L2780.07 33L2780.07 39.57Q2780.07 42.71 2781.6 44.64Q2781.92 45.05 2782.32 45.4Q2784.57 47.43 2788.8 47.43Q2791.14 47.43 2793.87 46.44L2793.87 54L2798.67 54ZM2809.56 49.5L2819.31 49.5L2821.17 54L2826.27 54L2816.88 33L2812.08 33L2802.72 54L2807.7 54L2809.56 49.5ZM2835.09 33L2830.26 33L2830.26 54L2834.85 54L2844.87 40.34L2844.87 54L2849.67 54L2849.67 33L2845.11 33L2835.09 46.68L2835.09 33ZM2875.35 54L2875.35 33L2870.49 33L2870.49 41.27L2860.95 41.27L2860.95 33L2856.09 33L2856.09 54L2860.95 54L2860.95 45.38L2870.49 45.38L2870.49 54L2875.35 54ZM2897.86 41.61Q2895.81 39.9 2891.97 39.9L2886.63 39.9L2886.63 33L2881.8 33L2881.8 54L2891.28 54Q2895.39 54 2897.65 52.12Q2898.21 51.66 2898.62 51.1Q2899.92 49.37 2899.92 46.68Q2899.92 44 2898.61 42.37Q2898.28 41.95 2897.86 41.61ZM2907.42 33L2902.59 33L2902.59 54L2907.42 54L2907.42 33ZM2921.97 39.35L2917.62 33L2912.01 33L2919.03 43.26L2911.53 54L2917.14 54L2921.97 47.04L2926.86 54L2932.59 54L2925.03 43.05L2932.02 33L2926.32 33L2921.97 39.35ZM2968.41 58.43L2968.41 50.03L2965.41 50.03L2965.41 33L2960.58 33L2960.58 50.03L2951.22 50.03L2951.22 33L2946.39 33L2946.39 54L2963.94 54L2963.94 58.43L2968.41 58.43ZM2990.3 44.89Q2989.28 43.61 2987.37 43.05Q2988.55 42.47 2989.29 41.53Q2989.43 41.36 2989.55 41.17Q2989.73 40.9 2989.87 40.61Q2990.34 39.63 2990.34 38.42Q2990.34 36.97 2989.7 35.89Q2989.2 35.03 2988.29 34.41Q2986.26 33 2982.6 33L2972.82 33L2972.82 54L2983.17 54Q2987.1 54 2989.22 52.43Q2990.12 51.77 2990.64 50.88Q2991.33 49.68 2991.33 48.08Q2991.33 46.57 2990.67 45.43Q2990.51 45.16 2990.31 44.91L2990.3 44.89ZM3012.63 54L3012.63 50.1L3001.19 50.1L3001.19 45.24L3010.95 45.24L3010.95 41.46L3001.19 41.46L3001.19 36.89L3012.24 36.89L3012.24 33L2996.37 33L2996.37 54L3012.63 54ZM3027.09 36.95L3033.81 36.95L3033.81 33L3015.6 33L3015.6 36.95L3022.29 36.95L3022.29 54L3027.09 54L3027.09 36.95ZM3081.71 44.89Q3080.69 43.61 3078.78 43.05Q3079.96 42.47 3080.7 41.53Q3080.84 41.36 3080.96 41.17Q3081.14 40.9 3081.28 40.61Q3081.75 39.63 3081.75 38.42Q3081.75 36.97 3081.11 35.89Q3080.61 35.03 3079.7 34.41Q3077.67 33 3074.01 33L3064.23 33L3064.23 54L3074.58 54Q3078.51 54 3080.63 52.43Q3081.53 51.77 3082.05 50.88Q3082.74 49.68 3082.74 48.08Q3082.74 46.57 3082.08 45.43Q3081.92 45.16 3081.72 44.91L3081.71 44.89ZM2982.18 41.7L2977.65 41.7L2977.65 36.59L2982.18 36.59Q2983.74 36.59 2984.57 37.26Q2984.82 37.47 2985 37.73Q2985.39 38.3 2985.39 39.14Q2985.39 40.09 2984.93 40.7Q2984.78 40.89 2984.58 41.05Q2983.77 41.7 2982.18 41.7ZM3073.59 41.7L3069.06 41.7L3069.06 36.59L3073.59 36.59Q3075.15 36.59 3075.98 37.26Q3076.23 37.47 3076.41 37.73Q3076.8 38.3 3076.8 39.14Q3076.8 40.09 3076.34 40.7Q3076.19 40.89 3075.99 41.05Q3075.18 41.7 3073.59 41.7ZM2664.43 49.72Q2663.22 50.22 2661.81 50.22Q2660.38 50.22 2659.15 49.7Q2658.79 49.55 2658.45 49.36Q2657.76 48.96 2657.2 48.43Q2656.56 47.8 2656.09 46.98Q2656.02 46.84 2655.94 46.69Q2655.24 45.27 2655.24 43.49Q2655.24 41.75 2655.92 40.34Q2656 40.17 2656.09 40.01Q2656.57 39.16 2657.25 38.52Q2657.79 38.01 2658.45 37.63Q2658.79 37.44 2659.15 37.29Q2660.38 36.78 2661.81 36.78Q2663.22 36.78 2664.43 37.27Q2664.81 37.43 2665.17 37.63Q2665.83 38.01 2666.37 38.52Q2667.05 39.16 2667.53 40.01Q2667.62 40.17 2667.7 40.34Q2668.38 41.75 2668.38 43.49Q2668.38 45.27 2667.68 46.69Q2667.61 46.84 2667.53 46.98Q2667.07 47.8 2666.42 48.43Q2665.86 48.96 2665.17 49.36Q2664.81 49.57 2664.43 49.72ZM3050.41 49.72Q3049.2 50.22 3047.79 50.22Q3046.36 50.22 3045.13 49.7Q3044.77 49.55 3044.43 49.36Q3043.74 48.96 3043.18 48.43Q3042.54 47.8 3042.07 46.98Q3042 46.84 3041.92 46.69Q3041.22 45.27 3041.22 43.49Q3041.22 41.75 3041.9 40.34Q3041.98 40.17 3042.07 40.01Q3042.55 39.16 3043.23 38.52Q3043.77 38.01 3044.43 37.63Q3044.77 37.44 3045.13 37.29Q3046.36 36.78 3047.79 36.78Q3049.2 36.78 3050.41 37.27Q3050.79 37.43 3051.15 37.63Q3051.81 38.01 3052.35 38.52Q3053.03 39.16 3053.51 40.01Q3053.6 40.17 3053.68 40.34Q3054.36 41.75 3054.36 43.49Q3054.36 45.27 3053.66 46.69Q3053.59 46.84 3053.51 46.98Q3053.05 47.8 3052.4 48.43Q3051.84 48.96 3051.15 49.36Q3050.79 49.57 3050.41 49.72ZM2598.23 43.3Q2597.1 44.25 2594.9 44.25L2590.95 44.25L2590.95 36.95L2594.9 36.95Q2597.1 36.95 2598.23 37.9Q2598.54 38.16 2598.76 38.47Q2599.37 39.32 2599.37 40.61Q2599.37 41.86 2598.79 42.7Q2598.56 43.03 2598.23 43.3ZM2690.39 43.3Q2689.26 44.25 2687.07 44.25L2683.11 44.25L2683.11 36.95L2687.07 36.95Q2689.26 36.95 2690.39 37.9Q2690.7 38.16 2690.92 38.47Q2691.53 39.32 2691.53 40.61Q2691.53 41.86 2690.95 42.7Q2690.72 43.03 2690.39 43.3ZM2617.03 37.76L2620.35 45.81L2613.69 45.81L2617.03 37.76ZM2814.46 37.76L2817.78 45.81L2811.12 45.81L2814.46 37.76ZM2893.96 49.47Q2892.9 50.39 2891.01 50.39L2886.63 50.39L2886.63 43.49L2891.01 43.49Q2893.43 43.49 2894.39 44.68Q2895.03 45.46 2895.03 46.77Q2895.03 48.19 2894.34 49.08Q2894.17 49.29 2893.96 49.47ZM2985.91 49.37Q2985.1 50.39 2982.99 50.39L2977.65 50.39L2977.65 45.08L2982.99 45.08Q2985.15 45.08 2985.95 46.12Q2986.41 46.73 2986.41 47.7Q2986.41 48.73 2985.91 49.37ZM3077.32 49.37Q3076.51 50.39 3074.4 50.39L3069.06 50.39L3069.06 45.08L3074.4 45.08Q3076.56 45.08 3077.36 46.12Q3077.82 46.73 3077.82 47.7Q3077.82 48.73 3077.32 49.37Z" fill="#202027" fill-opacity="1.000000" fill-rule="evenodd"/>
			<path id="Star" d="M3153 27L3148.14 40.13L3135 45L3148.14 49.86L3153 63L3157.86 49.86L3171 45L3157.86 40.13L3153 27Z" fill="#202027" fill-opacity="1.000000" fill-rule="evenodd"/>
		</g>
		<rect id="Полоса для анимации" rx="0.000000" width="3219.000000" height="89.000000" transform="translate(0.500000 0.500000)" stroke="#FFFFFF" stroke-opacity="0.200000" stroke-width="1.000000"/>
	</g>
</svg>
